<svg id="svg" version="1.1" xmlns="http://www.w3.org/2000/svg" xmlns:xlink="http://www.w3.org/1999/xlink" width="400" height="356.42458100558656" viewBox="0, 0, 400,356.42458100558656"><g id="svgg"><path id="path0" d="M65.205 8.507 C 65.311 10.050,65.576 12.696,65.795 14.385 C 66.014 16.075,67.392 28.645,68.859 42.318 C 72.987 80.811,73.631 86.341,73.976 86.246 C 74.078 86.219,78.764 90.800,84.388 96.427 L 94.614 106.657 75.638 152.421 C 31.140 259.733,7.671 316.561,7.398 317.660 C 7.170 318.575,34.804 346.186,36.313 346.551 C 38.329 347.039,208.799 346.525,214.127 346.015 C 261.519 341.480,294.067 322.313,308.897 290.209 C 311.098 285.442,329.021 241.698,329.720 239.385 C 335.374 220.672,331.147 198.852,319.087 184.497 C 317.233 182.290,316.092 180.733,316.240 180.613 C 316.296 180.569,318.038 179.612,320.112 178.487 C 322.186 177.362,329.288 173.462,335.894 169.822 C 342.500 166.182,351.548 161.221,356.000 158.799 C 365.690 153.526,364.835 154.048,365.537 152.973 C 366.021 152.232,374.890 131.148,383.532 110.196 C 391.035 92.004,392.548 80.689,388.933 69.807 C 387.178 64.523,385.957 62.805,378.631 55.306 C 366.661 43.055,354.061 29.996,351.738 27.435 C 340.970 15.560,325.284 8.942,302.234 6.546 C 296.192 5.918,289.495 5.880,169.447 5.785 L 65.012 5.702 65.205 8.507 M300.140 17.051 C 332.350 19.430,350.694 33.209,350.697 55.028 C 350.699 63.876,350.366 65.065,342.728 83.520 C 340.089 89.895,336.116 99.503,333.899 104.871 C 331.682 110.238,329.527 115.258,329.110 116.025 C 328.216 117.671,329.702 116.799,301.844 132.021 C 280.156 143.872,268.153 150.566,268.166 150.804 C 268.171 150.899,269.130 151.591,270.297 152.341 C 289.431 164.635,297.358 186.245,290.806 208.247 C 289.809 211.595,271.892 254.932,269.617 259.497 C 256.169 286.489,227.490 302.539,184.916 306.897 C 178.541 307.549,22.739 307.819,22.985 307.177 C 23.066 306.967,27.467 296.373,32.766 283.635 C 38.065 270.897,53.399 233.890,66.842 201.397 C 80.285 168.904,94.565 134.423,98.575 124.772 C 102.585 115.122,105.866 107.133,105.866 107.019 C 105.866 104.805,107.787 103.878,138.547 91.247 C 158.606 83.011,176.145 75.493,175.892 75.240 C 175.845 75.193,154.990 75.120,129.547 75.078 C 104.104 75.035,83.206 74.919,83.107 74.821 C 83.009 74.722,82.492 70.385,81.960 65.184 C 81.428 59.982,80.370 50.070,79.610 43.156 C 77.590 24.783,76.816 17.578,76.816 17.146 C 76.816 16.482,291.194 16.391,300.140 17.051 M207.329 75.395 C 207.241 75.638,204.726 81.746,201.739 88.966 C 189.169 119.356,187.481 123.468,184.016 132.123 C 182.018 137.116,180.323 141.302,180.250 141.425 C 180.033 141.790,186.213 137.721,242.737 100.281 C 254.644 92.395,267.952 83.592,272.311 80.719 C 277.306 77.427,280.111 75.417,279.896 75.284 C 279.124 74.807,207.502 74.916,207.329 75.395 M172.048 160.524 C 171.383 162.275,163.149 182.271,156.125 199.195 C 145.917 223.788,136.159 247.479,135.907 248.279 L 135.701 248.933 153.116 248.811 L 170.531 248.690 173.155 247.943 C 184.001 244.856,192.759 236.367,199.706 222.207 C 205.204 210.999,205.266 202.701,199.931 192.039 C 197.122 186.427,196.634 185.825,182.199 170.182 C 171.605 158.700,172.440 159.494,172.048 160.524 " stroke="none" fill="#15413a" fill-rule="evenodd"></path><path id="path1" d="M56.983 1.115 C 56.983 1.731,57.090 2.235,57.220 2.235 C 57.350 2.235,57.611 4.152,57.801 6.494 C 57.990 8.837,58.257 11.383,58.393 12.151 C 58.530 12.919,58.776 15.056,58.940 16.899 C 59.103 18.743,59.484 22.388,59.786 25.000 C 60.088 27.612,60.335 30.417,60.335 31.233 C 60.335 32.050,60.447 32.930,60.583 33.189 C 60.720 33.448,60.972 35.230,61.144 37.151 C 61.316 39.071,61.646 42.214,61.877 44.134 C 62.284 47.512,63.517 58.745,63.794 61.592 C 64.152 65.272,64.833 71.435,65.231 74.592 C 65.473 76.518,65.785 79.472,65.923 81.156 C 66.247 85.098,67.054 92.951,67.228 93.855 C 67.315 94.302,70.567 97.761,76.287 103.489 C 84.548 111.762,85.198 112.483,85.040 113.200 C 84.861 114.015,81.662 121.946,80.718 123.913 C 80.415 124.545,80.168 125.217,80.168 125.406 C 80.168 125.596,79.981 126.085,79.753 126.493 C 79.295 127.310,75.045 137.712,74.714 138.827 C 74.599 139.211,74.334 139.773,74.124 140.076 C 73.915 140.379,73.743 140.821,73.743 141.058 C 73.743 141.295,73.498 141.945,73.199 142.504 C 72.900 143.062,71.575 146.139,70.255 149.343 C 68.935 152.547,67.608 155.684,67.307 156.316 C 67.006 156.947,66.760 157.619,66.760 157.809 C 66.760 157.999,66.573 158.488,66.345 158.895 C 66.117 159.303,65.244 161.334,64.405 163.408 C 62.761 167.472,60.060 174.006,59.554 175.140 C 57.944 178.754,54.654 186.908,54.539 187.570 C 54.459 188.031,54.222 188.508,54.013 188.631 C 53.803 188.754,53.631 189.015,53.631 189.212 C 53.631 189.629,52.392 192.840,51.839 193.855 C 51.630 194.239,50.892 195.999,50.199 197.765 C 49.506 199.532,48.569 201.795,48.117 202.793 C 47.665 203.792,47.077 205.269,46.810 206.075 C 46.542 206.882,46.222 207.542,46.098 207.542 C 45.974 207.542,45.784 208.013,45.676 208.589 C 45.568 209.166,45.307 209.951,45.096 210.335 C 44.886 210.719,44.222 212.228,43.622 213.687 C 43.022 215.147,41.823 218.052,40.959 220.144 C 40.094 222.236,39.210 224.451,38.993 225.065 C 38.776 225.680,38.463 226.420,38.298 226.709 C 38.133 226.998,37.236 229.120,36.306 231.425 C 34.454 236.010,33.762 237.661,32.775 239.857 C 32.416 240.654,32.123 241.494,32.123 241.723 C 32.123 241.952,31.950 242.312,31.738 242.524 C 31.526 242.736,31.260 243.342,31.147 243.871 C 31.034 244.400,30.845 244.958,30.727 245.112 C 30.470 245.446,25.860 256.540,25.561 257.542 C 25.447 257.926,25.190 258.429,24.991 258.659 C 24.791 258.890,24.542 259.545,24.436 260.116 C 24.330 260.686,24.068 261.299,23.853 261.477 C 23.639 261.655,23.464 261.923,23.464 262.073 C 23.464 262.337,21.920 266.214,19.539 271.927 C 18.899 273.464,17.812 276.103,17.123 277.793 C 14.283 284.764,11.927 290.431,11.426 291.499 C 11.133 292.123,10.894 292.831,10.894 293.071 C 10.894 293.311,10.705 293.663,10.475 293.855 C 10.244 294.046,10.056 294.376,10.056 294.589 C 10.056 294.801,9.359 296.640,8.507 298.675 C 3.624 310.338,0.000 319.317,-0.000 319.754 C -0.000 320.042,7.644 327.896,18.090 338.341 L 36.179 356.429 125.981 356.298 C 218.214 356.163,219.274 356.158,219.274 355.850 C 219.274 355.750,220.751 355.594,222.556 355.504 C 224.361 355.413,226.278 355.204,226.816 355.040 C 227.353 354.876,228.987 354.612,230.447 354.455 C 231.906 354.297,233.478 354.040,233.939 353.882 C 234.399 353.725,235.845 353.416,237.151 353.196 C 241.441 352.473,248.058 350.870,249.138 350.292 C 249.438 350.131,250.015 350.000,250.419 350.000 C 250.823 350.000,251.742 349.762,252.462 349.471 C 253.182 349.180,254.965 348.559,256.425 348.091 C 262.652 346.095,271.028 342.396,277.176 338.928 C 280.049 337.307,288.375 331.866,288.503 331.526 C 288.555 331.387,288.978 331.077,289.442 330.837 C 290.625 330.225,296.587 325.125,299.529 322.209 C 309.066 312.754,317.350 299.995,321.656 288.128 C 321.935 287.360,322.255 286.606,322.367 286.453 C 322.479 286.299,322.978 285.105,323.477 283.799 C 323.976 282.493,324.554 281.177,324.762 280.874 C 324.970 280.571,325.140 280.144,325.140 279.927 C 325.140 279.709,325.385 279.014,325.685 278.383 C 325.986 277.751,326.993 275.349,327.925 273.045 C 328.856 270.740,329.866 268.352,330.169 267.737 C 330.472 267.123,330.800 266.212,330.898 265.712 C 330.995 265.213,331.181 264.804,331.309 264.804 C 331.438 264.804,331.686 264.270,331.860 263.617 C 332.035 262.964,332.280 262.304,332.406 262.151 C 332.531 261.997,333.212 260.363,333.919 258.520 C 334.625 256.676,335.516 254.505,335.898 253.695 C 336.280 252.885,336.592 251.987,336.592 251.700 C 336.592 251.412,336.765 251.111,336.976 251.030 C 337.187 250.949,337.450 250.401,337.560 249.813 C 337.671 249.225,337.861 248.681,337.983 248.604 C 338.903 248.024,341.621 236.632,342.172 231.046 C 342.753 225.164,342.299 211.563,341.454 209.533 C 341.238 209.015,341.061 208.257,341.061 207.848 C 341.061 207.439,340.868 206.418,340.631 205.578 C 340.394 204.738,340.075 203.547,339.923 202.933 C 339.613 201.690,338.757 199.331,337.996 197.626 C 337.721 197.011,337.275 195.880,337.003 195.112 C 336.503 193.697,334.361 189.407,333.056 187.204 C 332.663 186.542,332.387 185.965,332.442 185.921 C 332.497 185.878,334.365 184.876,336.592 183.694 C 342.354 180.638,344.214 179.632,344.693 179.315 C 344.923 179.162,346.620 178.213,348.464 177.205 C 358.857 171.526,360.512 170.619,360.894 170.394 C 362.315 169.557,372.008 164.310,372.382 164.174 C 372.919 163.981,373.929 161.923,376.118 156.564 C 376.997 154.413,377.953 152.103,378.243 151.431 C 378.533 150.759,378.772 150.067,378.773 149.895 C 378.774 149.722,378.972 149.204,379.213 148.743 C 379.455 148.282,381.284 143.946,383.279 139.106 C 385.274 134.267,387.084 129.930,387.302 129.469 C 387.521 129.008,388.717 126.117,389.960 123.045 C 391.204 119.972,392.448 117.013,392.724 116.469 C 393.000 115.926,393.320 115.046,393.436 114.514 C 393.551 113.982,393.743 113.485,393.863 113.408 C 394.115 113.246,394.944 111.029,396.160 107.263 C 396.631 105.803,397.174 104.232,397.367 103.771 C 397.559 103.310,397.807 102.304,397.916 101.536 C 398.026 100.768,398.209 100.014,398.324 99.860 C 399.750 97.948,400.456 81.205,399.336 75.838 C 398.738 72.972,397.612 69.072,397.249 68.609 C 397.114 68.437,396.922 67.952,396.822 67.530 C 396.079 64.421,392.328 59.325,385.614 52.302 C 355.737 21.053,350.648 16.224,343.104 11.963 C 336.985 8.506,326.840 4.469,324.273 4.469 C 323.846 4.469,323.430 4.361,323.348 4.228 C 323.037 3.725,316.489 2.235,314.588 2.235 C 313.693 2.235,312.841 2.126,312.696 1.993 C 312.136 1.484,309.692 1.117,306.860 1.117 C 305.238 1.117,303.911 1.003,303.911 0.863 C 303.911 0.269,294.793 0.214,178.701 0.108 L 56.983 -0.004 56.983 1.115 M294.832 5.872 C 322.486 7.322,340.733 14.420,352.823 28.429 C 354.113 29.923,358.255 34.288,362.028 38.128 C 387.420 63.976,387.861 64.517,389.813 72.215 C 392.526 82.907,390.732 93.056,382.682 112.570 C 373.616 134.546,366.105 152.416,365.775 152.793 C 365.574 153.024,364.990 153.827,364.478 154.578 C 363.599 155.868,363.026 156.230,354.190 161.057 C 349.043 163.869,344.455 166.392,343.994 166.664 C 342.443 167.580,337.299 170.379,336.354 170.822 C 335.839 171.063,335.273 171.387,335.097 171.541 C 334.921 171.695,331.760 173.446,328.074 175.431 C 324.388 177.417,321.329 179.169,321.277 179.325 C 321.225 179.481,320.988 179.609,320.751 179.609 C 320.261 179.609,317.417 181.178,317.164 181.589 C 317.072 181.737,317.615 182.578,318.371 183.457 C 331.324 198.530,335.778 220.546,329.734 239.633 C 328.341 244.033,310.455 287.295,308.010 292.179 C 291.139 325.878,255.755 344.465,204.330 346.640 C 192.449 347.143,37.016 347.022,35.936 346.510 C 35.452 346.280,28.780 339.815,21.109 332.143 L 7.163 318.194 7.523 316.988 C 8.098 315.066,24.209 275.998,65.500 176.397 C 79.830 141.830,92.201 111.983,92.991 110.071 L 94.427 106.595 84.434 96.525 C 78.938 90.986,74.237 86.416,73.987 86.369 C 73.675 86.310,73.478 85.870,73.360 84.971 C 72.954 81.863,70.784 62.202,68.576 41.620 C 67.265 29.406,65.944 17.376,65.639 14.885 C 65.333 12.394,65.084 9.252,65.084 7.902 L 65.084 5.447 177.165 5.513 C 250.765 5.556,291.164 5.679,294.832 5.872 M77.211 18.925 C 77.317 20.115,78.397 30.203,79.610 41.341 C 80.823 52.479,82.101 64.509,82.450 68.074 L 83.085 74.556 84.558 74.740 C 86.784 75.018,107.866 75.058,153.422 74.871 C 167.051 74.814,176.534 74.879,176.530 75.027 C 176.517 75.525,161.393 82.067,138.765 91.364 C 119.950 99.094,108.120 104.121,107.526 104.638 C 106.892 105.190,106.202 106.763,99.697 122.486 C 61.260 215.385,40.109 266.456,32.542 284.637 C 27.522 296.697,23.349 306.725,23.267 306.921 C 23.009 307.541,179.935 307.250,185.894 306.619 C 227.533 302.210,255.716 286.396,269.212 259.869 C 271.090 256.176,288.969 213.278,290.255 209.378 C 297.583 187.151,289.573 164.913,269.621 152.095 C 268.665 151.480,267.881 150.893,267.880 150.789 C 267.876 150.483,278.482 144.558,302.793 131.286 C 320.435 121.654,327.618 117.675,328.190 117.217 C 328.726 116.787,329.426 115.204,334.448 103.058 C 336.827 97.305,340.792 87.724,343.259 81.766 C 348.176 69.892,349.117 67.231,349.955 62.849 C 354.561 38.738,338.285 21.979,306.285 17.881 C 297.927 16.811,292.765 16.763,183.411 16.762 L 77.018 16.760 77.211 18.925 M279.864 75.077 C 280.809 75.290,280.753 75.336,273.719 79.991 C 269.815 82.575,256.564 91.346,244.274 99.483 C 196.827 130.895,180.099 141.924,180.022 141.843 C 179.821 141.632,186.493 125.304,207.108 75.559 L 207.455 74.721 243.183 74.791 C 262.833 74.830,279.340 74.958,279.864 75.077 M183.436 171.299 C 198.172 187.307,199.420 189.002,202.064 196.599 C 205.242 205.729,204.758 212.108,200.164 221.648 C 192.846 236.844,183.287 245.882,171.788 248.477 C 169.332 249.031,135.475 249.469,135.475 248.946 C 135.475 248.656,142.525 231.501,155.305 200.698 C 159.639 190.251,165.194 176.805,167.648 170.817 C 172.115 159.922,172.296 159.497,172.476 159.497 C 172.529 159.497,177.461 164.808,183.436 171.299 " stroke="none" fill="#fbfbfb" fill-rule="evenodd"></path><path id="path2" d="M146.880 5.796 C 172.741 5.835,214.976 5.835,240.735 5.796 C 266.494 5.757,245.335 5.725,193.715 5.725 C 142.095 5.725,121.019 5.757,146.880 5.796 M143.226 16.690 C 160.010 16.730,187.476 16.730,204.260 16.690 C 221.044 16.650,207.311 16.618,173.743 16.618 C 140.175 16.618,126.442 16.650,143.226 16.690 M341.480 32.402 C 342.237 33.170,342.919 33.799,342.996 33.799 C 343.073 33.799,342.516 33.170,341.760 32.402 C 341.003 31.634,340.321 31.006,340.244 31.006 C 340.168 31.006,340.724 31.634,341.480 32.402 M105.377 75.060 C 105.800 75.124,106.491 75.124,106.913 75.060 C 107.336 74.996,106.990 74.944,106.145 74.944 C 105.300 74.944,104.955 74.996,105.377 75.060 M119.627 75.061 C 120.051 75.125,120.680 75.123,121.023 75.057 C 121.367 74.991,121.020 74.938,120.251 74.940 C 119.483 74.942,119.202 74.997,119.627 75.061 M230.237 75.068 C 231.582 75.120,233.781 75.120,235.126 75.068 C 236.470 75.017,235.370 74.975,232.682 74.975 C 229.993 74.975,228.893 75.017,230.237 75.068 M251.754 75.066 C 252.489 75.124,253.620 75.123,254.268 75.064 C 254.917 75.006,254.316 74.959,252.933 74.959 C 251.550 74.960,251.020 75.008,251.754 75.066 M262.923 75.061 C 263.347 75.125,263.976 75.123,264.319 75.057 C 264.663 74.991,264.316 74.938,263.547 74.940 C 262.779 74.942,262.498 74.997,262.923 75.061 M172.178 159.846 C 172.068 160.038,172.083 160.099,172.212 159.982 C 172.342 159.865,172.833 160.116,173.305 160.541 L 174.162 161.313 173.342 160.405 C 172.402 159.365,172.444 159.385,172.178 159.846 M175.698 163.216 C 175.698 163.264,176.107 163.672,176.606 164.124 L 177.514 164.944 176.694 164.036 C 175.929 163.190,175.698 163.000,175.698 163.216 M179.050 166.847 C 179.050 166.895,179.459 167.304,179.958 167.755 L 180.866 168.575 180.046 167.668 C 179.281 166.821,179.050 166.631,179.050 166.847 M185.475 173.830 C 185.475 173.878,185.883 174.287,186.383 174.738 L 187.291 175.559 186.470 174.651 C 185.705 173.805,185.475 173.615,185.475 173.830 M188.827 177.462 C 188.827 177.510,189.235 177.918,189.735 178.370 L 190.642 179.190 189.822 178.282 C 189.057 177.436,188.827 177.246,188.827 177.462 M151.466 249.091 C 153.272 249.140,156.226 249.140,158.031 249.091 C 159.836 249.043,158.359 249.003,154.749 249.003 C 151.138 249.003,149.661 249.043,151.466 249.091 M257.943 276.047 L 257.123 276.955 258.031 276.135 C 258.530 275.684,258.939 275.275,258.939 275.227 C 258.939 275.011,258.708 275.201,257.943 276.047 M253.195 280.796 L 252.374 281.704 253.282 280.883 C 253.781 280.432,254.190 280.024,254.190 279.976 C 254.190 279.760,253.959 279.950,253.195 280.796 M173.254 307.463 C 173.677 307.527,174.368 307.527,174.791 307.463 C 175.213 307.399,174.867 307.346,174.022 307.346 C 173.177 307.346,172.832 307.399,173.254 307.463 " stroke="none" fill="#509a84" fill-rule="evenodd"></path><path id="path3" d="M68.925 5.516 C 71.114 5.563,74.696 5.563,76.885 5.516 C 79.075 5.469,77.284 5.430,72.905 5.430 C 68.527 5.430,66.735 5.469,68.925 5.516 M288.617 5.792 C 289.347 5.849,290.541 5.849,291.271 5.792 C 292.001 5.734,291.404 5.687,289.944 5.687 C 288.485 5.687,287.888 5.734,288.617 5.792 M296.020 6.063 C 296.365 6.130,296.931 6.130,297.277 6.063 C 297.622 5.996,297.339 5.942,296.648 5.942 C 295.957 5.942,295.674 5.996,296.020 6.063 M300.070 6.338 C 300.339 6.408,300.779 6.408,301.047 6.338 C 301.316 6.268,301.096 6.210,300.559 6.210 C 300.021 6.210,299.801 6.268,300.070 6.338 M293.234 16.965 C 293.891 17.024,294.896 17.023,295.468 16.963 C 296.040 16.903,295.503 16.855,294.274 16.856 C 293.045 16.857,292.577 16.906,293.234 16.965 M299.375 17.237 C 299.722 17.303,300.225 17.301,300.492 17.231 C 300.759 17.161,300.475 17.106,299.860 17.110 C 299.246 17.113,299.027 17.170,299.375 17.237 M350.268 25.768 C 350.953 26.498,351.550 27.095,351.594 27.095 C 351.804 27.095,351.582 26.844,350.349 25.687 L 349.022 24.441 350.268 25.768 M367.877 44.274 C 368.398 44.811,368.888 45.251,368.964 45.251 C 369.041 45.251,368.678 44.811,368.156 44.274 C 367.635 43.736,367.146 43.296,367.069 43.296 C 366.992 43.296,367.356 43.736,367.877 44.274 M350.623 51.955 C 350.623 52.493,350.681 52.713,350.751 52.444 C 350.821 52.175,350.821 51.735,350.751 51.466 C 350.681 51.198,350.623 51.418,350.623 51.955 M375.559 52.235 C 376.159 52.849,376.713 53.352,376.789 53.352 C 376.866 53.352,376.438 52.849,375.838 52.235 C 375.238 51.620,374.684 51.117,374.607 51.117 C 374.530 51.117,374.959 51.620,375.559 52.235 M350.623 58.101 C 350.623 58.638,350.681 58.858,350.751 58.589 C 350.821 58.321,350.821 57.881,350.751 57.612 C 350.681 57.343,350.623 57.563,350.623 58.101 M112.360 74.786 C 113.090 74.844,114.284 74.844,115.014 74.786 C 115.744 74.729,115.147 74.682,113.687 74.682 C 112.228 74.682,111.631 74.729,112.360 74.786 M207.445 74.791 C 207.373 74.906,209.283 74.968,211.688 74.928 C 219.761 74.795,220.578 74.695,214.053 74.638 C 210.490 74.607,207.516 74.675,207.445 74.791 M269.344 74.789 C 270.534 74.841,272.483 74.841,273.673 74.789 C 274.864 74.736,273.890 74.693,271.508 74.693 C 269.127 74.693,268.153 74.736,269.344 74.789 M87.365 75.063 C 87.867 75.125,88.622 75.124,89.041 75.060 C 89.461 74.996,89.050 74.945,88.128 74.947 C 87.207 74.948,86.863 75.001,87.365 75.063 M100.778 75.067 C 101.589 75.123,102.846 75.123,103.571 75.065 C 104.295 75.008,103.631 74.962,102.095 74.962 C 100.559 74.963,99.966 75.010,100.778 75.067 M123.673 75.068 C 124.941 75.120,127.015 75.120,128.282 75.068 C 129.550 75.016,128.513 74.974,125.978 74.974 C 123.443 74.974,122.406 75.016,123.673 75.068 M149.721 75.063 C 164.483 75.257,176.537 75.260,176.536 75.070 C 176.536 74.955,169.214 74.889,160.265 74.924 C 151.316 74.959,146.571 75.022,149.721 75.063 M240.728 75.069 C 242.619 75.118,245.636 75.117,247.432 75.069 C 249.229 75.020,247.682 74.981,243.994 74.981 C 240.307 74.981,238.838 75.021,240.728 75.069 M257.065 75.068 C 258.108 75.122,259.742 75.121,260.696 75.067 C 261.650 75.012,260.796 74.968,258.799 74.969 C 256.802 74.969,256.021 75.014,257.065 75.068 M390.858 81.285 C 390.858 81.976,390.913 82.259,390.979 81.913 C 391.046 81.568,391.046 81.002,390.979 80.656 C 390.913 80.311,390.858 80.594,390.858 81.285 M279.190 159.777 C 279.790 160.391,280.344 160.894,280.421 160.894 C 280.497 160.894,280.069 160.391,279.469 159.777 C 278.869 159.162,278.315 158.659,278.239 158.659 C 278.162 158.659,278.590 159.162,279.190 159.777 M292.843 193.017 C 292.843 194.784,292.888 195.506,292.944 194.623 C 292.999 193.740,292.999 192.294,292.944 191.411 C 292.888 190.527,292.843 191.250,292.843 193.017 M203.991 207.402 C 203.993 208.170,204.047 208.451,204.111 208.027 C 204.175 207.602,204.174 206.974,204.107 206.630 C 204.041 206.287,203.988 206.634,203.991 207.402 M168.649 248.801 C 168.996 248.868,169.499 248.865,169.766 248.795 C 170.033 248.725,169.749 248.671,169.134 248.674 C 168.520 248.677,168.301 248.734,168.649 248.801 M138.617 249.091 C 140.422 249.140,143.376 249.140,145.182 249.091 C 146.987 249.043,145.510 249.003,141.899 249.003 C 138.289 249.003,136.812 249.043,138.617 249.091 M162.221 249.087 C 162.874 249.146,163.942 249.146,164.595 249.087 C 165.248 249.028,164.714 248.980,163.408 248.980 C 162.102 248.980,161.568 249.028,162.221 249.087 M255.577 278.422 L 254.050 280.028 255.656 278.501 C 257.149 277.083,257.391 276.816,257.183 276.816 C 257.140 276.816,256.417 277.538,255.577 278.422 M182.751 306.896 C 183.020 306.967,183.460 306.967,183.729 306.896 C 183.998 306.826,183.778 306.769,183.240 306.769 C 182.703 306.769,182.483 306.826,182.751 306.896 M178.007 307.184 C 178.431 307.248,179.060 307.246,179.403 307.180 C 179.747 307.114,179.399 307.061,178.631 307.063 C 177.863 307.065,177.582 307.119,178.007 307.184 M60.567 307.472 C 81.205 307.512,114.892 307.512,135.428 307.472 C 155.963 307.433,139.078 307.400,97.905 307.400 C 56.732 307.400,39.930 307.433,60.567 307.472 M291.747 314.595 L 290.642 315.782 291.830 314.678 C 292.934 313.651,293.145 313.408,292.934 313.408 C 292.888 313.408,292.354 313.942,291.747 314.595 M197.277 346.852 C 197.853 346.912,198.795 346.912,199.372 346.852 C 199.948 346.791,199.476 346.742,198.324 346.742 C 197.172 346.742,196.700 346.791,197.277 346.852 " stroke="none" fill="#92bdb3" fill-rule="evenodd"></path><path id="path4" d="M365.782 42.179 C 366.382 42.793,366.936 43.296,367.013 43.296 C 367.090 43.296,366.662 42.793,366.061 42.179 C 365.461 41.564,364.908 41.061,364.831 41.061 C 364.754 41.061,365.182 41.564,365.782 42.179 M373.324 50.000 C 373.924 50.615,374.478 51.117,374.555 51.117 C 374.632 51.117,374.203 50.615,373.603 50.000 C 373.003 49.385,372.449 48.883,372.373 48.883 C 372.296 48.883,372.724 49.385,373.324 50.000 M92.167 104.260 C 92.852 104.990,93.449 105.587,93.494 105.587 C 93.704 105.587,93.482 105.336,92.249 104.178 L 90.922 102.933 92.167 104.260 M332.188 219.832 C 332.188 220.370,332.245 220.590,332.315 220.321 C 332.386 220.052,332.386 219.612,332.315 219.344 C 332.245 219.075,332.188 219.295,332.188 219.832 M332.193 224.441 C 332.196 225.056,332.254 225.274,332.320 224.927 C 332.387 224.579,332.385 224.077,332.315 223.810 C 332.245 223.543,332.190 223.827,332.193 224.441 M205.098 346.561 C 205.367 346.632,205.807 346.632,206.075 346.561 C 206.344 346.491,206.124 346.434,205.587 346.434 C 205.049 346.434,204.829 346.491,205.098 346.561 M77.422 346.858 C 99.186 346.897,134.885 346.897,156.751 346.858 C 178.618 346.818,160.810 346.786,117.179 346.786 C 73.547 346.786,55.657 346.818,77.422 346.858 " stroke="none" fill="#948c8c" fill-rule="evenodd"></path></g></svg>