<svg id="svg" version="1.1" xmlns="http://www.w3.org/2000/svg" xmlns:xlink="http://www.w3.org/1999/xlink" width="400" height="400" viewBox="0, 0, 400,400"><g id="svgg"><path id="path0" d="M396.500 0.414 C 396.133 0.630,395.603 0.844,395.322 0.890 C 395.041 0.936,394.216 1.231,393.489 1.546 C 392.762 1.860,391.940 2.160,391.662 2.211 C 390.992 2.336,380.974 5.976,380.521 6.260 C 380.326 6.382,380.001 6.506,379.799 6.537 C 379.275 6.617,367.067 10.983,365.667 11.591 C 365.025 11.870,364.334 12.134,364.132 12.179 C 363.482 12.322,351.208 16.733,350.000 17.257 C 349.358 17.536,348.578 17.815,348.265 17.878 C 347.614 18.008,338.921 21.172,337.667 21.736 C 337.208 21.942,336.603 22.154,336.322 22.209 C 336.041 22.263,335.216 22.564,334.489 22.879 C 333.762 23.193,332.940 23.493,332.662 23.545 C 331.992 23.669,321.974 27.309,321.521 27.593 C 321.326 27.715,321.001 27.840,320.799 27.871 C 320.275 27.950,308.067 32.316,306.667 32.924 C 306.025 33.203,305.334 33.468,305.132 33.512 C 304.482 33.656,292.208 38.066,291.000 38.591 C 290.358 38.869,289.578 39.148,289.265 39.211 C 288.614 39.341,279.921 42.506,278.667 43.069 C 278.208 43.275,277.603 43.488,277.322 43.542 C 277.041 43.596,276.216 43.898,275.489 44.212 C 274.762 44.527,273.940 44.826,273.662 44.878 C 272.992 45.003,262.974 48.643,262.521 48.926 C 262.326 49.048,262.001 49.173,261.799 49.204 C 261.275 49.284,249.067 53.649,247.667 54.258 C 247.025 54.536,246.334 54.801,246.132 54.846 C 245.482 54.989,233.208 59.400,232.000 59.924 C 231.358 60.203,230.578 60.482,230.265 60.544 C 229.614 60.675,220.921 63.839,219.667 64.402 C 219.208 64.608,218.603 64.821,218.322 64.875 C 218.041 64.929,217.216 65.231,216.489 65.546 C 215.762 65.860,214.940 66.160,214.662 66.211 C 213.992 66.336,203.974 69.976,203.521 70.260 C 203.326 70.382,203.001 70.506,202.799 70.537 C 202.275 70.617,190.067 74.983,188.667 75.591 C 188.025 75.870,187.334 76.134,187.132 76.179 C 186.482 76.322,174.208 80.733,173.000 81.257 C 172.358 81.536,171.578 81.815,171.265 81.878 C 170.614 82.008,161.921 85.172,160.667 85.736 C 160.208 85.942,159.603 86.154,159.322 86.209 C 159.041 86.263,158.216 86.564,157.489 86.879 C 156.762 87.193,155.940 87.493,155.662 87.545 C 154.992 87.669,144.974 91.309,144.521 91.593 C 144.326 91.715,144.001 91.840,143.799 91.871 C 143.275 91.950,131.067 96.316,129.667 96.924 C 129.025 97.203,128.334 97.468,128.132 97.512 C 127.482 97.656,115.208 102.066,114.000 102.591 C 113.358 102.869,112.578 103.148,112.265 103.211 C 111.614 103.341,102.921 106.506,101.667 107.069 C 101.208 107.275,100.603 107.488,100.322 107.542 C 100.041 107.596,99.216 107.898,98.489 108.212 C 97.762 108.527,96.940 108.826,96.662 108.878 C 95.992 109.003,85.974 112.643,85.521 112.926 C 85.326 113.048,85.001 113.173,84.799 113.204 C 84.275 113.284,72.067 117.649,70.667 118.258 C 70.025 118.536,69.334 118.801,69.132 118.846 C 68.482 118.989,56.208 123.400,55.000 123.924 C 54.358 124.203,53.578 124.482,53.265 124.544 C 52.614 124.675,43.921 127.839,42.667 128.402 C 42.208 128.608,41.603 128.821,41.322 128.875 C 41.041 128.929,40.216 129.231,39.489 129.546 C 38.762 129.860,37.940 130.160,37.662 130.211 C 36.992 130.336,26.974 133.976,26.521 134.260 C 26.326 134.382,26.001 134.506,25.799 134.537 C 25.275 134.617,13.067 138.983,11.667 139.591 C 11.025 139.870,10.347 140.132,10.161 140.175 C 7.446 140.790,-0.906 144.148,1.000 143.858 C 1.642 143.761,2.692 143.609,3.333 143.522 C 3.975 143.434,6.975 142.899,10.000 142.333 C 13.025 141.766,16.025 141.241,16.667 141.166 C 17.308 141.091,20.308 140.566,23.333 139.999 C 26.358 139.433,29.358 138.908,30.000 138.833 C 30.642 138.758,33.642 138.227,36.667 137.653 C 39.692 137.080,42.392 136.601,42.667 136.588 C 42.942 136.576,45.942 136.057,49.333 135.435 C 52.725 134.814,55.725 134.289,56.000 134.269 C 56.275 134.249,59.275 133.728,62.667 133.111 C 66.058 132.494,69.390 131.911,70.070 131.814 C 70.751 131.718,73.751 131.194,76.737 130.649 C 79.723 130.105,82.723 129.580,83.404 129.483 C 84.084 129.386,87.084 128.861,90.070 128.317 C 93.057 127.774,96.025 127.253,96.667 127.161 C 98.466 126.902,107.396 125.330,108.333 125.107 C 108.792 124.998,109.617 124.854,110.167 124.788 C 111.440 124.634,120.562 123.036,121.667 122.773 C 122.125 122.664,122.950 122.521,123.500 122.454 C 124.776 122.300,133.897 120.702,135.000 120.440 C 135.458 120.331,136.179 120.196,136.602 120.141 C 137.657 120.004,142.931 119.092,146.167 118.487 C 147.633 118.212,149.358 117.910,150.000 117.815 C 151.133 117.648,157.129 116.596,160.500 115.973 C 161.417 115.803,162.692 115.586,163.333 115.489 C 163.975 115.393,166.975 114.867,170.000 114.321 C 173.025 113.775,176.025 113.250,176.667 113.155 C 177.308 113.059,180.308 112.534,183.333 111.989 C 186.358 111.444,189.358 110.918,190.000 110.820 C 192.442 110.447,200.978 108.945,204.333 108.298 C 206.258 107.927,208.358 107.564,209.000 107.493 C 209.642 107.421,212.642 106.899,215.667 106.333 C 218.692 105.766,221.692 105.241,222.333 105.166 C 222.975 105.091,225.975 104.566,229.000 103.999 C 232.025 103.433,235.025 102.908,235.667 102.833 C 236.308 102.758,239.308 102.232,242.333 101.665 C 245.358 101.098,248.283 100.584,248.833 100.523 C 250.076 100.384,259.532 98.713,260.667 98.431 C 261.125 98.317,261.586 98.240,261.691 98.259 C 261.797 98.278,264.722 97.776,268.191 97.142 C 271.661 96.508,275.057 95.911,275.737 95.814 C 276.417 95.718,279.417 95.194,282.404 94.649 C 285.390 94.105,288.390 93.580,289.070 93.483 C 289.751 93.386,292.751 92.861,295.737 92.316 C 298.723 91.771,301.723 91.246,302.404 91.149 C 303.084 91.052,306.084 90.528,309.070 89.984 C 312.057 89.440,315.025 88.920,315.667 88.828 C 317.466 88.569,326.396 86.996,327.333 86.773 C 327.792 86.664,328.617 86.521,329.167 86.454 C 330.443 86.300,339.564 84.702,340.667 84.440 C 341.125 84.331,341.846 84.196,342.269 84.141 C 343.324 84.004,348.598 83.092,351.833 82.487 C 353.300 82.212,355.025 81.910,355.667 81.815 C 356.800 81.648,362.796 80.596,366.167 79.973 C 367.083 79.803,368.358 79.586,369.000 79.489 C 369.642 79.393,372.642 78.867,375.667 78.321 C 378.692 77.775,381.692 77.250,382.333 77.155 C 382.975 77.059,385.975 76.534,389.000 75.989 C 392.025 75.444,395.025 74.924,395.667 74.833 C 396.308 74.742,397.171 74.590,397.583 74.494 L 398.333 74.321 398.333 37.160 C 398.333 -3.677,398.479 -0.754,396.500 0.414 " stroke="none" fill="#fce404" fill-rule="evenodd"></path><path id="path1" d="M3.889 202.222 C 3.767 202.344,3.667 246.894,3.667 301.222 L 3.667 400.000 84.333 400.000 L 165.000 400.000 165.000 378.000 L 165.000 356.000 114.667 356.000 L 64.333 356.000 64.311 348.417 C 64.298 344.246,64.334 338.508,64.390 335.667 C 64.446 332.825,64.499 329.150,64.508 327.500 C 64.516 325.850,64.556 324.238,64.595 323.918 C 64.663 323.369,66.714 323.332,100.917 323.251 L 137.167 323.167 137.252 302.083 L 137.338 281.000 101.002 281.000 L 64.667 281.000 64.667 264.668 L 64.667 248.336 104.893 248.251 C 142.551 248.172,145.083 248.131,144.560 247.607 C 144.252 247.299,144.000 246.882,144.000 246.679 C 144.000 246.264,143.002 244.609,142.563 244.296 C 142.405 244.184,142.261 243.959,142.242 243.796 C 142.197 243.415,141.545 242.225,139.583 238.940 C 138.713 237.482,138.000 236.149,138.000 235.978 C 138.000 235.807,137.850 235.667,137.667 235.667 C 137.483 235.667,137.333 235.433,137.333 235.147 C 137.333 234.826,137.174 234.719,136.917 234.867 C 136.688 234.999,136.610 234.986,136.744 234.838 C 136.947 234.612,135.881 232.214,135.333 231.667 C 135.242 231.575,135.006 231.200,134.809 230.833 C 133.806 228.965,133.150 227.816,133.000 227.666 C 132.908 227.575,132.550 226.975,132.203 226.333 C 131.856 225.692,131.266 224.604,130.891 223.917 C 130.516 223.229,130.079 222.667,129.918 222.667 C 129.758 222.667,129.713 222.529,129.817 222.360 C 129.921 222.192,129.796 221.843,129.539 221.587 C 129.282 221.330,128.676 220.337,128.191 219.382 C 127.707 218.426,126.824 216.862,126.229 215.906 C 125.634 214.949,124.941 213.759,124.690 213.261 C 124.438 212.763,124.068 212.450,123.866 212.565 C 123.665 212.680,123.609 212.653,123.742 212.506 C 123.981 212.242,122.943 210.146,121.224 207.423 C 120.734 206.648,120.333 205.860,120.333 205.673 C 120.333 205.486,120.183 205.333,120.000 205.333 C 119.817 205.333,119.667 205.143,119.667 204.911 C 119.667 204.678,119.286 203.928,118.821 203.244 L 117.976 202.000 61.044 202.000 C 29.731 202.000,4.011 202.100,3.889 202.222 M137.000 202.471 C 137.000 202.731,137.112 202.994,137.250 203.056 C 137.387 203.117,137.938 203.992,138.474 205.000 C 139.010 206.008,139.947 207.581,140.557 208.496 C 141.167 209.410,141.667 210.347,141.667 210.579 C 141.667 210.810,141.779 211.001,141.917 211.003 C 142.054 211.004,142.335 211.342,142.540 211.753 C 143.561 213.799,144.132 214.849,144.307 215.000 C 144.646 215.293,145.687 217.136,146.049 218.083 C 146.241 218.588,146.534 219.000,146.699 219.000 C 146.865 219.000,147.000 219.225,147.000 219.500 C 147.000 219.775,147.159 220.000,147.353 220.000 C 147.547 220.000,147.613 220.150,147.500 220.333 C 147.387 220.517,147.416 220.667,147.566 220.667 C 147.715 220.667,148.050 221.154,148.309 221.750 C 148.569 222.346,149.156 223.433,149.614 224.167 C 150.072 224.900,150.896 226.325,151.445 227.333 C 151.994 228.342,152.531 229.242,152.638 229.333 C 152.746 229.425,153.271 230.325,153.807 231.333 C 154.342 232.342,154.867 233.242,154.974 233.333 C 155.080 233.425,155.617 234.362,156.167 235.416 C 156.717 236.469,157.279 237.332,157.417 237.332 C 157.554 237.333,157.667 237.551,157.667 237.817 C 157.667 238.083,157.929 238.453,158.250 238.640 C 158.571 238.827,158.717 238.984,158.575 238.990 C 158.322 239.000,159.226 241.005,159.632 241.333 C 159.746 241.425,160.276 242.325,160.810 243.333 C 161.344 244.342,162.280 245.915,162.891 246.829 C 163.501 247.743,164.000 248.616,164.000 248.769 C 164.000 248.922,164.450 249.701,165.000 250.500 C 165.550 251.299,166.000 252.103,166.000 252.286 C 166.000 252.469,166.188 252.822,166.417 253.070 C 167.016 253.718,167.975 255.352,168.382 256.417 C 168.574 256.921,168.867 257.333,169.033 257.333 C 169.198 257.333,169.333 257.548,169.333 257.810 C 169.333 258.071,169.521 258.484,169.750 258.726 C 169.979 258.968,170.388 259.617,170.659 260.167 C 170.930 260.717,171.518 261.767,171.966 262.500 C 172.414 263.233,173.230 264.658,173.778 265.667 C 174.327 266.675,174.872 267.575,174.989 267.667 C 175.105 267.758,175.625 268.658,176.143 269.667 C 176.662 270.675,177.179 271.575,177.293 271.667 C 177.407 271.758,177.950 272.695,178.500 273.749 C 179.050 274.802,179.612 275.665,179.750 275.666 C 179.887 275.666,180.000 275.884,180.000 276.150 C 180.000 276.416,180.262 276.786,180.583 276.973 C 180.904 277.160,181.050 277.318,180.908 277.323 C 180.655 277.333,181.560 279.338,181.966 279.667 C 182.079 279.758,182.609 280.658,183.143 281.667 C 183.677 282.675,184.614 284.248,185.224 285.162 C 185.834 286.076,186.333 286.949,186.333 287.102 C 186.333 287.255,186.783 288.034,187.333 288.833 C 187.883 289.633,188.333 290.437,188.333 290.620 C 188.333 290.803,188.521 291.155,188.750 291.403 C 189.349 292.051,190.309 293.685,190.715 294.750 C 190.908 295.254,191.184 295.667,191.330 295.667 C 191.475 295.667,191.689 296.042,191.804 296.500 C 191.919 296.958,192.160 297.333,192.340 297.333 C 192.520 297.333,192.667 297.528,192.667 297.765 C 192.667 298.003,193.342 299.292,194.167 300.630 C 194.992 301.968,195.667 303.136,195.667 303.225 C 195.667 303.314,196.161 304.162,196.766 305.110 C 197.370 306.058,198.222 307.508,198.658 308.333 C 199.094 309.158,199.536 309.908,199.642 310.000 C 199.747 310.092,200.283 311.029,200.833 312.082 C 201.383 313.136,201.946 313.998,202.083 313.999 C 202.221 313.999,202.333 314.218,202.333 314.483 C 202.333 314.749,202.596 315.114,202.917 315.293 C 203.237 315.473,203.447 315.712,203.382 315.824 C 203.199 316.142,204.045 318.000,204.374 318.000 C 204.535 318.000,204.667 318.137,204.667 318.303 C 204.667 318.470,205.267 319.666,206.000 320.960 L 207.333 323.313 207.333 361.656 L 207.333 400.000 237.667 400.000 L 268.000 400.000 268.000 361.490 L 268.000 322.980 269.387 320.573 C 270.150 319.250,271.226 317.342,271.778 316.333 C 272.330 315.325,273.054 314.145,273.386 313.711 C 273.719 313.277,273.909 312.789,273.809 312.627 C 273.709 312.466,273.761 312.333,273.924 312.333 C 274.087 312.333,274.427 311.921,274.679 311.417 C 274.932 310.912,275.355 310.237,275.621 309.917 C 275.886 309.596,275.968 309.331,275.802 309.328 C 275.636 309.325,275.653 309.213,275.841 309.078 C 276.394 308.681,277.333 307.066,277.333 306.512 C 277.333 306.230,277.460 306.000,277.614 306.000 C 277.769 306.000,278.181 305.438,278.531 304.750 C 278.881 304.063,279.292 303.408,279.445 303.296 C 279.598 303.184,279.685 303.034,279.638 302.963 C 279.591 302.892,279.965 302.181,280.468 301.383 C 281.269 300.115,282.199 298.498,283.470 296.167 C 283.670 295.800,283.908 295.425,284.000 295.333 C 284.444 294.889,285.634 292.405,285.494 292.216 C 285.405 292.097,285.431 292.073,285.550 292.161 C 285.861 292.392,286.643 291.275,286.656 290.583 C 286.662 290.262,286.807 290.000,286.978 290.000 C 287.304 290.000,287.852 288.697,287.724 288.225 C 287.684 288.074,287.804 288.045,287.992 288.162 C 288.180 288.278,288.333 288.139,288.333 287.853 C 288.333 287.567,288.483 287.333,288.667 287.333 C 288.850 287.333,289.000 287.180,289.000 286.992 C 289.000 286.804,289.577 285.717,290.281 284.575 C 290.986 283.434,292.250 281.300,293.090 279.833 C 293.930 278.367,294.950 276.618,295.357 275.947 C 295.763 275.276,296.071 274.636,296.041 274.524 C 296.011 274.412,296.289 273.995,296.660 273.597 C 297.030 273.200,297.333 272.696,297.333 272.478 C 297.333 272.260,297.557 271.896,297.830 271.670 C 298.103 271.443,298.244 271.125,298.143 270.962 C 298.043 270.800,298.082 270.666,298.230 270.665 C 298.581 270.662,299.667 268.753,299.667 268.140 C 299.667 267.880,299.793 267.667,299.948 267.667 C 300.102 267.667,300.514 267.104,300.864 266.417 C 301.214 265.729,301.625 265.075,301.778 264.963 C 301.932 264.851,302.066 264.626,302.077 264.463 C 302.088 264.300,302.461 263.589,302.907 262.883 C 303.616 261.760,304.566 260.105,305.803 257.833 C 306.003 257.467,306.242 257.092,306.333 257.000 C 306.641 256.693,307.988 254.100,307.910 253.966 C 307.868 253.893,307.894 253.869,307.967 253.911 C 308.222 254.060,308.979 252.830,308.989 252.250 C 308.995 251.929,309.140 251.667,309.311 251.667 C 309.637 251.667,310.185 250.364,310.058 249.892 C 310.017 249.741,310.137 249.712,310.325 249.828 C 310.513 249.944,310.667 249.818,310.667 249.547 C 310.667 249.277,310.787 249.006,310.934 248.944 C 311.080 248.883,311.583 248.158,312.051 247.333 C 312.518 246.508,313.473 244.858,314.173 243.667 C 314.873 242.475,315.974 240.525,316.620 239.333 C 317.266 238.142,317.992 236.967,318.234 236.723 C 318.475 236.479,318.588 236.142,318.483 235.973 C 318.379 235.805,318.427 235.667,318.591 235.667 C 318.754 235.667,319.094 235.254,319.346 234.750 C 319.598 234.246,320.022 233.571,320.287 233.250 C 320.553 232.929,320.634 232.664,320.468 232.662 C 320.302 232.659,320.320 232.546,320.508 232.412 C 321.061 232.015,322.000 230.399,322.000 229.845 C 322.000 229.564,322.122 229.333,322.272 229.333 C 322.509 229.333,324.124 226.783,324.171 226.333 C 324.181 226.242,324.608 225.514,325.120 224.717 C 325.932 223.451,326.822 221.913,328.137 219.500 C 328.337 219.133,328.575 218.758,328.667 218.667 C 329.214 218.119,330.281 215.721,330.077 215.496 C 329.943 215.348,329.996 215.319,330.194 215.432 C 330.623 215.676,332.752 211.876,332.404 211.489 C 332.273 211.345,332.354 211.334,332.583 211.466 C 332.841 211.615,333.000 211.508,333.000 211.186 C 333.000 210.901,333.133 210.667,333.294 210.667 C 333.456 210.667,333.672 210.404,333.773 210.083 C 333.956 209.502,335.264 207.149,335.761 206.505 C 336.133 206.023,338.333 202.278,338.333 202.126 C 338.333 201.593,272.396 202.047,271.931 202.583 C 271.652 202.904,270.745 204.517,269.915 206.167 C 269.085 207.817,268.022 209.905,267.552 210.808 C 267.083 211.710,266.790 212.596,266.901 212.776 C 267.012 212.956,266.946 213.006,266.753 212.887 C 266.558 212.766,266.166 213.219,265.862 213.919 C 265.564 214.605,264.430 216.817,263.343 218.833 C 262.256 220.850,260.663 223.850,259.803 225.500 C 258.943 227.150,257.739 229.445,257.126 230.599 C 256.514 231.754,256.197 232.594,256.423 232.467 C 256.649 232.339,256.496 232.563,256.083 232.964 C 255.671 233.365,255.333 233.851,255.333 234.045 C 255.333 234.239,255.024 234.832,254.646 235.363 C 254.266 235.896,254.066 236.516,254.199 236.748 C 254.332 236.978,254.317 237.055,254.166 236.919 C 254.016 236.782,253.325 237.807,252.631 239.195 C 251.938 240.584,251.194 241.933,250.978 242.194 C 250.762 242.454,250.716 242.669,250.876 242.672 C 251.036 242.675,251.017 242.787,250.833 242.922 C 250.353 243.274,249.667 244.577,249.667 245.134 C 249.667 245.397,249.537 245.661,249.379 245.722 C 248.892 245.911,246.011 251.748,246.230 252.102 C 246.343 252.286,246.279 252.339,246.087 252.220 C 245.890 252.099,245.509 252.550,245.216 253.252 C 244.929 253.938,244.354 255.017,243.939 255.649 C 243.476 256.355,243.374 256.688,243.676 256.512 C 243.946 256.355,243.803 256.625,243.359 257.113 C 242.914 257.601,242.647 258.000,242.765 258.000 C 242.883 258.000,242.609 258.546,242.157 259.213 C 241.704 259.880,241.333 260.689,241.333 261.011 C 241.333 261.332,241.099 261.685,240.812 261.795 C 240.526 261.905,240.377 262.134,240.481 262.303 C 240.585 262.471,240.557 262.660,240.419 262.722 C 240.280 262.783,239.722 263.696,239.180 264.750 C 238.048 266.947,237.883 267.029,237.291 265.691 C 237.053 265.154,236.717 264.802,236.544 264.909 C 236.372 265.016,236.338 264.929,236.470 264.716 C 236.601 264.503,236.428 263.917,236.085 263.414 C 235.742 262.911,234.958 261.450,234.343 260.167 C 233.728 258.883,233.062 257.723,232.862 257.588 C 232.663 257.454,232.623 257.341,232.773 257.338 C 232.923 257.336,232.762 256.921,232.416 256.417 C 232.071 255.912,231.280 254.450,230.659 253.167 C 230.039 251.883,229.374 250.723,229.182 250.588 C 228.990 250.454,228.951 250.341,229.095 250.338 C 229.239 250.336,228.977 249.774,228.512 249.089 C 228.047 248.405,227.667 247.655,227.667 247.423 C 227.667 247.190,227.492 247.000,227.278 247.000 C 227.064 247.000,226.974 246.915,227.077 246.812 C 227.181 246.708,226.737 245.620,226.090 244.395 C 225.443 243.169,224.065 240.517,223.027 238.500 C 218.033 228.798,216.239 225.500,215.725 225.077 C 215.418 224.824,215.340 224.704,215.552 224.809 C 215.844 224.954,215.844 224.799,215.552 224.170 C 215.340 223.713,215.054 223.337,214.917 223.336 C 214.779 223.335,214.667 223.067,214.667 222.741 C 214.667 222.415,214.464 221.852,214.215 221.491 C 213.967 221.129,212.597 218.583,211.170 215.833 C 209.743 213.083,208.446 210.783,208.288 210.722 C 208.130 210.661,208.000 210.408,208.000 210.159 C 208.000 209.668,205.045 203.939,204.651 203.667 C 204.519 203.575,204.354 203.200,204.284 202.833 C 204.116 201.950,137.000 201.588,137.000 202.471 " stroke="none" fill="#0c141c" fill-rule="evenodd"></path><path id="path2" d="M89.417 355.917 C 103.304 355.965,126.029 355.965,139.917 355.917 C 153.804 355.868,142.442 355.829,114.667 355.829 C 86.892 355.829,75.529 355.868,89.417 355.917 " stroke="none" fill="#0c1c1d" fill-rule="evenodd"></path><path id="path3" d="M64.417 325.500 C 64.421 326.233,64.489 326.494,64.569 326.079 C 64.649 325.665,64.646 325.065,64.562 324.746 C 64.479 324.427,64.414 324.767,64.417 325.500 " stroke="none" fill="#14141c" fill-rule="evenodd"></path><path id="path4" d="" stroke="none" fill="#fcec04" fill-rule="evenodd"></path></g></svg>