<?xml version="1.0" encoding="UTF-8"?>
<svg version="1.1" xmlns="http://www.w3.org/2000/svg" width="895" height="725">
<path d="M0 0 C0.95491333 -0.00701431 1.90982666 -0.01402863 2.89367676 -0.02125549 C5.96041643 -0.03865965 9.02696275 -0.04510828 12.09375 -0.046875 C13.66793701 -0.04788712 13.66793701 -0.04788712 15.27392578 -0.04891968 C31.55695455 -0.03229737 47.50846071 0.42895187 63.59375 3.203125 C64.56489746 3.36941406 65.53604492 3.53570312 66.53662109 3.70703125 C86.2883114 7.24523419 114.81192151 12.42129651 129.59375 27.203125 C129.85101891 29.54410744 129.85101891 29.54410744 129.86117554 32.53701782 C129.87397049 34.23556664 129.87397049 34.23556664 129.88702393 35.96842957 C129.88566437 37.84151543 129.88566437 37.84151543 129.88427734 39.75244141 C129.89099457 41.06327194 129.89771179 42.37410248 129.90463257 43.72465515 C129.92234749 47.33088645 129.92699085 50.93702288 129.92826414 54.54329348 C129.92968569 56.80180503 129.93395582 59.06029249 129.93925858 61.31879807 C129.9577922 69.21515174 129.96592693 77.11143781 129.96435547 85.0078125 C129.96316013 92.3364764 129.98413338 99.66484287 130.0158428 106.99343169 C130.04215622 113.30281332 130.05271618 119.61209894 130.05144465 125.9215349 C130.05093847 129.68137371 130.0564253 133.4409496 130.07780075 137.20073318 C130.23682479 167.28210538 130.23682479 167.28210538 125.59375 180.203125 C125.3615208 180.85564177 125.12929159 181.50815853 124.89002514 182.18044853 C111.52490056 219.56157881 82.11791935 253.95794704 50.23828125 277.01171875 C48.53885987 278.24289101 46.8630878 279.5022547 45.1875 280.765625 C39.06991171 285.32123913 32.76371362 289.45333173 26.15625 293.265625 C25.5060791 293.64799316 24.8559082 294.03036133 24.18603516 294.42431641 C20.01614098 296.75830033 16.47180274 298.1488037 11.59375 298.203125 C8.84137955 297.38107306 6.42181338 296.13923474 3.90625 294.765625 C2.85751709 294.21418823 2.85751709 294.21418823 1.78759766 293.65161133 C-13.2006369 285.622812 -26.52318506 275.01112379 -38.94921875 263.4765625 C-41.12724653 261.46128084 -43.34234286 259.51040064 -45.59375 257.578125 C-52.44761 251.58796281 -58.43376455 245.1472678 -64.125 238.04296875 C-65.60217633 236.20408657 -67.1010454 234.38233677 -68.625 232.58203125 C-81.45860121 217.37602137 -91.90418697 200.3852011 -98.34375 181.515625 C-98.62629639 180.69755371 -98.90884277 179.87948242 -99.19995117 179.03662109 C-102.88788398 167.59396418 -103.70239121 155.75898292 -103.83959961 143.80712891 C-103.86077347 142.5499707 -103.88194733 141.2928125 -103.90376282 139.99755859 C-103.96801415 135.8916508 -104.01698951 131.78587231 -104.05859375 127.6796875 C-104.06583694 126.97681091 -104.07308012 126.27393432 -104.0805428 125.54975843 C-104.14757428 118.90595953 -104.20559784 112.26212644 -104.24407101 105.61809731 C-104.2936942 97.16994277 -104.38695315 88.72469597 -104.53798288 80.27772963 C-104.64111228 74.30542148 -104.69424739 68.33390095 -104.7107411 62.36073244 C-104.72191987 58.80454042 -104.75476301 55.25173258 -104.84187126 51.69652176 C-105.34510747 30.1970899 -105.34510747 30.1970899 -102.14306641 25.25252914 C-98.74424832 21.93125085 -94.94262196 20.54461263 -90.40625 19.203125 C-88.78388084 18.45172583 -87.16896011 17.6834424 -85.5703125 16.8828125 C-84.06420907 16.26413493 -82.55091957 15.66268799 -81.03125 15.078125 C-80.19094238 14.75102539 -79.35063477 14.42392578 -78.48486328 14.08691406 C-53.70764009 4.75162505 -26.45351953 0.131305 0 0 Z " fill="#030200" transform="translate(435.40625,103.796875)"/>
<path d="M0 0 C0.58394531 1.34191406 0.58394531 1.34191406 1.1796875 2.7109375 C5.19602456 11.52561824 9.62507624 17.55992573 17 24 C13.69740192 27.0016419 11.47738368 27.38487514 7.0625 27.3125 C6.04285156 27.30863281 5.02320313 27.30476563 3.97265625 27.30078125 C0.96490363 26.99644886 -1.26880782 26.26248479 -4 25 C-1.832705 28.89271432 0.67413029 32.03709814 3.6875 35.3125 C4.49574219 36.19550781 5.30398438 37.07851562 6.13671875 37.98828125 C6.75160156 38.65214844 7.36648438 39.31601563 8 40 C8.99 39.34 9.98 38.68 11 38 C11.99 38 12.98 38 14 38 C13.835 38.598125 13.67 39.19625 13.5 39.8125 C12.8885876 42.11344336 12.8885876 42.11344336 13 45 C14.98 44.34 16.96 43.68 19 43 C18.67 44.98 18.34 46.96 18 49 C18.99 49.66 19.98 50.32 21 51 C21.20625 50.360625 21.4125 49.72125 21.625 49.0625 C23 47 23 47 26 46.1875 C29 46 29 46 31 47 C30.94199219 48.08796875 30.88398438 49.1759375 30.82421875 50.296875 C30.37555141 62.31484812 32.12143233 70.96364599 39.5 80.8125 C44.58697991 87.67992288 46.65706297 95.87182381 48.796875 104.04296875 C49.82848638 107.92297377 50.55106608 110.47410598 53.1875 113.5625 C56.7859983 115.40173246 60.03370059 115.82034184 64 116 C64.82242188 116.07476562 65.64484375 116.14953125 66.4921875 116.2265625 C71.52548371 116.51723918 75.55553556 116.29249636 79.54296875 112.99609375 C82.89621288 108.4022392 83.70850571 102.44272593 85 97 C87.0378577 89.16208577 90.04742332 83.10824183 94.77197266 76.57836914 C100.29877646 68.90868435 101.73238559 62.42242236 101 53 C100.69554729 51.32781657 100.3706094 49.65877592 100 48 C103 46 103 46 105.4375 46.1875 C108.15079897 47.04781431 109.84613329 48.16522465 112 50 C112.99 49.01 112.99 49.01 114 48 C113.01 45.525 113.01 45.525 112 43 C112.5775 43.165 113.155 43.33 113.75 43.5 C116.26664369 44.14462031 116.26664369 44.14462031 120 44 C119.34 43.01 118.68 42.02 118 41 C118 40.01 118 39.02 118 38 C118.598125 38.165 119.19625 38.33 119.8125 38.5 C122.11344336 39.1114124 122.11344336 39.1114124 125 39 C127.29979201 36.9197739 127.29979201 36.9197739 129.5625 34.25 C130.34753906 33.36828125 131.13257813 32.4865625 131.94140625 31.578125 C133.67206088 29.41070175 134.90698288 27.52870987 136 25 C134.96746094 25.48919922 134.96746094 25.48919922 133.9140625 25.98828125 C130.5647096 27.15112629 127.91236706 27.23222533 124.375 27.1875 C122.68503906 27.17783203 122.68503906 27.17783203 120.9609375 27.16796875 C118 27 118 27 115 26 C116.33095637 22.98749388 117.72528469 21.16359423 120.1875 19 C125.52227233 13.85535582 129.65727458 7.02817627 132 0 C136.26644666 -0.17625089 139.45712501 0.26144442 143.44921875 1.7578125 C144.96999023 2.32628906 144.96999023 2.32628906 146.52148438 2.90625 C147.56626953 3.3084375 148.61105469 3.710625 149.6875 4.125 C151.22567383 4.69347656 151.22567383 4.69347656 152.79492188 5.2734375 C159.8788854 7.9584521 166.44418863 11.20909781 173 15 C173.10044657 20.79422199 173.17219623 26.58791439 173.21972656 32.3828125 C173.23958371 34.34546763 173.26667875 36.30806573 173.30175781 38.27050781 C174.09756915 84.00625337 149.8747212 116.56618423 119.6953125 148.43359375 C115.00842587 153.24557522 110.05088397 157.5613088 104.8046875 161.75390625 C102.97789738 163.21686491 101.16933051 164.70296955 99.3828125 166.21484375 C94.22398305 170.56999799 88.91361021 174.55312729 83.3125 178.3125 C82.70696289 178.72105225 82.10142578 179.12960449 81.47753906 179.55053711 C70.14008008 187.02434984 70.14008008 187.02434984 64.91015625 186.96484375 C53.68635533 183.24366412 44.0755427 175.34576963 35 168 C33.64841797 166.93845703 33.64841797 166.93845703 32.26953125 165.85546875 C24.10083117 159.35188035 16.54795679 152.20292022 9 145 C8.20207031 144.24460937 7.40414062 143.48921875 6.58203125 142.7109375 C1.23918626 137.52805793 -3.37131335 131.81956234 -8 126 C-8.8871799 124.91467664 -9.77522762 123.83006217 -10.6640625 122.74609375 C-27.59413221 101.91554224 -41.2431125 77.83555658 -41.09765625 50.3515625 C-41.0962413 49.33903412 -41.09482635 48.32650574 -41.09336853 47.28329468 C-41.08779143 44.06383249 -41.07524312 40.84444101 -41.0625 37.625 C-41.05748204 35.43619892 -41.05291965 33.24739675 -41.04882812 31.05859375 C-41.0378295 25.70570523 -41.0211142 20.35285767 -41 15 C-23.69562622 6.17523223 -23.69562622 6.17523223 -16.3125 3.5625 C-15.66345703 3.32080078 -15.01441406 3.07910156 -14.34570312 2.83007812 C-9.41864707 1.03067515 -5.24505944 0 0 0 Z " fill="#FAC900" transform="translate(383,204)"/>
<path d="M0 0 C1.42868408 0.00223572 1.42868408 0.00223572 2.88623047 0.0045166 C18.55565125 0.04837003 33.8805513 0.80529017 49.375 3.3125 C50.27460449 3.45171875 51.17420898 3.5909375 52.10107422 3.734375 C69.26340341 6.47173007 94.61986735 11.55736735 107.375 24.3125 C107.61550903 27.2484436 107.61550903 27.2484436 107.60205078 31.05712891 C107.60234283 31.74992447 107.60263489 32.44272003 107.60293579 33.1565094 C107.60154031 35.45082034 107.58596919 37.74480816 107.5703125 40.0390625 C107.56658314 41.62803978 107.5637358 43.21701936 107.56173706 44.80599976 C107.55409453 48.99164154 107.53444081 53.1771449 107.5123291 57.36273193 C107.49188396 61.63242724 107.4827382 65.90214487 107.47265625 70.171875 C107.45119543 78.55214691 107.41705211 86.93230625 107.375 95.3125 C105.95715957 94.84385956 104.53966569 94.3741706 103.12231445 93.90405273 C102.3329097 93.64260971 101.54350494 93.38116669 100.73017883 93.11180115 C97.30807917 91.95040816 93.93687625 90.66715163 90.5625 89.375 C83.88907483 86.84321002 77.17008112 84.50031021 70.375 82.3125 C70.31892578 81.17361328 70.31892578 81.17361328 70.26171875 80.01171875 C70.19597656 79.01785156 70.13023437 78.02398437 70.0625 77 C69.97548828 75.52080078 69.97548828 75.52080078 69.88671875 74.01171875 C69.3217679 71.03171083 68.81239229 70.05929781 66.375 68.3125 C63.41779372 67.64569632 63.41779372 67.64569632 60.375 68.3125 C57.28599483 71.31569947 55.89495407 74.3459532 54.375 78.3125 C53.785979 78.22685791 53.19695801 78.14121582 52.59008789 78.05297852 C49.87277882 77.65878371 47.1551438 77.26688023 44.4375 76.875 C43.51130859 76.74029297 42.58511719 76.60558594 41.63085938 76.46679688 C40.25317383 76.26860352 40.25317383 76.26860352 38.84765625 76.06640625 C38.01500244 75.94595947 37.18234863 75.8255127 36.32446289 75.70141602 C34.86447876 75.50890259 34.86447876 75.50890259 33.375 75.3125 C32.71763855 75.22549332 32.0602771 75.13848663 31.38299561 75.04884338 C25.68079398 74.34822877 20.06196349 74.15180633 14.3203125 74.14453125 C12.90877396 74.13953865 12.90877396 74.13953865 11.46871948 74.13444519 C9.48370853 74.12940917 7.49868921 74.12703583 5.51367188 74.12719727 C2.5428184 74.12503122 -0.4276505 74.10689616 -3.3984375 74.08789062 C-18.25245711 74.04426535 -33.19137319 74.51872235 -47.71484375 77.9453125 C-49.625 78.3125 -49.625 78.3125 -53.625 78.3125 C-53.89054687 77.75820312 -54.15609375 77.20390625 -54.4296875 76.6328125 C-54.78289062 75.90835938 -55.13609375 75.18390625 -55.5 74.4375 C-55.84804688 73.71820313 -56.19609375 72.99890625 -56.5546875 72.2578125 C-57.59057543 70.16114981 -57.59057543 70.16114981 -59.625 68.3125 C-63.68628095 67.83556277 -63.68628095 67.83556277 -67.2734375 69.4765625 C-69.11490693 71.97798051 -69.1315175 73.92329742 -69.3125 77 C-69.37824219 77.99386719 -69.44398438 78.98773438 -69.51171875 80.01171875 C-69.54910156 80.77097656 -69.58648437 81.53023438 -69.625 82.3125 C-70.29442627 82.52865967 -70.96385254 82.74481934 -71.65356445 82.9675293 C-74.75040605 83.97171572 -77.84392332 84.98580211 -80.9375 86 C-81.99001953 86.33966797 -83.04253906 86.67933594 -84.12695312 87.02929688 C-90.44997524 89.11103031 -96.4694693 91.48227693 -102.46948242 94.37036133 C-104.625 95.3125 -104.625 95.3125 -106.625 95.3125 C-106.83378705 86.15922099 -106.99356836 77.00676456 -107.09130955 67.85162163 C-107.13822872 63.60009379 -107.20182809 59.35019785 -107.30395508 55.09960938 C-107.401951 50.99513941 -107.45559732 46.89223563 -107.47889519 42.78668594 C-107.49549018 41.22280336 -107.52790095 39.65900403 -107.57657051 38.09579086 C-107.94241619 25.85525411 -107.94241619 25.85525411 -104.69442749 22.05171204 C-102.38285106 20.4785456 -100.21099546 19.36104942 -97.625 18.3125 C-96.3619621 17.67049556 -95.10098733 17.02438444 -93.84375 16.37109375 C-92.60970789 15.81819159 -91.3698905 15.27802306 -90.125 14.75 C-89.44195801 14.45826904 -88.75891602 14.16653809 -88.05517578 13.8659668 C-76.98575645 9.26780321 -65.63753313 6.3447207 -53.875 4.125 C-53.06788574 3.9700708 -52.26077148 3.8151416 -51.42919922 3.65551758 C-34.42134808 0.6507645 -17.23498475 -0.067407 0 0 Z " fill="#D2001B" transform="translate(448.625,112.6875)"/>
<path d="M0 0 C2.70802197 2.2024578 3.0658886 3.21662004 4.140625 6.75 C6.43084542 14.08817395 10.78229433 20.47399268 14.75 27 C15.60831949 28.42626692 16.46581275 29.85303137 17.32250977 31.28027344 C19.05229991 34.15909452 20.78682559 37.03496853 22.52587891 39.90820312 C25.39402447 44.64778148 28.23903824 49.40100142 31.08398438 54.15454102 C34.54719048 59.93825943 38.02317169 65.71430393 41.49853516 71.49072266 C49.46068399 84.72646717 57.35450793 98.0021218 65.23043823 111.28929138 C66.37780553 113.22325741 67.52736782 115.15590501 68.67724609 117.08837891 C70.29891873 119.81440034 71.90901104 122.5469346 73.51416016 125.28271484 C74.32832599 126.66120637 75.14261233 128.03962673 75.95703125 129.41796875 C76.33357346 130.06445877 76.71011566 130.71094879 77.09806824 131.37702942 C78.97204082 134.76123014 78.97204082 134.76123014 82 137 C82.25257568 136.30914307 82.50515137 135.61828613 82.76538086 134.90649414 C84.17067974 131.59819215 85.9085431 128.57036755 87.75390625 125.49609375 C88.31266197 124.55592911 88.31266197 124.55592911 88.88270569 123.59677124 C90.10568521 121.54149999 91.33398311 119.48946534 92.5625 117.4375 C93.42321128 115.99385113 94.28372292 114.55008322 95.14404297 113.10620117 C101.27210771 102.83395139 107.47776757 92.60997439 113.70751953 82.39916992 C119.25698048 73.28842858 124.65680816 64.09419512 130.02868652 54.87789917 C134.04942361 47.98258371 138.09922963 41.11611869 142.375 34.375 C146.03112978 28.6072544 149.5527871 22.77021736 153 16.875 C153.70455322 15.68269775 153.70455322 15.68269775 154.42333984 14.46630859 C156.79992224 10.37004972 158.56650219 6.53481518 160 2 C162 0 162 0 164.4375 -0.3125 C167 0 167 0 168.8125 1.1875 C170.44052002 3.67237266 170.50975499 5.08711432 170 8 C167.95575462 9.97610386 166.8823175 11 164 11 C166.30470394 15.41734922 168.83453208 19.07039693 172.0625 22.875 C178.84470675 31.27382213 180.09369085 39.3088647 179 50 C174.05821851 73.84339769 157.15907844 89.05048795 138.14453125 102.44140625 C135.93110092 103.96471003 135.93110092 103.96471003 134 106 C133.85492305 108.74485593 133.81347577 111.38480543 133.875 114.125 C133.88402344 114.87910156 133.89304687 115.63320313 133.90234375 116.41015625 C133.9259313 118.27357254 133.96180281 120.13682593 134 122 C127.26706719 120.97437403 121.11719385 117.67762752 116.875 112.3125 C114.76169414 104.3121278 115.29369411 97.57680452 119.40234375 90.34375 C124.90549932 82.27066114 132.29755629 77.28427998 141 73 C141.66 73 142.32 73 143 73 C142.32209448 69.9647283 142.32209448 69.9647283 140.2578125 68.796875 C139.55398438 68.45140625 138.85015625 68.1059375 138.125 67.75 C137.42632812 67.39421875 136.72765625 67.0384375 136.0078125 66.671875 C133.83496067 65.7211614 133.83496067 65.7211614 131 67 C129.57047949 68.85843917 129.57047949 68.85843917 128.28515625 71.20703125 C127.77017578 72.09334229 127.25519531 72.97965332 126.72460938 73.89282227 C126.17611328 74.85631592 125.62761719 75.81980957 125.0625 76.8125 C123.88735091 78.8389084 122.71155636 80.86494261 121.53515625 82.890625 C120.64594482 84.43073242 120.64594482 84.43073242 119.73876953 86.00195312 C117.19968082 90.37993815 114.6067065 94.72452555 112 99.0625 C111.51289551 99.87420654 111.02579102 100.68591309 110.52392578 101.5222168 C105.82145356 109.33627895 101.01532185 117.08524779 96.203125 124.83203125 C91.42535588 132.52808975 86.71320576 140.26429756 82 148 C78.59692531 146.86564177 78.38930716 146.46519397 76.6796875 143.51171875 C76.23560547 142.75697266 75.79152344 142.00222656 75.33398438 141.22460938 C74.85251953 140.38736328 74.37105469 139.55011719 73.875 138.6875 C72.80061095 136.85740801 71.72502026 135.02802111 70.6484375 133.19921875 C70.06545898 132.2045459 69.48248047 131.20987305 68.88183594 130.18505859 C65.83481976 125.0279007 62.71452211 119.91553781 59.59719849 114.80072021 C57.77182927 111.80492748 55.95004169 108.8069616 54.12890625 105.80859375 C53.77563766 105.22696472 53.42236908 104.64533569 53.05839539 104.04608154 C49.34469355 97.92728842 45.66644781 91.78744654 41.99121094 85.64550781 C38.04843027 79.06309246 34.04522764 72.51995513 30 66 C26.20696275 67.00193437 23.28463659 67.81024227 20 70 C19.505 71.485 19.505 71.485 19 73 C19.8765625 73.25394531 20.753125 73.50789063 21.65625 73.76953125 C31.49343029 77.38952166 40.31041469 85.62082939 45 95 C46.68674719 100.67360418 46.86573962 106.59480912 44.6875 112.125 C41.80769472 117.40464301 36.40245734 119.82252101 31 122 C30.01 122 29.02 122 28 122 C28.04382813 120.865625 28.08765625 119.73125 28.1328125 118.5625 C28.38316528 110.03831586 28.38316528 110.03831586 25.1640625 102.44140625 C22.54374713 100.40196985 19.8490542 98.70500394 17 97 C14.80578645 95.42123659 12.64358356 93.83137763 10.5 92.1875 C9.94973145 91.76782959 9.39946289 91.34815918 8.83251953 90.91577148 C-4.13570501 80.81894555 -13.85885563 67.31908139 -17 51 C-18.07063293 40.24952084 -17.35858251 31.36782389 -10.5078125 22.79296875 C-8.7341379 20.6403987 -6.90419211 18.54912555 -5.046875 16.46875 C-2.78724485 14.2778835 -2.78724485 14.2778835 -3 12 C-4.2375 11.1028125 -4.2375 11.1028125 -5.5 10.1875 C-8 8 -8 8 -8.5 5.4375 C-8 3 -8 3 -6.8125 1.1875 C-4.35092224 -0.42525784 -2.88934264 -0.4334014 0 0 Z " fill="#090500" transform="translate(368,223)"/>
<path d="M0 0 C12.74625 -0.0928125 12.74625 -0.0928125 25.75 -0.1875 C29.73658691 -0.22846802 29.73658691 -0.22846802 33.80371094 -0.27026367 C35.94726103 -0.27903835 38.09081618 -0.28667995 40.234375 -0.29296875 C41.31734863 -0.30831665 42.40032227 -0.32366455 43.51611328 -0.33947754 C54.85668017 -0.34330364 66.04423273 1.59455883 75 9 C82.56704782 17.19870939 86.40564903 25.32502347 86 36.5 C84.89082902 46.33233855 81.07818454 52.94215913 73.4921875 59.23828125 C69.56825701 62.01209418 65.39933012 64.08964371 61 66 C62.07314453 67.51013672 62.07314453 67.51013672 63.16796875 69.05078125 C68.89274239 77.12310998 74.57399667 85.22484423 80.1875 93.375 C80.75170654 94.18880127 81.31591309 95.00260254 81.8972168 95.84106445 C82.41968994 96.60249756 82.94216309 97.36393066 83.48046875 98.1484375 C83.94348389 98.82052246 84.40649902 99.49260742 84.88354492 100.18505859 C86 102 86 102 87 105 C83.66896948 105.3228968 80.34196138 105.51571694 77 105.6875 C76.06542969 105.77966797 75.13085938 105.87183594 74.16796875 105.96679688 C69.787082 106.13529252 67.09874706 106.01478964 63.79541016 102.96386719 C61.6355006 100.07172254 59.79599168 97.13122541 58 94 C57.38737305 92.93322021 56.77474609 91.86644043 56.14355469 90.76733398 C55.52641602 89.68653564 54.90927734 88.6057373 54.2734375 87.4921875 C48.07160485 75.73718309 48.07160485 75.73718309 38.07080078 67.76611328 C31.31657964 66.43161425 26.07531088 67.24352022 19 68 C19 80.21 19 92.42 19 105 C12.73 105 6.46 105 0 105 C0 70.35 0 35.7 0 0 Z M19 17 C19 28.55 19 40.1 19 52 C23.95 52.061875 28.9 52.12375 34 52.1875 C36.31837891 52.22846802 36.31837891 52.22846802 38.68359375 52.27026367 C47.1260065 52.32132665 53.9270878 52.25832976 60.8125 46.75 C64.42430592 42.20944399 66.33981413 38.27596109 65.9375 32.4375 C65.01724518 26.68101243 62.61596454 23.24563933 58 19.6875 C53.08479065 16.92269474 49.24649993 16.87997421 43.609375 16.90234375 C42.31999023 16.90484131 41.03060547 16.90733887 39.70214844 16.90991211 C38.06793945 16.91901611 36.43373047 16.92812012 34.75 16.9375 C29.5525 16.958125 24.355 16.97875 19 17 Z " fill="#000000" transform="translate(609,514)"/>
<path d="M0 0 C1.328125 1.52734375 1.328125 1.52734375 1.328125 5.52734375 C-0.640625 8.32421875 -0.640625 8.32421875 -3.171875 11.27734375 C-4.42484375 12.75460937 -4.42484375 12.75460937 -5.703125 14.26171875 C-6.67765625 15.38320313 -6.67765625 15.38320313 -7.671875 16.52734375 C-10.84975702 15.34449572 -13.48627798 14.0633094 -16.234375 12.08984375 C-23.6655897 7.3327404 -33.34179495 5.25283099 -42 6.99609375 C-51.43896299 9.42821918 -58.35308246 13.83470116 -63.45703125 22.21875 C-69.19972956 33.13172331 -70.39308931 44.33528872 -67.109375 56.27734375 C-63.88795562 65.58241924 -58.87302692 71.67549835 -50.19921875 76.37109375 C-41.26167657 80.45998476 -31.58996436 80.53636143 -22.27734375 77.375 C-19.37011451 76.16218974 -16.52233518 74.86660758 -13.671875 73.52734375 C-12.681875 73.19734375 -11.691875 72.86734375 -10.671875 72.52734375 C-10.671875 65.92734375 -10.671875 59.32734375 -10.671875 52.52734375 C-18.591875 52.52734375 -26.511875 52.52734375 -34.671875 52.52734375 C-34.671875 47.24734375 -34.671875 41.96734375 -34.671875 36.52734375 C-20.481875 36.52734375 -6.291875 36.52734375 8.328125 36.52734375 C8.51214073 42.68675912 8.67122308 48.83660395 8.76757812 54.99658203 C8.80774292 57.09001002 8.86228861 59.18321451 8.93164062 61.27587891 C9.02900725 64.28994862 9.07411902 67.30104783 9.109375 70.31640625 C9.15066528 71.24788483 9.19195557 72.1793634 9.23449707 73.1390686 C9.2388757 79.5192401 9.2388757 79.5192401 6.61543274 82.42311096 C4.58144373 83.97415183 2.56002524 85.28148475 0.328125 86.52734375 C-0.81269531 87.19121094 -1.95351563 87.85507812 -3.12890625 88.5390625 C-19.12714754 96.52887101 -36.34987911 99.94948567 -53.984375 94.83984375 C-67.66565763 89.73382539 -77.93448203 81.68713469 -84.671875 68.52734375 C-91.16658069 52.73474632 -91.48584636 36.4122638 -85.48828125 20.359375 C-79.60602828 7.47840744 -69.67381161 -2.37411832 -56.5546875 -7.75 C-37.22013675 -14.52432514 -16.68754112 -12.24431371 0 0 Z " fill="#000000" transform="translate(475.671875,523.47265625)"/>
<path d="M0 0 C5.94 0 11.88 0 18 0 C23.16888993 9.83324678 27.33920759 20.07402607 31.625 30.3125 C32.88011889 33.30305627 34.13609435 36.29325175 35.3921814 39.28340149 C36.26093647 41.35166078 37.12927881 43.42009349 37.9972229 45.48869324 C41.11873063 52.92260475 44.27180741 60.34262479 47.4375 67.7578125 C48.74450053 70.82633161 50.05092335 73.89509595 51.3571167 76.96395874 C52.19871211 78.93773558 53.04248469 80.9105856 53.88848877 82.88247681 C55.06963602 85.63660348 56.24267592 88.39405446 57.4140625 91.15234375 C57.7642041 91.96289215 58.1143457 92.77344055 58.47509766 93.60855103 C58.79478516 94.36542206 59.11447266 95.12229309 59.44384766 95.90209961 C59.86085434 96.87765053 59.86085434 96.87765053 60.2862854 97.87290955 C61 100 61 100 62 106 C55.73 106 49.46 106 43 106 C40.32680763 100.19535371 37.69631287 94.37779015 35.1875 88.5 C34.76855469 87.5203125 34.34960938 86.540625 33.91796875 85.53125 C33 83 33 83 33 80 C17.16 80 1.32 80 -15 80 C-15.99 83.3 -16.98 86.6 -18 90 C-19.18747102 92.9140081 -20.38843252 95.76562774 -21.6875 98.625 C-22.780625 101.05875 -23.87375 103.4925 -25 106 C-31.27 106 -37.54 106 -44 106 C-43.30816126 102.5408063 -42.77009512 100.12885939 -41.44384766 97.015625 C-41.12416016 96.2586734 -40.80447266 95.5017218 -40.47509766 94.72183228 C-40.12495605 93.90612762 -39.77481445 93.09042297 -39.4140625 92.25 C-38.86057129 90.94462784 -38.86057129 90.94462784 -38.29589844 89.61288452 C-37.07664921 86.74003802 -35.85083832 83.87004038 -34.625 81 C-33.77344727 78.99711093 -32.92238003 76.99401538 -32.07177734 74.99072266 C-30.74474333 71.86593347 -29.41720179 68.74136651 -28.08779907 65.61758423 C-24.9386786 58.21776887 -21.80748106 50.81058255 -18.6875 43.3984375 C-18.26004486 42.38340149 -17.83258972 41.36836548 -17.3921814 40.3225708 C-15.73222673 36.38069895 -14.07234608 32.43879732 -12.41436768 28.49609375 C-8.39441848 18.93975846 -4.36374519 9.4055225 0 0 Z M8 24 C5.71680688 29.37324605 3.43826486 34.74843075 1.1640625 40.12548828 C0.38930619 41.95546008 -0.38673159 43.78488988 -1.1640625 45.61376953 C-2.27939619 48.23850252 -3.39014798 50.86513278 -4.5 53.4921875 C-4.84998047 54.31306854 -5.19996094 55.13394958 -5.56054688 55.97970581 C-7.34629721 59.85394814 -7.34629721 59.85394814 -8 64 C3.22 64 14.44 64 26 64 C21.06515108 50.49409769 15.59118882 37.24630609 10 24 C9.34 24 8.68 24 8 24 Z " fill="#000000" transform="translate(536,513)"/>
<path d="M0 0 C0.74886475 0.00523682 1.49772949 0.01047363 2.26928711 0.01586914 C3.07817383 0.0190918 3.88706055 0.02231445 4.72045898 0.02563477 C5.5705957 0.03401367 6.42073242 0.04239258 7.29663086 0.05102539 C8.15063477 0.05553711 9.00463867 0.06004883 9.88452148 0.06469727 C12.00108749 0.07652166 14.11761771 0.0944577 16.23413086 0.11352539 C20.33015287 7.86420786 23.72224673 15.86973215 27.05102539 23.96884155 C28.68193034 27.93585142 30.3254088 31.89764692 31.96850586 35.85961914 C32.31224243 36.68901505 32.655979 37.51841095 33.01013184 38.37294006 C37.70735175 49.68858185 42.52419598 60.95361774 47.3347168 72.22143555 C49.3092522 76.84873326 51.27403679 81.48009449 53.23413086 86.11352539 C53.57283203 86.91147522 53.9115332 87.70942505 54.26049805 88.53155518 C55.25755541 90.88589593 56.24692962 93.24331882 57.23413086 95.60180664 C57.53722168 96.31507614 57.8403125 97.02834564 58.15258789 97.76322937 C59.37777576 100.70994379 60.23413086 102.88853502 60.23413086 106.11352539 C53.96413086 106.11352539 47.69413086 106.11352539 41.23413086 106.11352539 C38.60754258 100.86034884 36.14649744 95.73452306 33.98413086 90.30102539 C33.71600586 89.64682617 33.44788086 88.99262695 33.17163086 88.31860352 C32.01265951 85.4241317 31.23413086 83.26173284 31.23413086 80.11352539 C15.39413086 80.11352539 -0.44586914 80.11352539 -16.76586914 80.11352539 C-17.75586914 83.08352539 -18.74586914 86.05352539 -19.76586914 89.11352539 C-20.35252951 90.65440117 -20.95509192 92.18958752 -21.59008789 93.71118164 C-22.0052063 94.71290405 -22.0052063 94.71290405 -22.42871094 95.73486328 C-22.76684814 96.54044678 -23.10498535 97.34603027 -23.45336914 98.17602539 C-24.54649414 100.79540039 -25.63961914 103.41477539 -26.76586914 106.11352539 C-33.03586914 106.11352539 -39.30586914 106.11352539 -45.76586914 106.11352539 C-45.08434029 102.70588114 -44.56292763 100.30338782 -43.26977539 97.23339844 C-42.81069038 96.13406731 -42.81069038 96.13406731 -42.34233093 95.01252747 C-42.00772354 94.22472397 -41.67311615 93.43692047 -41.32836914 92.62524414 C-40.97623856 91.78607956 -40.62410797 90.94691498 -40.26130676 90.08232117 C-39.10069989 87.31995455 -37.93336151 84.56048814 -36.76586914 81.80102539 C-35.95522211 79.87555182 -35.14492389 77.94993136 -34.33496094 76.02416992 C-28.1009143 61.2165544 -21.82214012 46.42753224 -15.51391602 31.65136719 C-14.85427101 30.10495871 -14.19476278 28.55849189 -13.53540039 27.01196289 C-13.06398117 25.90680077 -13.06398117 25.90680077 -12.58303833 24.77931213 C-9.97558412 18.6479885 -7.43925591 12.48829168 -4.94477844 6.31015015 C-2.44042686 0.15689181 -2.44042686 0.15689181 0 0 Z M6.23413086 24.11352539 C3.95093774 29.48677144 1.67239572 34.86195614 -0.60180664 40.23901367 C-1.37656295 42.06898547 -2.15260073 43.89841527 -2.92993164 45.72729492 C-4.04526533 48.35202791 -5.15601712 50.97865817 -6.26586914 53.60571289 C-6.61584961 54.42659393 -6.96583008 55.24747498 -7.32641602 56.0932312 C-9.11216635 59.96747353 -9.11216635 59.96747353 -9.76586914 64.11352539 C1.45413086 64.11352539 12.67413086 64.11352539 24.23413086 64.11352539 C17.58841223 47.32143713 17.58841223 47.32143713 10.73413086 30.61352539 C10.29069336 29.55133789 9.84725586 28.48915039 9.39038086 27.39477539 C8.44690091 24.97173561 8.44690091 24.97173561 6.23413086 24.11352539 Z " fill="#000000" transform="translate(242.765869140625,512.886474609375)"/>
<path d="M0 0 C2.79024764 2.21617755 5.4406868 4.52135283 8 7 C6.43632643 10.52238047 4.30504111 13.27123994 1.875 16.25 C0.78832031 17.58804688 0.78832031 17.58804688 -0.3203125 18.953125 C-0.87460938 19.62859375 -1.42890625 20.3040625 -2 21 C-4.84641338 19.93318504 -6.93264053 19.05461579 -9.3125 17.125 C-16.68776084 11.29339841 -25.57783347 8.18774427 -35 9 C-43.99128977 10.78327247 -51.80851709 14.54452835 -57.3125 22.0625 C-63.65031545 32.54902473 -65.66915275 43.72545039 -62.8125 55.5625 C-59.76359953 65.57023349 -54.97592255 72.98762497 -45.765625 78.28515625 C-36.96453793 82.51878262 -29.31145912 82.51218252 -20 80 C-13.47941448 77.64599801 -8.30010922 73.3676826 -3 69 C1.18423892 72.50897269 5.19588166 76.08060535 9 80 C5.78844865 87.83688346 -3.20328486 92.44657491 -10.48046875 95.9921875 C-23.07861029 101.03144411 -39.4879049 101.07286354 -52.25 96.3203125 C-56.96692497 94.0556525 -60.9940297 91.35725725 -65 88 C-65.78246094 87.35289062 -66.56492187 86.70578125 -67.37109375 86.0390625 C-78.49841513 75.94378611 -83.04454751 62.2247399 -83.9609375 47.5625 C-84.13578451 31.61645311 -79.52422342 18.02497008 -69 6 C-50.84459207 -11.33612057 -20.79266609 -14.57837978 0 0 Z " fill="#000000" transform="translate(184,521)"/>
<path d="M0 0 C7.27358735 -1.47704606 14.87810802 -2.56805641 22 0 C27.91740055 5.14613502 31.02406288 12.80776913 34.36914062 19.75244141 C37.00771467 25.00667972 40.16301623 29.91628439 43.3125 34.875 C44.39288822 36.62180174 45.47240384 38.36914368 46.55078125 40.1171875 C48.08984096 42.70571651 48.08984096 42.70571651 50 45 C50.28496338 44.51982422 50.56992676 44.03964844 50.86352539 43.54492188 C57.19290582 32.89703836 63.62514056 22.31859646 70.1875 11.8125 C70.84693604 10.75546875 71.50637207 9.6984375 72.18579102 8.609375 C72.79865967 7.63097656 73.41152832 6.65257812 74.04296875 5.64453125 C74.58977295 4.77159424 75.13657715 3.89865723 75.69995117 2.99926758 C77 1 77 1 78 0 C79.56172745 -0.08685603 81.12729344 -0.10702219 82.69140625 -0.09765625 C83.63564453 -0.09443359 84.57988281 -0.09121094 85.55273438 -0.08789062 C86.54595703 -0.07951172 87.53917969 -0.07113281 88.5625 -0.0625 C89.55958984 -0.05798828 90.55667969 -0.05347656 91.58398438 -0.04882812 C94.05604849 -0.03700007 96.52799518 -0.02051849 99 0 C97.75508554 3.30066374 96.35892252 6.2497214 94.48828125 9.23828125 C93.98522461 10.04644287 93.48216797 10.85460449 92.96386719 11.68725586 C92.14644043 12.98675171 92.14644043 12.98675171 91.3125 14.3125 C90.45833496 15.68063843 90.45833496 15.68063843 89.58691406 17.07641602 C88.36449163 19.03345138 87.14031161 20.9893898 85.91455078 22.94433594 C83.97801654 26.03508607 82.04868168 29.13022617 80.12109375 32.2265625 C78.83091872 34.29699313 77.5405583 36.36730825 76.25 38.4375 C75.66130127 39.38214111 75.07260254 40.32678223 74.46606445 41.30004883 C73.88429443 42.23099365 73.30252441 43.16193848 72.703125 44.12109375 C72.11974365 45.07661133 71.5363623 46.03212891 70.93530273 47.01660156 C69 50 69 50 66.58227539 53.08496094 C58.74666079 63.31073009 58.74181377 72.82921664 58.9375 85.375 C58.93441803 87.28646926 58.92728436 89.19793647 58.91601562 91.109375 C58.88991816 95.74267913 58.94659276 100.3642514 59 105 C52.4 105 45.8 105 39 105 C39.13535156 100.96072266 39.13535156 100.96072266 39.2734375 96.83984375 C39.71388308 76.10557221 39.33665329 60.75002773 26.13232422 43.87451172 C22.41624164 38.86499073 19.33252951 33.46947177 16.16186523 28.10464478 C14.4323926 25.18699986 12.67173553 22.28901291 10.91015625 19.390625 C10.26191895 18.32263672 9.61368164 17.25464844 8.94580078 16.15429688 C6.44717299 12.10382372 3.86087244 8.11318386 1.24780273 4.13574219 C0 2 0 2 0 0 Z " fill="#000000" transform="translate(695,514)"/>
<path d="M0 0 C6.27 0 12.54 0 19 0 C19 29.04 19 58.08 19 88 C36.49 88 53.98 88 72 88 C72 93.61 72 99.22 72 105 C48.24 105 24.48 105 0 105 C0 70.35 0 35.7 0 0 Z " fill="#000000" transform="translate(313,514)"/>
<path d="M0 0 C3 0.5 3 0.5 5.625 2.125 C6.40875 2.57875 7.1925 3.0325 8 3.5 C10.21734114 2.8498008 10.21734114 2.8498008 12 1.5 C14.90295805 0.04852097 16.77261779 0.12760975 20 0.5 C20.99 1.345625 21.98 2.19125 23 3.0625 C25.76020043 5.84138147 25.76020043 5.84138147 29.125 5.4375 C31.58578022 4.63507167 33.76183718 3.79124778 36 2.5 C36 4.48 36 6.46 36 8.5 C36.66 8.5 37.32 8.5 38 8.5 C38 21.37 38 34.24 38 47.5 C29.66666667 45.83333333 21.33333333 44.16666667 13 42.5 C13 43.16 13 43.82 13 44.5 C10.36 44.5 7.72 44.5 5 44.5 C5 43.84 5 43.18 5 42.5 C4.42032471 42.59087891 3.84064941 42.68175781 3.2434082 42.77539062 C0.60036412 43.18749945 -2.04354162 43.59380017 -4.6875 44 C-5.59951172 44.14308594 -6.51152344 44.28617188 -7.45117188 44.43359375 C-8.78051758 44.63662109 -8.78051758 44.63662109 -10.13671875 44.84375 C-10.94842529 44.96943359 -11.76013184 45.09511719 -12.59643555 45.22460938 C-15.08533405 45.50977723 -17.49706689 45.54674739 -20 45.5 C-20.04960315 40.34050889 -20.08581559 35.181158 -20.10986328 30.02148438 C-20.11989313 28.26787903 -20.13352029 26.5142903 -20.15087891 24.76074219 C-20.1752603 22.23368215 -20.1865134 19.7068441 -20.1953125 17.1796875 C-20.20563507 16.40132538 -20.21595764 15.62296326 -20.22659302 14.8210144 C-20.2275122 10.31634138 -19.70651048 6.74560912 -18 2.5 C-17.278125 2.995 -16.55625 3.49 -15.8125 4 C-12.73336476 5.64220546 -11.40947322 6.18189464 -8 5.5 C-7.195625 4.675 -6.39125 3.85 -5.5625 3 C-3 0.5 -3 0.5 0 0 Z " fill="#0B0500" transform="translate(502,129.5)"/>
<path d="M0 0 C3.19165543 0.47535294 4.59375462 1.27404273 6.9375 3.4375 C7.55625 3.128125 8.175 2.81875 8.8125 2.5 C12.55592755 0.62828623 14.65546077 -0.05658145 18.9375 0.4375 C19.9275 1.283125 20.9175 2.12875 21.9375 3 C24.69770043 5.77888147 24.69770043 5.77888147 28.0625 5.375 C30.52328022 4.57257167 32.69933718 3.72874778 34.9375 2.4375 C34.9375 4.4175 34.9375 6.3975 34.9375 8.4375 C35.5975 8.4375 36.2575 8.4375 36.9375 8.4375 C36.9375 20.6475 36.9375 32.8575 36.9375 45.4375 C30.85974273 44.82972427 24.85477521 44.19894662 18.8125 43.375 C17.51054687 43.19839844 16.20859375 43.02179688 14.8671875 42.83984375 C13.90039062 42.70707031 12.93359375 42.57429688 11.9375 42.4375 C11.9375 43.0975 11.9375 43.7575 11.9375 44.4375 C9.2975 44.4375 6.6575 44.4375 3.9375 44.4375 C3.9375 43.7775 3.9375 43.1175 3.9375 42.4375 C-4.3125 44.0875 -12.5625 45.7375 -21.0625 47.4375 C-21.0625 34.5675 -21.0625 21.6975 -21.0625 8.4375 C-20.4025 8.4375 -19.7425 8.4375 -19.0625 8.4375 C-19.0625 6.4575 -19.0625 4.4775 -19.0625 2.4375 C-18.175625 2.953125 -17.28875 3.46875 -16.375 4 C-12.76424866 5.56692982 -11.66788884 5.82418801 -8.0625 4.4375 C-7.258125 3.756875 -6.45375 3.07625 -5.625 2.375 C-3.0625 0.4375 -3.0625 0.4375 0 0 Z " fill="#050100" transform="translate(379.0625,129.5625)"/>
<path d="M0 0 C8.1034579 4.37280936 13.17908946 9.65393147 16.0625 18.4375 C18.57932439 27.03664999 17.06871912 35.8417654 12.87890625 43.640625 C8.8593575 49.6073206 2.97852435 53.79882522 -3.859375 56.078125 C-13.57231136 57.75780572 -22.4360575 56.63605574 -30.74609375 51.26953125 C-36.15682829 47.10016224 -39.14010587 41.92040875 -40.9375 35.4375 C-41.72463954 26.6050621 -41.9109291 18.12070443 -36.9375 10.4375 C-36.2775 9.385625 -35.6175 8.33375 -34.9375 7.25 C-26.20259482 -2.19957924 -11.78717155 -4.65390049 0 0 Z M-24.1875 15.875 C-27.79429716 21.15638156 -28.77381146 25.07107897 -27.9375 31.4375 C-26.56818997 35.86441708 -24.68251932 38.76178481 -21.25 41.875 C-15.93041428 44.38423855 -11.3393025 45.22270466 -5.6875 43.375 C-1.54552105 40.45678756 1.42727655 37.34317035 3.0625 32.4375 C3.59672104 26.46860719 3.59556722 21.50156302 0.0625 16.4375 C-3.68359191 12.67093765 -6.84939292 10.59509299 -12.25 10.1875 C-17.52688048 10.54525461 -20.59942243 11.98791597 -24.1875 15.875 Z " fill="#000000" transform="translate(719.9375,435.5625)"/>
<path d="M0 0 C12 0 12 0 14.90234375 2.2109375 C15.90974609 3.77714844 15.90974609 3.77714844 16.9375 5.375 C17.73550767 6.55350015 18.53369554 7.7318783 19.33203125 8.91015625 C19.7492041 9.55742676 20.16637695 10.20469727 20.59619141 10.87158203 C22.68316199 14.03579239 24.93031775 17.07783862 27.1706543 20.13452148 C29.80225697 23.74052395 32.39741763 27.37299691 35 31 C35.33 20.77 35.66 10.54 36 0 C39.96 0 43.92 0 48 0 C48 18.48 48 36.96 48 56 C37 56 37 56 34.23046875 53.82421875 C33.55628906 52.78910156 32.88210937 51.75398438 32.1875 50.6875 C31.3823484 49.50984331 30.57629934 48.33279988 29.76953125 47.15625 C29.33979004 46.50269531 28.91004883 45.84914063 28.46728516 45.17578125 C26.244395 41.87954214 23.85962164 38.70794051 21.4831543 35.52148438 C18.63662801 31.69490914 15.82153819 27.84503734 13 24 C12.67 34.56 12.34 45.12 12 56 C8.04 56 4.08 56 0 56 C0 37.52 0 19.04 0 0 Z " fill="#000000" transform="translate(171,435)"/>
<path d="M0 0 C5.32125 -0.061875 10.6425 -0.12375 16.125 -0.1875 C18.62731201 -0.22846802 18.62731201 -0.22846802 21.18017578 -0.27026367 C22.51854735 -0.27903444 23.85692698 -0.28667698 25.1953125 -0.29296875 C25.877146 -0.30831665 26.55897949 -0.32366455 27.26147461 -0.33947754 C32.75554956 -0.34245374 36.76914391 0.98427888 40.86328125 4.68359375 C41.34152344 5.26238281 41.81976563 5.84117187 42.3125 6.4375 C43.04919922 7.30181641 43.04919922 7.30181641 43.80078125 8.18359375 C46.69964093 12.57437469 46.4724906 17.9228737 46 23 C44.33228265 28.26647583 42.0891118 31.33028428 38 35 C37.34 35.66 36.68 36.32 36 37 C36.33322266 37.50450684 36.66644531 38.00901367 37.00976562 38.52880859 C38.51124121 40.80779654 40.00568792 43.0913093 41.5 45.375 C42.02464844 46.1690625 42.54929687 46.963125 43.08984375 47.78125 C43.58613281 48.54179687 44.08242188 49.30234375 44.59375 50.0859375 C45.05458984 50.7876709 45.51542969 51.4894043 45.99023438 52.21240234 C47 54 47 54 47 56 C41.97584792 57.03737553 36.86528713 57.98979324 32 56 C28.85245294 52.86910663 26.81984984 49.08408608 24.85424805 45.13500977 C24.46019775 44.36987061 24.06614746 43.60473145 23.66015625 42.81640625 C23.17494507 41.75595093 23.17494507 41.75595093 22.67993164 40.67407227 C20.44041678 38.10054282 20.44041678 38.10054282 13 38 C13 43.94 13 49.88 13 56 C8.71 56 4.42 56 0 56 C0 37.52 0 19.04 0 0 Z M13 12 C13 16.95 13 21.9 13 27 C16.0628125 27.0928125 16.0628125 27.0928125 19.1875 27.1875 C20.91033203 27.23970703 20.91033203 27.23970703 22.66796875 27.29296875 C26.33289234 26.97073045 28.09664715 26.21232393 31 24 C33.30260759 21.18401813 33.30260759 21.18401813 32.875 18 C32.24895877 15.01260278 32.24895877 15.01260278 30.4296875 13.32421875 C27.06428812 11.49002198 23.96970596 11.67644256 20.25 11.8125 C16.66125 11.9053125 16.66125 11.9053125 13 12 Z " fill="#000000" transform="translate(388,435)"/>
<path d="M0 0 C13.53 0 27.06 0 41 0 C41 3.96 41 7.92 41 12 C31.76 12 22.52 12 13 12 C13 15.3 13 18.6 13 22 C21.25 22 29.5 22 38 22 C38 25.96 38 29.92 38 34 C29.75 34 21.5 34 13 34 C13 37.3 13 40.6 13 44 C22.57 44 32.14 44 42 44 C42 47.96 42 51.92 42 56 C28.14 56 14.28 56 0 56 C0 37.52 0 19.04 0 0 Z " fill="#000000" transform="translate(329,435)"/>
<path d="M0 0 C0.86689453 -0.00386719 1.73378906 -0.00773438 2.62695312 -0.01171875 C3.45517578 -0.01042969 4.28339844 -0.00914062 5.13671875 -0.0078125 C5.89041748 -0.00668457 6.64411621 -0.00555664 7.4206543 -0.00439453 C9.3125 0.125 9.3125 0.125 11.3125 1.125 C12.6325 1.125 13.9525 1.125 15.3125 1.125 C15.4671875 2.0221875 15.4671875 2.0221875 15.625 2.9375 C16.12402533 5.17012161 16.12402533 5.17012161 17.71875 6.3984375 C19.850655 8.70800125 20.52272134 10.96073167 21.5 13.9375 C21.84417969 14.95457031 22.18835938 15.97164062 22.54296875 17.01953125 C23.3285225 20.18965934 23.40905486 22.87431986 23.3125 26.125 C23.75191523 28.39066343 23.75191523 28.39066343 24.3125 30.125 C23.3225 30.125 22.3325 30.125 21.3125 30.125 C21.10238281 30.68960938 20.89226562 31.25421875 20.67578125 31.8359375 C18.81032182 34.9681989 16.42580333 36.59262591 13.5 38.75 C12.46230469 39.52601563 11.42460937 40.30203125 10.35546875 41.1015625 C6.08553339 43.94087767 3.46501313 45.125 -1.6875 45.125 C-8.38433118 42.55104788 -14.17212392 38.64913338 -19.6875 34.125 C-20.5125 33.526875 -21.3375 32.92875 -22.1875 32.3125 C-24.67142576 28.69010826 -24.37362515 25.27663861 -23.6875 21.125 C-22.3456164 16.32085186 -20.87857298 11.61824262 -18.6875 7.125 C-17.6975 6.795 -16.7075 6.465 -15.6875 6.125 C-15.3575 4.475 -15.0275 2.825 -14.6875 1.125 C-9.81106054 -0.14186881 -4.99941298 -0.02260473 0 0 Z " fill="#0B0500" transform="translate(448.6875,129.875)"/>
<path d="M0 0 C4.29 0 8.58 0 13 0 C13.01458252 1.05912598 13.02916504 2.11825195 13.04418945 3.20947266 C13.10237327 7.15707342 13.17960407 11.10411571 13.26245117 15.05126953 C13.29560636 16.75625512 13.32366737 18.46134798 13.34643555 20.16650391 C13.38015568 22.62448634 13.43247794 25.08149406 13.48828125 27.5390625 C13.49467117 28.29555084 13.5010611 29.05203918 13.50764465 29.83145142 C13.63796587 34.57373797 14.41265189 37.88081929 17 42 C20.08640454 43.97186957 21.88503046 44.00403402 25.5625 43.875 C29.31119446 42.92078686 30.64009442 41.99526478 33 39 C34.60951543 35.78096915 34.24234748 32.25161168 34.31640625 28.7109375 C34.33718735 27.89251373 34.35796844 27.07408997 34.37937927 26.23086548 C34.44484812 23.61233034 34.50374726 20.99369361 34.5625 18.375 C34.60568776 16.60155193 34.64930214 14.82811419 34.69335938 13.0546875 C34.80052676 8.70322954 34.90180169 4.35166923 35 0 C39.29 0 43.58 0 48 0 C48.07466663 5.24695799 48.12884421 10.49360043 48.16479492 15.7409668 C48.17979643 17.52259719 48.20020433 19.30419119 48.22631836 21.08569336 C48.26308509 23.66008535 48.27981285 26.2339853 48.29296875 28.80859375 C48.30845261 29.59334579 48.32393646 30.37809784 48.33988953 31.18663025 C48.34200584 38.28583159 46.69764808 44.2734743 42.9375 50.3125 C36.30163033 56.3836148 28.94882839 57.69474659 20.12109375 57.3828125 C13.86814563 56.61586767 9.65943389 54.58728459 5.125 50.25 C0.66904879 43.43501579 -0.44467619 37.64121274 -0.29296875 29.6875 C-0.28872391 28.83317383 -0.28447906 27.97884766 -0.28010559 27.09863281 C-0.26345703 24.39875318 -0.22583223 21.69964989 -0.1875 19 C-0.17243523 17.15756295 -0.15874998 15.31511407 -0.14648438 13.47265625 C-0.11359906 8.98147661 -0.06191456 4.49086944 0 0 Z " fill="#000000" transform="translate(107,435)"/>
<path d="M0 0 C-3.76334491 8.6846421 -12.58930264 13.38928252 -20.921875 16.92578125 C-25.19512303 18.41707974 -27.521747 18.83492853 -32 18 C-33.19166201 17.20281921 -34.35690307 16.3653814 -35.5 15.5 C-41.46054496 11.34065352 -49.09028564 12.19218371 -56 13 C-59.24835566 14.11258665 -61.54326757 15.54326757 -64 18 C-72.23728809 19.29212362 -79.22406057 15.35431108 -86 11 C-89.59275479 8.2425607 -92.99609998 5.39842145 -96 2 C-96 1.34 -96 0.68 -96 0 C-69.69569999 -6.12967477 -25.39368506 -12.69684253 0 0 Z " fill="#FAC900" transform="translate(497,199)"/>
<path d="M0 0 C2.44787437 1.39073093 4.29413104 2.94039973 6.03515625 5.15625 C4.05515625 8.12625 2.07515625 11.09625 0.03515625 14.15625 C-3.96484375 13.15625 -3.96484375 13.15625 -6.65234375 11.59375 C-10.8292291 9.78113937 -14.46438073 9.66356773 -18.96484375 10.15625 C-20.26117996 11.22270115 -20.26117996 11.22270115 -20.02734375 13.71875 C-20.00671875 14.523125 -19.98609375 15.3275 -19.96484375 16.15625 C-18.80726563 16.54296875 -17.6496875 16.9296875 -16.45703125 17.328125 C-14.91781329 17.85371162 -13.37875939 18.37977886 -11.83984375 18.90625 C-11.07929688 19.15890625 -10.31875 19.4115625 -9.53515625 19.671875 C-3.62753128 21.70898706 1.95207165 24.21356864 6.03515625 29.15625 C7.74358167 34.28152627 7.96702553 40.08557231 6.38671875 45.29296875 C3.49877524 50.98246429 -1.11586354 53.20658993 -6.96484375 55.15625 C-18.24213106 56.04882068 -27.10994151 54.27867137 -35.96484375 47.15625 C-35.37200754 43.76432637 -34.19741186 41.9454743 -31.90234375 39.40625 C-31.08056641 38.48585938 -31.08056641 38.48585938 -30.2421875 37.546875 C-29.82066406 37.08796875 -29.39914062 36.6290625 -28.96484375 36.15625 C-28.15080078 36.68025391 -28.15080078 36.68025391 -27.3203125 37.21484375 C-26.60488281 37.66988281 -25.88945312 38.12492187 -25.15234375 38.59375 C-24.44464844 39.04621094 -23.73695313 39.49867188 -23.0078125 39.96484375 C-19.74374857 41.86836096 -17.10805327 42.29345992 -13.40234375 42.28125 C-12.22478516 42.28511719 -12.22478516 42.28511719 -11.0234375 42.2890625 C-8.90045398 42.28601366 -8.90045398 42.28601366 -6.96484375 41.15625 C-6.96484375 39.50625 -6.96484375 37.85625 -6.96484375 36.15625 C-8.40133459 35.57043595 -9.839122 34.98780156 -11.27734375 34.40625 C-12.18484375 34.03886719 -13.09234375 33.67148437 -14.02734375 33.29296875 C-16.91898792 32.17399474 -19.83596604 31.19787709 -22.77734375 30.21875 C-27.36625901 28.57011566 -29.99183112 27.02116642 -32.96484375 23.15625 C-34.97263585 17.13287369 -35.01437828 10.41678591 -32.33984375 4.65625 C-23.48580606 -4.66378967 -11.36915167 -5.17619914 0 0 Z " fill="#000000" transform="translate(483.96484375,436.84375)"/>
<path d="M0 0 C4.62 0 9.24 0 14 0 C19.01015223 11.42940978 22.97463622 23.19546694 27 35 C29.1458796 31.7811806 30.3190281 28.58231869 31.56640625 24.9609375 C31.80536118 24.27947662 32.0443161 23.59801575 32.29051208 22.89590454 C33.05182466 20.72363762 33.80762184 18.54951054 34.5625 16.375 C35.32141155 14.19351919 36.08154637 12.01249781 36.84519958 9.83267212 C37.31997932 8.47705117 37.79194903 7.12044226 38.26087952 5.76278687 C39.88769245 1.11230755 39.88769245 1.11230755 41 0 C44.59499796 -0.11109388 48.17884273 -0.06145187 51.77514648 -0.02905273 C52.83934814 -0.01946533 53.9035498 -0.00987793 55 0 C51.0152076 11.58692517 46.72207889 23.02293448 42.19360352 34.40795898 C41.16813407 36.98618974 40.14719679 39.56618173 39.12695312 42.14648438 C38.47421099 43.79437094 37.82122585 45.44216126 37.16796875 47.08984375 C36.86384567 47.85739487 36.5597226 48.62494598 36.24638367 49.41575623 C34.11788441 54.76423119 34.11788441 54.76423119 33 57 C29.37 57 25.74 57 22 57 C18.77037442 50.81337957 16.15250616 44.52718653 13.671875 38.0078125 C13.27800598 36.98066132 12.88413696 35.95351013 12.47833252 34.89523315 C11.65284357 32.73950721 10.82936767 30.58300944 10.0078125 28.42578125 C8.74520057 25.11240523 7.47461152 21.80216667 6.203125 18.4921875 C5.4005673 16.3934105 4.59846752 14.29445833 3.796875 12.1953125 C3.41569519 11.20266388 3.03451538 10.21001526 2.64178467 9.18728638 C2.2943219 8.27228363 1.94685913 7.35728088 1.58886719 6.41455078 C1.28116394 5.60817169 0.97346069 4.8017926 0.65643311 3.97097778 C0 2 0 2 0 0 Z " fill="#000000" transform="translate(262,435)"/>
<path d="M0 0 C13.86 0 27.72 0 42 0 C42 3.96 42 7.92 42 12 C32.43 12 22.86 12 13 12 C13 15.63 13 19.26 13 23 C21.25 23 29.5 23 38 23 C38 26.96 38 30.92 38 35 C29.75 35 21.5 35 13 35 C13 41.93 13 48.86 13 56 C8.71 56 4.42 56 0 56 C0 37.52 0 19.04 0 0 Z " fill="#000000" transform="translate(749,435)"/>
<path d="M0 0 C4.98256447 4.44390885 7.58837222 8.29534994 8.3203125 14.8828125 C8.62121159 23.20768734 6.96662818 30.25782402 4 38 C3.72285156 38.72832031 3.44570313 39.45664062 3.16015625 40.20703125 C-3.41077438 55.07489733 -17.73124659 64.79858652 -30.50390625 73.9921875 C-33.74808189 76.60174349 -35.68899367 78.43309787 -36.51171875 82.578125 C-36.56972656 83.45984375 -36.62773437 84.3415625 -36.6875 85.25 C-36.75324219 86.14203125 -36.81898438 87.0340625 -36.88671875 87.953125 C-36.92410156 88.62859375 -36.96148437 89.3040625 -37 90 C-41.875 87.25 -41.875 87.25 -43 85 C-43.78713877 79.17118759 -43.70922923 74.30301404 -40.5 69.25 C-35.59747353 62.83900385 -30.29361223 58.54998903 -23.0625 55 C-18.71979829 52.77081976 -18.71979829 52.77081976 -16.4375 48.4375 C-17.03760416 44.7701968 -17.24660592 44.38678843 -19.9375 42.1875 C-20.948125 41.465625 -21.95875 40.74375 -23 40 C-23 39.34 -23 38.68 -23 38 C-21.00715862 36.6559907 -19.00580329 35.32458708 -17 34 C-6.72292263 25.0075573 -2.56705847 13.04921387 0 0 Z " fill="#D0001B" transform="translate(533,247)"/>
<path d="M0 0 C5.0600975 -1.16771481 10.13324303 -2.19141475 15 0 C19.61393725 4.8082484 22.37878696 11.13485325 25.11474609 17.14233398 C25.85888142 18.97026163 25.85888142 18.97026163 27 20 C27.32798584 19.42967041 27.65597168 18.85934082 27.99389648 18.27172852 C29.47346439 15.70104158 30.95544882 13.13175601 32.4375 10.5625 C32.95376953 9.66466797 33.47003906 8.76683594 34.00195312 7.84179688 C34.74155273 6.56079102 34.74155273 6.56079102 35.49609375 5.25390625 C35.95169678 4.46314697 36.4072998 3.6723877 36.87670898 2.85766602 C38 1 38 1 39 0 C41.53049402 -0.07313567 44.03304837 -0.09247527 46.5625 -0.0625 C47.62887695 -0.05573242 47.62887695 -0.05573242 48.71679688 -0.04882812 C50.47790013 -0.03700864 52.23896036 -0.01907263 54 0 C51.10752384 5.60697437 48.1280346 10.98809035 44.38671875 16.078125 C34.71636 29.43730934 31.94457525 39.56552885 33 56 C28.71 56 24.42 56 20 56 C20.07863281 54.58332031 20.15726563 53.16664063 20.23828125 51.70703125 C20.61010296 36.20461631 16.6935507 26.85431974 7.69775391 14.41552734 C0 3.46333046 0 3.46333046 0 0 Z " fill="#000000" transform="translate(588,435)"/>
<path d="M0 0 C0.33 0 0.66 0 1 0 C1.32871094 1.54107422 1.32871094 1.54107422 1.6640625 3.11328125 C5.12319312 18.52739107 10.84484472 29.79465561 24 39 C22 41 20 43 18 45 C17.687479 48.12520995 17.58373477 49.28142191 19 52 C21.80574417 54.01055741 24.73648102 55.56362321 27.78125 57.1875 C34.98576106 61.24440914 41.70109598 66.77640374 44 75 C44.59881816 79.70499979 44.75877621 83.95848071 42 88 C39.875 88.75 39.875 88.75 38 89 C37.98582031 88.41992188 37.97164063 87.83984375 37.95703125 87.2421875 C37.90933594 86.46101563 37.86164063 85.67984375 37.8125 84.875 C37.76029297 83.72644531 37.76029297 83.72644531 37.70703125 82.5546875 C35.96845082 76.27274493 30.61471749 72.75005139 25.4375 69.3125 C9.80902686 58.44948423 -3.45191822 45.58541142 -7 26 C-7.89742463 16.85879102 -7.27597077 9.62489991 -1.875 2 C-1.25625 1.34 -0.6375 0.68 0 0 Z " fill="#D1001B" transform="translate(364,247)"/>
<path d="M0 0 C15.18 0 30.36 0 46 0 C46 3.96 46 7.92 46 12 C40.39 12 34.78 12 29 12 C29 26.52 29 41.04 29 56 C25.04 56 21.08 56 17 56 C17 41.48 17 26.96 17 12 C11.39 12 5.78 12 0 12 C0 8.04 0 4.08 0 0 Z " fill="#000000" transform="translate(533,435)"/>
<path d="M0 0 C4.29 0 8.58 0 13 0 C13 18.48 13 36.96 13 56 C8.71 56 4.42 56 0 56 C0 37.52 0 19.04 0 0 Z " fill="#000000" transform="translate(507,435)"/>
<path d="M0 0 C3.96 0 7.92 0 12 0 C12 18.48 12 36.96 12 56 C8.04 56 4.08 56 0 56 C0 37.52 0 19.04 0 0 Z " fill="#000000" transform="translate(237,435)"/>
<path d="M0 0 C2.5 0.9375 2.5 0.9375 4.3125 3 C6.84719083 5.24501188 7.39836011 5.16009943 10.63671875 5.05859375 C11.91160156 5.01863281 13.18648437 4.97867188 14.5 4.9375 C14.55793591 9.37494539 14.59357467 13.81229389 14.625 18.25 C14.64175781 19.51263672 14.65851562 20.77527344 14.67578125 22.07617188 C14.68222656 23.28466797 14.68867187 24.49316406 14.6953125 25.73828125 C14.70578613 26.85372314 14.71625977 27.96916504 14.72705078 29.1184082 C14.5 31.9375 14.5 31.9375 12.5 34.9375 C10.1875 35.375 10.1875 35.375 7.5 34.9375 C6.7575 34.2775 6.015 33.6175 5.25 32.9375 C2.20592286 30.72362572 1.43185475 30.70842116 -2.171875 30.8125 C-2.98237305 30.83054688 -3.79287109 30.84859375 -4.62792969 30.8671875 C-5.24571289 30.89039063 -5.86349609 30.91359375 -6.5 30.9375 C-6.59895097 27.00495992 -6.6715042 23.07290254 -6.71972656 19.1394043 C-6.74971281 17.14410986 -6.80053786 15.14916418 -6.8515625 13.15429688 C-6.87089844 11.27387695 -6.87089844 11.27387695 -6.890625 9.35546875 C-6.91157227 8.19813232 -6.93251953 7.0407959 -6.95410156 5.84838867 C-6.5 2.9375 -6.5 2.9375 -4.63183594 1.0324707 C-2.5 -0.0625 -2.5 -0.0625 0 0 Z " fill="#F8C700" transform="translate(519.5,134.0625)"/>
<path d="M0 0 C2.3125 0.9375 2.3125 0.9375 5.3125 2.9375 C5.65307617 5.73486328 5.65307617 5.73486328 5.60546875 9.2578125 C5.59580078 10.51464844 5.58613281 11.77148438 5.57617188 13.06640625 C5.55103516 14.38511719 5.52589844 15.70382813 5.5 17.0625 C5.48495483 18.40232903 5.47126613 19.74217404 5.45898438 21.08203125 C5.42352872 24.36758842 5.37410849 27.65234582 5.3125 30.9375 C4.62325439 30.91357178 3.93400879 30.88964355 3.22387695 30.86499023 C2.32113037 30.84637939 1.41838379 30.82776855 0.48828125 30.80859375 C-0.40721436 30.78466553 -1.30270996 30.7607373 -2.2253418 30.73608398 C-5.63077306 31.01466413 -7.18771892 32.72340819 -9.6875 34.9375 C-13.98018293 34.64481707 -13.98018293 34.64481707 -15.6875 32.9375 C-15.77517112 30.86487924 -15.79445873 28.78929706 -15.78515625 26.71484375 C-15.78193359 25.45478516 -15.77871094 24.19472656 -15.77539062 22.89648438 C-15.76703403 21.55598891 -15.75856907 20.21549412 -15.75 18.875 C-15.7449866 17.53060058 -15.74042342 16.1861994 -15.73632812 14.84179688 C-15.72449488 11.54032059 -15.70800971 8.23893197 -15.6875 4.9375 C-14.59695313 4.99035156 -13.50640625 5.04320312 -12.3828125 5.09765625 C-8.85473626 5.24694641 -8.85473626 5.24694641 -6.8671875 3.80859375 C-6.43664062 3.33550781 -6.00609375 2.86242187 -5.5625 2.375 C-2.6875 -0.0625 -2.6875 -0.0625 0 0 Z " fill="#F8C800" transform="translate(379.6875,134.0625)"/>
<path d="M0 0 C2.5625 0.9375 2.5625 0.9375 4.9375 3 C8.31972658 5.49640533 10.45281719 5.08668052 14.5625 4.9375 C14.61189662 8.88846978 14.64821755 12.8393203 14.67236328 16.79052734 C14.68738107 18.7966136 14.71278981 20.80261324 14.73828125 22.80859375 C14.74472656 24.06542969 14.75117188 25.32226562 14.7578125 26.6171875 C14.76828613 27.77976074 14.77875977 28.94233398 14.78955078 30.14013672 C14.5625 32.9375 14.5625 32.9375 12.5625 34.9375 C9.63797802 34.70661669 7.99107629 34.29677459 5.7265625 32.3984375 C3.04384316 30.58735982 1.51166964 30.62371699 -1.6875 30.75 C-2.57953125 30.77707031 -3.4715625 30.80414063 -4.390625 30.83203125 C-5.40382813 30.88423828 -5.40382813 30.88423828 -6.4375 30.9375 C-6.53645097 27.00495992 -6.6090042 23.07290254 -6.65722656 19.1394043 C-6.68721281 17.14410986 -6.73803786 15.14916418 -6.7890625 13.15429688 C-6.80839844 11.27387695 -6.80839844 11.27387695 -6.828125 9.35546875 C-6.84907227 8.19813232 -6.87001953 7.0407959 -6.89160156 5.84838867 C-6.4375 2.9375 -6.4375 2.9375 -4.56542969 1.0324707 C-2.4375 -0.0625 -2.4375 -0.0625 0 0 Z " fill="#F9C800" transform="translate(395.4375,134.0625)"/>
<path d="M0 0 C3.39154295 0.16150205 4.58296757 0.58296757 7 3 C7.22705078 5.79736328 7.22705078 5.79736328 7.1953125 9.3203125 C7.18886719 10.57714844 7.18242187 11.83398438 7.17578125 13.12890625 C7.15902344 14.44761719 7.14226562 15.76632813 7.125 17.125 C7.11496983 18.46483721 7.10584404 19.80468152 7.09765625 21.14453125 C7.07402075 24.42986573 7.04107234 27.71484465 7 31 C6.3822168 30.97607178 5.76443359 30.95214355 5.12792969 30.92749023 C4.31743164 30.90887939 3.50693359 30.89026855 2.671875 30.87109375 C1.8684668 30.84716553 1.06505859 30.8232373 0.23730469 30.79858398 C-3.00210921 31.09021607 -4.59403838 32.92819971 -7 35 C-11.29268293 34.70731707 -11.29268293 34.70731707 -13 33 C-13.08758003 31.00035018 -13.10696576 28.9976389 -13.09765625 26.99609375 C-13.09443359 25.78115234 -13.09121094 24.56621094 -13.08789062 23.31445312 C-13.07951172 22.03505859 -13.07113281 20.75566406 -13.0625 19.4375 C-13.05798828 18.15423828 -13.05347656 16.87097656 -13.04882812 15.54882812 C-13.03699545 12.36583978 -13.02051068 9.18294238 -13 6 C-12.06462402 5.82150513 -12.06462402 5.82150513 -11.11035156 5.6394043 C-10.2953418 5.47351807 -9.48033203 5.30763184 -8.640625 5.13671875 C-7.83141602 4.97647217 -7.02220703 4.81622559 -6.18847656 4.65112305 C-3.33803691 3.80305047 -2.03128571 2.10383163 0 0 Z " fill="#FDCB00" transform="translate(501,134)"/>
<path d="M0 0 C0.99 0.33 1.98 0.66 3 1 C4.14803128 13.34133627 -2.07528998 24.74781958 -9.65625 34.02734375 C-14.83041669 39.60421681 -22.69721872 45.68707045 -30.4375 46.25 C-34 46 -34 46 -35.9375 44.875 C-37.54125059 42.04485189 -37.53083754 40.18502524 -37 37 C-33.78400132 34.78010711 -30.29532858 33.13442005 -26.8125 31.375 C-13.43401516 24.07272728 -6.33989605 13.43721332 0 0 Z " fill="#F6C600" transform="translate(511,185)"/>
<path d="M0 0 C3 1 3 1 4.5078125 3.80859375 C5.04148437 5.00613281 5.57515625 6.20367187 6.125 7.4375 C12.55197357 21.03368803 22.56835334 28.64711424 35.93359375 34.921875 C38 36 38 36 40 38 C39.8125 41 39.8125 41 39 44 C36.14173555 45.90550963 34.62257916 46.60887178 31.22265625 46.5078125 C20.81867476 44.13080443 12.36076851 35.96477411 6.8125 27.25 C2.18607354 19.08571801 -1.09777064 10.50330637 -1 1 C-0.67 0.67 -0.34 0.34 0 0 Z " fill="#F6C600" transform="translate(385,185)"/>
<path d="M0 0 C1.32 0.33 2.64 0.66 4 1 C3.30058404 4.14737182 2.23921302 7.02588876 1 10 C2.30582031 10.11730469 3.61164063 10.23460937 4.95703125 10.35546875 C8.17842806 10.70990424 11.20332027 11.2426505 14.32421875 12.11328125 C24.92187206 15.06780763 31.47891952 14.80957714 42 11 C45.64761582 10.19898873 49.31015614 9.57230231 53 9 C52.68289063 8.38640625 52.36578125 7.7728125 52.0390625 7.140625 C51.04371515 5.09005979 50.47588139 3.22077983 50 1 C51.32 0.67 52.64 0.34 54 0 C57.61139896 3.61139896 57.61139896 3.61139896 59 6 C58.8125 9.875 58.8125 9.875 58 13 C50.94385791 15.2714978 43.84931639 17.40020025 36.6875 19.3125 C36.04296875 19.49586914 35.3984375 19.67923828 34.734375 19.86816406 C28.05477432 21.59953295 22.29875614 20.54020227 15.75 18.625 C10.71373481 17.17601867 5.64786243 15.97479064 0.53125 14.84375 C-2.13339606 13.95553465 -3.30711017 13.21078047 -5 11 C-5.5 8.6875 -5.5 8.6875 -5 6 C-3.49500852 3.78431809 -1.83528767 1.97293424 0 0 Z " fill="#EFC000" transform="translate(422,235)"/>
<path d="M0 0 C3 0.1875 3 0.1875 6 1 C8.35620437 4.53430656 8.48991613 5.83571287 8 10 C6.2344231 13.0603333 4.49412245 15.50587755 2 18 C7.28 18 12.56 18 18 18 C17.01 16.80375 16.02 15.6075 15 14.375 C12.941364 11.61389105 12.03610439 10.18774282 11.375 6.75 C12.15971521 3.29725307 13.06742895 1.98146693 16 0 C20.3 0.3 20.3 0.3 22 2 C22.1875 4.4375 22.1875 4.4375 22 7 C21.34 7.66 20.68 8.32 20 9 C19.01 9 18.02 9 17 9 C17 8.34 17 7.68 17 7 C17.66 7 18.32 7 19 7 C19 6.01 19 5.02 19 4 C18.01 4 17.02 4 16 4 C15.58109782 6.78938212 15.58109782 6.78938212 16 10 C18.46143568 12.9271127 20.82124178 14.88082786 24 17 C24 17.99 24 18.98 24 20 C19.01038875 21.98477405 14.72018525 22.33556849 9.4375 22.3125 C8.3247168 22.33666992 8.3247168 22.33666992 7.18945312 22.36132812 C2.60876524 22.3654071 -0.2106918 21.84385704 -4 19 C-2.6645075 14.99352249 -0.47234113 14.24255364 3 12 C4.35439668 9.29120665 4.06501451 6.99066732 4 4 C3.01 3.67 2.02 3.34 1 3 C1.99 4.98 2.98 6.96 4 9 C-0.875 8.125 -0.875 8.125 -2 7 C-2.1875 4.5625 -2.1875 4.5625 -2 2 C-1.34 1.34 -0.68 0.68 0 0 Z " fill="#ECBD00" transform="translate(439,290)"/>
<path d="M0 0 C2.1960885 6.58826551 -0.55843751 13.49640934 -3.45117188 19.5300293 C-7.0797908 26.77671883 -10.44663774 32.24708585 -17.25 36.8125 C-18.14203125 37.41707031 -19.0340625 38.02164063 -19.953125 38.64453125 C-20.62859375 39.09183594 -21.3040625 39.53914063 -22 40 C-22.66 39.67 -23.32 39.34 -24 39 C-21.70870397 35.21281995 -19.4157343 31.42665956 -17.12133789 27.64135742 C-16.34420626 26.35874566 -15.56749958 25.0758763 -14.79125977 23.79272461 C-9.95537767 15.79960857 -5.05852973 7.85518127 0 0 Z " fill="#EFC000" transform="translate(527,243)"/>
<path d="M0 0 C2.73228657 2.46638945 4.45186468 5.18516158 6.328125 8.33984375 C6.96363281 9.40396484 7.59914063 10.46808594 8.25390625 11.56445312 C8.91261719 12.67755859 9.57132812 13.79066406 10.25 14.9375 C10.89324219 16.01580078 11.53648437 17.09410156 12.19921875 18.20507812 C16.51062121 25.44424382 20.76601544 32.7153458 25 40 C14.43931994 35.90903403 8.67863444 29.04514362 4.0390625 18.8984375 C1.60048595 12.83821262 0 6.53654398 0 0 Z " fill="#F0C100" transform="translate(370,243)"/>
<path d="M0 0 C2.1484375 0.05078125 2.1484375 0.05078125 4.0625 0.4375 C6.26636955 2.84172132 7.0993651 4.22095182 7 7.5 C5.71791176 10.14964903 4.42234466 11.6676165 2.0625 13.4375 C-1.79877424 13.34096814 -4.04506118 11.90142937 -6.9375 9.4375 C-5.9625 0.6625 -5.9625 0.6625 0 0 Z " fill="#D0A700" transform="translate(448.9375,144.5625)"/>
<path d="M0 0 C1.9375 1 1.9375 1 3 3 C3.23595284 5.71882023 3.13477523 8.25957022 3 11 C1.328125 11.703125 1.328125 11.703125 -1 12 C-3.578125 10.671875 -3.578125 10.671875 -6.25 8.75 C-7.14203125 8.12609375 -8.0340625 7.5021875 -8.953125 6.859375 C-9.62859375 6.24578125 -10.3040625 5.6321875 -11 5 C-11 4.01 -11 3.02 -11 2 C-7.35969312 -0.3297964 -4.24881273 -0.3862557 0 0 Z " fill="#F0C100" transform="translate(443,157)"/>
<path d="M0 0 C3.5 0.75 3.5 0.75 6.5 1.75 C6.42103451 4.51379198 6.03556568 6.21587789 4.05078125 8.1953125 C1.15546504 10.39349184 -0.77307682 11.67266775 -4.4375 12.0625 C-5.4584375 11.9078125 -5.4584375 11.9078125 -6.5 11.75 C-6.58131463 10.31344146 -6.63933559 8.8755517 -6.6875 7.4375 C-6.72230469 6.63699219 -6.75710938 5.83648437 -6.79296875 5.01171875 C-6.5 2.75 -6.5 2.75 -5.20703125 0.94140625 C-3.5 -0.25 -3.5 -0.25 0 0 Z " fill="#F3C400" transform="translate(457.5,157.25)"/>
<path d="M0 0 C1.890625 0.265625 1.890625 0.265625 4 1 C6.43315632 4.88578696 7.42634867 9.45228087 7 14 C3.62305582 14.23560076 1.29756845 14.11643983 -1.875 12.875 C-4 11 -4 11 -4.5625 8.125 C-3.89516381 4.41757673 -2.55326464 2.71284368 0 0 Z " fill="#F3C300" transform="translate(461,140)"/>
<path d="M0 0 C2.59060578 0.35732494 3.84567494 0.8616396 5.8125 2.625 C7.49565719 5.99131438 6.76115885 8.4017945 6 12 C1.545 13.485 1.545 13.485 -3 15 C-3.33 14.67 -3.66 14.34 -4 14 C-3.63176357 8.56851267 -2.75532834 4.79187538 0 0 Z " fill="#F2C300" transform="translate(434,139)"/>
<path d="M0 0 C4.62 0 9.24 0 14 0 C14.33 0.99 14.66 1.98 15 3 C11.33333333 8.66666667 11.33333333 8.66666667 7 9.75 C2.5977328 8.6494332 1.44828579 6.7837144 -1 3 C-0.67 2.01 -0.34 1.02 0 0 Z " fill="#F8C700" transform="translate(442,134)"/>
<path d="M0 0 C1.98 0.66 3.96 1.32 6 2 C6.33 3.98 6.66 5.96 7 8 C8.65 8 10.3 8 12 8 C12.33 6.35 12.66 4.7 13 3 C16.875 4.75 16.875 4.75 18 7 C15.23215917 10.35495858 13.79206173 11.8610418 9.4375 12.625 C6 12 6 12 3.6875 9.75 C0 3.74074074 0 3.74074074 0 0 Z " fill="#E9BB00" transform="translate(422,254)"/>
<path d="M0 0 C1 3 1 3 -0.25 6 C-3.04054054 10.78378378 -3.04054054 10.78378378 -5 12 C-8.6517742 12.5512112 -11.81598598 12.68170504 -15.0625 10.8125 C-16.38135516 8.26271335 -15.7975116 6.68253902 -15 4 C-14.01 3.67 -13.02 3.34 -12 3 C-11.67 4.65 -11.34 6.3 -11 8 C-9.35 8 -7.7 8 -6 8 C-4.98888907 4.95086772 -4.98888907 4.95086772 -6 2 C-4.02 1.34 -2.04 0.68 0 0 Z " fill="#EBBD00" transform="translate(475,254)"/>
<path d="M0 0 C2.125 0.375 2.125 0.375 4 1 C3.67 1.66 3.34 2.32 3 3 C2.34 3 1.68 3 1 3 C1.99 4.98 2.98 6.96 4 9 C-0.875 8.125 -0.875 8.125 -2 7 C-2.1875 4.5625 -2.1875 4.5625 -2 2 C-1.34 1.34 -0.68 0.68 0 0 Z " fill="#D3AA00" transform="translate(439,290)"/>
<path d="M0 0 C4.875 0.875 4.875 0.875 6 2 C6.1875 4.4375 6.1875 4.4375 6 7 C5.34 7.66 4.68 8.32 4 9 C3.01 9 2.02 9 1 9 C1 8.34 1 7.68 1 7 C1.66 7 2.32 7 3 7 C3.33914005 3.99882243 3.33914005 3.99882243 1.5 2.375 C1.005 1.92125 0.51 1.4675 0 1 C0 0.67 0 0.34 0 0 Z " fill="#DEB200" transform="translate(455,290)"/>
<path d="M0 0 C2.375 -0.1875 2.375 -0.1875 5 0 C7 3 7 3 7 7 C6.01 7.33 5.02 7.66 4 8 C3.566875 6.576875 3.566875 6.576875 3.125 5.125 C2.23174891 1.94788422 2.23174891 1.94788422 0 0 Z " fill="#F2C200" transform="translate(440,291)"/>
<path d="M0 0 C1.32 0.33 2.64 0.66 4 1 C4.125 3.875 4.125 3.875 4 7 C3.34 7.66 2.68 8.32 2 9 C2 8.34 2 7.68 2 7 C1.34 6.67 0.68 6.34 0 6 C0.66 5.67 1.32 5.34 2 5 C1.34 4.34 0.68 3.68 0 3 C0 2.01 0 1.02 0 0 Z " fill="#181300" transform="translate(440,293)"/>
<path d="M0 0 C0.33 0.66 0.66 1.32 1 2 C1.8971875 1.6596875 1.8971875 1.6596875 2.8125 1.3125 C3.8953125 1.1578125 3.8953125 1.1578125 5 1 C6.75 2.3125 6.75 2.3125 8 4 C8 4.66 8 5.32 8 6 C4.62537285 5.45276317 2.91765 4.9451 0 3 C0 2.01 0 1.02 0 0 Z " fill="#E3B600" transform="translate(443,152)"/>
<path d="M0 0 C2.0625 0.4375 2.0625 0.4375 4 1 C3.67 1.99 3.34 2.98 3 4 C2.34 4 1.68 4 1 4 C0.67 4.99 0.34 5.98 0 7 C-0.33 7 -0.66 7 -1 7 C-1.04254356 5.00045254 -1.04080783 2.99958364 -1 1 C-0.67 0.67 -0.34 0.34 0 0 Z " fill="#1C1600" transform="translate(455,293)"/>
</svg>
