<?xml version="1.0" encoding="UTF-8"?>
<svg xmlns="http://www.w3.org/2000/svg" xmlns:xlink="http://www.w3.org/1999/xlink" width="293px" height="96px" viewBox="0 0 141 46" version="1.1">
<g id="surface1">
<path style=" stroke:none;fill-rule:nonzero;fill:rgb(100%,100%,100%);fill-opacity:1;" d="M 38.609375 9.964844 C 38.90625 9.738281 38.683594 9.441406 38.460938 9.214844 L 38.3125 9.066406 L 37.714844 9.664062 L 37.863281 9.8125 C 38.085938 10.039062 38.3125 10.265625 38.609375 9.964844 Z M 38.609375 9.964844 "/>
<path style=" stroke:none;fill-rule:nonzero;fill:rgb(100%,100%,100%);fill-opacity:1;" d="M 21.546875 23.75 L 20.652344 23.824219 C 20.128906 23.898438 19.683594 23.898438 19.3125 23.972656 L 18.117188 23.972656 C 18.117188 24.871094 18.117188 31.089844 18.117188 31.914062 L 18.9375 31.914062 C 19.683594 31.914062 20.203125 31.839844 20.652344 31.765625 C 21.097656 31.691406 21.621094 31.691406 22.292969 31.691406 C 22.515625 31.691406 22.664062 31.691406 22.886719 31.765625 L 22.886719 23.898438 C 22.8125 23.898438 22.738281 23.824219 22.664062 23.824219 C 22.292969 23.75 21.917969 23.75 21.546875 23.75 Z M 20.429688 25.023438 C 20.652344 25.023438 20.875 25.023438 21.171875 24.949219 L 21.621094 24.871094 L 21.917969 24.871094 L 21.917969 25.472656 L 21.171875 25.472656 C 20.875 25.472656 20.652344 25.546875 20.429688 25.546875 L 19.085938 25.546875 L 19.085938 24.949219 Z M 21.84375 30.566406 L 21.621094 30.566406 L 21.171875 30.640625 C 20.875 30.640625 20.652344 30.714844 20.429688 30.714844 L 19.085938 30.714844 L 19.085938 30.191406 L 20.355469 30.191406 C 20.578125 30.191406 20.800781 30.191406 21.097656 30.117188 L 21.546875 30.042969 L 21.84375 30.042969 Z M 21.84375 28.84375 L 21.621094 28.84375 L 21.171875 28.917969 C 20.875 28.917969 20.652344 28.992188 20.429688 28.992188 L 19.085938 28.992188 L 19.085938 28.46875 L 20.429688 28.46875 C 20.652344 28.46875 20.875 28.46875 21.097656 28.394531 L 21.546875 28.320312 L 21.84375 28.320312 Z M 21.84375 27.121094 L 21.621094 27.121094 L 21.171875 27.195312 C 20.875 27.195312 20.652344 27.269531 20.429688 27.269531 L 19.085938 27.269531 L 19.085938 26.671875 L 20.429688 26.671875 C 20.652344 26.671875 20.875 26.671875 21.171875 26.597656 L 21.621094 26.519531 L 21.917969 26.519531 Z M 21.84375 27.121094 "/>
<path style=" stroke:none;fill-rule:nonzero;fill:rgb(100%,100%,100%);fill-opacity:1;" d="M 23.335938 1.050781 C 11.261719 1.050781 1.503906 10.863281 1.503906 23 C 1.503906 35.136719 11.261719 44.949219 23.261719 44.949219 C 35.257812 44.949219 45.089844 35.136719 45.089844 23.074219 C 45.089844 10.863281 35.332031 1.125 23.335938 1.050781 Z M 44.199219 21.277344 L 42.929688 22.101562 L 44.273438 22.773438 L 44.273438 23.449219 L 42.335938 22.476562 L 41.140625 22.476562 L 41.140625 21.875 L 42.335938 21.800781 L 44.121094 20.601562 Z M 43.378906 16.855469 L 43.972656 19.179688 L 43.527344 19.328125 L 43.304688 18.503906 L 40.695312 19.03125 L 40.546875 18.429688 L 43.078125 17.832031 L 42.855469 17.007812 Z M 42.78125 15.359375 L 39.949219 16.480469 L 39.726562 15.882812 L 42.558594 14.683594 Z M 40.023438 11.910156 C 40.472656 11.613281 41.066406 11.761719 41.292969 12.210938 C 41.292969 12.285156 41.367188 12.285156 41.367188 12.363281 C 41.515625 12.585938 41.589844 12.8125 41.664062 13.035156 L 41.21875 13.261719 C 41.21875 13.035156 41.140625 12.8125 40.992188 12.660156 C 40.917969 12.4375 40.621094 12.363281 40.472656 12.4375 C 40.472656 12.4375 40.472656 12.4375 40.398438 12.4375 C 39.949219 12.660156 40.769531 13.710938 39.949219 14.234375 C 39.503906 14.535156 38.90625 14.308594 38.609375 13.859375 C 38.609375 13.785156 38.535156 13.785156 38.535156 13.710938 C 38.386719 13.484375 38.3125 13.261719 38.238281 12.960938 L 38.683594 12.734375 C 38.683594 12.960938 38.757812 13.1875 38.832031 13.410156 C 38.90625 13.636719 39.207031 13.785156 39.429688 13.710938 C 40.023438 13.410156 39.207031 12.363281 40.023438 11.910156 Z M 38.757812 8.839844 C 39.207031 9.363281 39.726562 9.890625 39.054688 10.488281 C 38.757812 10.714844 38.386719 10.714844 38.085938 10.488281 C 38.160156 10.636719 38.160156 10.789062 38.085938 10.9375 L 37.492188 12.136719 L 37.042969 11.613281 L 37.566406 10.714844 C 37.714844 10.5625 37.714844 10.339844 37.566406 10.1875 L 37.417969 10.039062 L 36.449219 10.863281 L 36.074219 10.414062 L 38.386719 8.390625 Z M 36.894531 6.96875 L 36.597656 7.34375 L 35.703125 6.59375 L 35.257812 7.191406 L 36.074219 7.867188 L 35.777344 8.242188 L 34.957031 7.566406 L 34.363281 8.242188 L 35.332031 8.988281 L 35.03125 9.363281 L 33.617188 8.242188 L 35.480469 5.84375 Z M 31.53125 3.597656 L 32.125 3.894531 L 31.753906 6.441406 L 33.542969 4.644531 L 33.988281 4.871094 L 31.753906 7.191406 L 31.007812 6.816406 Z M 29.371094 2.847656 L 29.890625 2.996094 L 28.996094 5.992188 L 28.402344 5.84375 Z M 24.972656 2.023438 L 25.71875 2.097656 L 26.539062 4.570312 L 26.910156 2.246094 L 27.507812 2.324219 L 27.058594 5.394531 L 26.316406 5.320312 L 25.496094 2.847656 L 25.195312 5.167969 L 24.601562 5.09375 Z M 21.023438 2.097656 L 21.171875 3.894531 C 21.246094 4.421875 21.398438 4.71875 21.84375 4.71875 C 22.292969 4.71875 22.441406 4.34375 22.441406 3.820312 L 22.292969 2.023438 L 22.886719 1.949219 L 23.035156 3.894531 C 23.183594 4.496094 22.8125 5.019531 22.214844 5.167969 C 22.140625 5.167969 21.992188 5.167969 21.917969 5.167969 C 21.324219 5.320312 20.800781 4.945312 20.652344 4.421875 C 20.652344 4.34375 20.652344 4.195312 20.652344 4.121094 L 20.503906 2.171875 Z M 16.105469 3.296875 L 17 5.769531 L 18.117188 5.394531 L 18.265625 5.84375 L 16.554688 6.441406 L 15.511719 3.519531 Z M 12.976562 4.792969 L 14.242188 7.042969 L 15.285156 6.441406 L 15.511719 6.890625 L 13.871094 7.792969 L 12.382812 5.09375 Z M 10.816406 6.144531 L 11.113281 6.519531 L 10.144531 7.265625 L 10.59375 7.867188 L 11.414062 7.191406 L 11.710938 7.566406 L 10.890625 8.242188 L 11.414062 8.914062 L 12.304688 8.167969 L 12.605469 8.539062 L 11.339844 9.738281 L 9.402344 7.265625 Z M 6.71875 10.113281 L 9.25 10.714844 L 7.464844 9.214844 L 7.835938 8.765625 L 10.21875 10.714844 L 9.773438 11.238281 L 7.238281 10.636719 L 9.027344 12.136719 L 8.65625 12.660156 L 6.269531 10.714844 Z M 4.484375 13.636719 C 4.78125 13.035156 5.152344 12.363281 5.898438 12.734375 C 6.195312 12.886719 6.34375 13.261719 6.195312 13.636719 C 6.34375 13.484375 6.496094 13.484375 6.71875 13.484375 L 7.984375 13.636719 L 7.6875 14.234375 L 6.644531 14.085938 C 6.421875 14.011719 6.269531 14.085938 6.195312 14.308594 L 6.121094 14.460938 L 7.164062 15.132812 L 6.867188 15.65625 L 4.183594 14.234375 Z M 2.992188 17.382812 C 3.214844 16.632812 3.960938 16.183594 4.707031 16.332031 C 4.78125 16.332031 4.855469 16.40625 4.929688 16.40625 C 5.75 16.558594 6.269531 17.382812 6.046875 18.207031 C 5.898438 19.03125 5.078125 19.554688 4.257812 19.328125 C 4.183594 19.328125 4.109375 19.328125 4.109375 19.253906 C 3.363281 19.179688 2.769531 18.429688 2.917969 17.679688 C 2.917969 17.605469 2.917969 17.457031 2.992188 17.382812 Z M 2.246094 21.277344 C 2.246094 21.050781 2.320312 20.828125 2.398438 20.601562 L 2.917969 20.675781 C 2.769531 20.828125 2.695312 21.050781 2.695312 21.277344 C 2.621094 21.875 3.066406 22.324219 3.664062 22.402344 C 3.664062 22.402344 3.738281 22.402344 3.738281 22.402344 C 4.332031 22.476562 4.855469 22.101562 4.929688 21.5 C 4.929688 21.5 4.929688 21.425781 4.929688 21.425781 C 4.929688 21.203125 4.929688 20.976562 4.855469 20.753906 L 5.378906 20.753906 C 5.453125 20.976562 5.453125 21.203125 5.453125 21.425781 C 5.527344 22.25 4.855469 22.925781 4.035156 23 C 3.960938 23 3.886719 23 3.8125 23 C 2.992188 23.074219 2.320312 22.402344 2.246094 21.578125 C 2.246094 21.5 2.246094 21.425781 2.246094 21.277344 Z M 2.917969 27.945312 L 5.898438 27.046875 L 6.34375 28.695312 L 5.898438 28.84375 L 5.601562 27.792969 L 4.855469 28.019531 L 5.152344 28.992188 L 4.632812 29.21875 L 4.332031 28.246094 L 3.066406 28.617188 Z M 4.410156 32.363281 C 4.035156 31.691406 4.257812 30.792969 4.929688 30.417969 C 5.003906 30.34375 5.078125 30.34375 5.152344 30.34375 C 5.824219 29.816406 6.71875 30.042969 7.164062 30.714844 C 7.238281 30.792969 7.238281 30.867188 7.238281 30.941406 C 7.613281 31.617188 7.390625 32.515625 6.71875 32.890625 C 6.644531 32.890625 6.570312 32.964844 6.496094 32.964844 C 5.824219 33.414062 4.929688 33.1875 4.484375 32.515625 C 4.484375 32.441406 4.484375 32.441406 4.410156 32.363281 Z M 6.941406 36.335938 C 6.496094 35.960938 6.421875 35.285156 6.867188 34.835938 C 6.941406 34.761719 7.015625 34.6875 7.089844 34.613281 L 8.65625 33.414062 L 9.027344 33.9375 L 7.613281 35.0625 C 7.164062 35.363281 7.015625 35.734375 7.3125 36.109375 C 7.613281 36.484375 7.984375 36.410156 8.359375 36.109375 L 9.773438 34.988281 L 10.144531 35.511719 L 8.65625 36.710938 C 8.207031 37.160156 7.539062 37.160156 7.164062 36.710938 C 7.089844 36.558594 7.015625 36.410156 6.941406 36.335938 Z M 10.519531 39.855469 L 11.039062 37.308594 L 9.550781 39.109375 L 9.101562 38.734375 L 11.039062 36.335938 L 11.636719 36.785156 L 11.113281 39.332031 L 12.605469 37.535156 L 13.050781 37.910156 L 11.113281 40.304688 Z M 15.882812 41.28125 C 15.363281 42.402344 14.46875 42.253906 13.648438 41.878906 L 12.902344 41.503906 L 14.320312 38.734375 L 15.0625 39.109375 C 15.808594 39.558594 16.480469 40.15625 15.882812 41.28125 Z M 19.460938 41.28125 L 18.34375 40.980469 L 18.117188 41.730469 L 19.160156 41.953125 L 19.011719 42.402344 L 17.96875 42.105469 L 17.746094 42.929688 L 18.9375 43.226562 L 18.789062 43.675781 L 17 43.226562 L 17.820312 40.230469 L 19.609375 40.679688 Z M 21.621094 44.203125 L 20.800781 44.128906 L 20.949219 41.054688 L 21.769531 41.128906 C 22.738281 41.207031 23.558594 41.578125 23.484375 42.777344 C 23.410156 43.976562 22.515625 44.203125 21.621094 44.203125 Z M 28.402344 43.601562 L 28.027344 42.929688 L 26.835938 43.152344 L 26.6875 43.902344 L 26.089844 44.050781 L 26.539062 40.753906 L 27.207031 40.605469 L 29.070312 43.378906 Z M 29.964844 43.078125 L 29.742188 42.480469 L 30.339844 42.253906 L 30.5625 42.851562 Z M 32.722656 41.878906 L 31.976562 42.253906 L 30.488281 39.558594 L 31.234375 39.183594 C 32.050781 38.734375 32.945312 38.582031 33.542969 39.707031 C 34.136719 40.832031 33.542969 41.429688 32.722656 41.878906 Z M 34.808594 40.679688 L 34.4375 40.15625 L 34.957031 39.78125 L 35.332031 40.304688 Z M 23.335938 40.230469 C 13.871094 40.230469 6.195312 32.515625 6.195312 23 C 6.195312 13.484375 13.871094 5.769531 23.335938 5.769531 C 32.796875 5.769531 40.472656 13.484375 40.472656 23 C 40.398438 32.515625 32.796875 40.230469 23.335938 40.230469 Z M 37.863281 38.132812 L 36.226562 36.410156 L 36.148438 37.085938 L 35.628906 37.011719 L 35.777344 35.886719 L 36.148438 35.511719 L 38.3125 37.683594 Z M 40.097656 35.585938 C 39.875 36.035156 39.355469 36.261719 38.90625 36.035156 C 38.832031 36.035156 38.832031 35.960938 38.757812 35.960938 C 38.460938 35.734375 38.3125 35.363281 38.460938 35.0625 C 38.160156 35.210938 37.863281 35.210938 37.566406 35.0625 C 37.195312 34.761719 37.117188 34.238281 37.417969 33.863281 C 37.417969 33.863281 37.492188 33.789062 37.492188 33.789062 C 37.714844 33.339844 38.238281 33.1875 38.609375 33.339844 C 38.609375 33.339844 38.683594 33.339844 38.683594 33.339844 C 38.90625 33.5625 39.054688 33.863281 38.980469 34.164062 C 39.28125 33.9375 39.652344 33.9375 39.949219 34.164062 C 40.324219 34.460938 40.472656 34.988281 40.175781 35.4375 C 40.175781 35.511719 40.175781 35.511719 40.097656 35.585938 Z M 42.109375 32.363281 C 41.738281 33.113281 40.992188 32.964844 40.398438 32.664062 C 39.800781 32.363281 38.980469 31.617188 39.429688 30.714844 C 39.503906 30.492188 39.652344 30.34375 39.800781 30.191406 L 40.175781 30.492188 C 40.023438 30.640625 39.875 30.714844 39.800781 30.941406 C 39.652344 31.390625 39.875 31.839844 40.324219 31.988281 C 40.175781 31.765625 40.175781 31.539062 40.324219 31.316406 C 40.472656 30.867188 40.992188 30.640625 41.441406 30.867188 C 41.515625 30.867188 41.515625 30.941406 41.589844 30.941406 C 42.109375 31.089844 42.410156 31.691406 42.1875 32.140625 C 42.1875 32.214844 42.109375 32.289062 42.109375 32.363281 Z M 43.378906 29.070312 C 43.304688 29.292969 43.230469 29.519531 43.078125 29.742188 L 42.558594 29.59375 C 42.707031 29.441406 42.855469 29.21875 42.929688 28.992188 C 43.078125 28.695312 42.929688 28.394531 42.632812 28.246094 C 42.632812 28.246094 42.632812 28.246094 42.558594 28.246094 C 42.261719 28.167969 41.886719 28.320312 41.8125 28.617188 C 41.8125 28.617188 41.8125 28.695312 41.8125 28.769531 C 41.738281 28.917969 41.738281 29.144531 41.738281 29.292969 L 40.175781 28.769531 L 40.695312 27.046875 L 41.140625 27.195312 L 40.769531 28.320312 L 41.441406 28.542969 C 41.441406 28.46875 41.441406 28.394531 41.515625 28.246094 C 41.589844 27.71875 42.109375 27.421875 42.632812 27.496094 C 42.707031 27.496094 42.707031 27.496094 42.78125 27.570312 C 43.304688 27.71875 43.675781 28.320312 43.527344 28.84375 C 43.453125 28.917969 43.453125 28.992188 43.378906 29.070312 Z M 43.378906 29.070312 "/>
<path style=" stroke:none;fill-rule:nonzero;fill:rgb(100%,100%,100%);fill-opacity:1;" d="M 13.5 26.070312 C 13.5 32.363281 20.578125 36.484375 22.8125 37.683594 L 22.8125 33.265625 C 22.738281 33.1875 22.664062 33.113281 22.589844 33.039062 C 22.515625 32.890625 22.367188 32.8125 22.214844 32.8125 C 21.695312 32.8125 21.171875 32.8125 20.726562 32.890625 C 20.28125 32.964844 19.683594 32.964844 18.9375 33.039062 C 18.191406 33.113281 17.597656 33.039062 17.523438 33.039062 L 17 33.039062 L 17 31.316406 L 15.957031 31.316406 L 15.957031 29.96875 L 17 29.96875 L 17 28.617188 L 15.957031 28.617188 L 15.957031 27.34375 L 17 27.34375 L 17 25.695312 L 15.957031 25.695312 L 15.957031 24.421875 L 17 24.421875 L 17 23 L 19.234375 23 C 19.609375 23 20.054688 22.925781 20.503906 22.925781 L 21.398438 22.851562 C 21.84375 22.773438 22.292969 22.851562 22.738281 22.925781 L 22.738281 21.578125 L 13.5 21.578125 C 13.5 23.972656 13.5 26.070312 13.5 26.070312 Z M 13.5 26.070312 "/>
<path style=" stroke:none;fill-rule:nonzero;fill:rgb(100%,100%,100%);fill-opacity:1;" d="M 4.257812 18.65625 C 4.707031 18.878906 5.226562 18.804688 5.453125 18.355469 C 5.675781 17.90625 5.601562 17.382812 5.152344 17.15625 C 5.003906 17.082031 4.855469 17.007812 4.707031 17.007812 C 4.257812 16.78125 3.664062 17.007812 3.441406 17.457031 C 3.441406 17.457031 3.441406 17.53125 3.441406 17.53125 C 3.363281 18.054688 3.664062 18.578125 4.257812 18.65625 C 4.183594 18.65625 4.257812 18.65625 4.257812 18.65625 Z M 4.257812 18.65625 "/>
<path style=" stroke:none;fill-rule:nonzero;fill:rgb(100%,100%,100%);fill-opacity:1;" d="M 5.527344 30.867188 C 5.003906 31.015625 4.707031 31.539062 4.855469 32.066406 C 4.855469 32.066406 4.855469 32.140625 4.855469 32.140625 C 5.152344 32.589844 5.675781 32.738281 6.121094 32.515625 C 6.121094 32.515625 6.195312 32.515625 6.195312 32.441406 C 6.71875 32.289062 7.015625 31.765625 6.792969 31.242188 C 6.792969 31.242188 6.792969 31.167969 6.792969 31.167969 C 6.570312 30.714844 5.972656 30.566406 5.527344 30.867188 Z M 5.527344 30.867188 "/>
<path style=" stroke:none;fill-rule:nonzero;fill:rgb(100%,100%,100%);fill-opacity:1;" d="M 14.914062 39.558594 L 14.617188 39.40625 L 13.648438 41.28125 L 13.945312 41.429688 C 14.46875 41.65625 15.136719 41.355469 15.285156 40.753906 C 15.511719 40.382812 15.285156 39.855469 14.914062 39.558594 Z M 14.914062 39.558594 "/>
<path style=" stroke:none;fill-rule:nonzero;fill:rgb(100%,100%,100%);fill-opacity:1;" d="M 5.675781 13.335938 C 5.378906 13.1875 5.152344 13.410156 5.003906 13.710938 L 4.929688 13.859375 L 5.675781 14.234375 L 5.75 14.085938 C 5.898438 13.859375 5.972656 13.484375 5.675781 13.335938 Z M 5.675781 13.335938 "/>
<path style=" stroke:none;fill-rule:nonzero;fill:rgb(100%,100%,100%);fill-opacity:1;" d="M 31.605469 39.558594 L 31.308594 39.707031 L 32.277344 41.578125 L 32.574219 41.429688 C 33.09375 41.128906 33.320312 40.53125 33.019531 40.007812 C 32.796875 39.480469 32.125 39.257812 31.605469 39.558594 Z M 31.605469 39.558594 "/>
<path style=" stroke:none;fill-rule:nonzero;fill:rgb(100%,100%,100%);fill-opacity:1;" d="M 27.058594 41.355469 L 26.835938 42.703125 L 27.730469 42.480469 Z M 27.058594 41.355469 "/>
<path style=" stroke:none;fill-rule:nonzero;fill:rgb(100%,100%,100%);fill-opacity:1;" d="M 21.84375 41.578125 L 21.472656 41.578125 L 21.324219 43.675781 L 21.695312 43.675781 C 22.292969 43.675781 22.738281 43.152344 22.738281 42.554688 C 22.738281 42.03125 22.367188 41.65625 21.84375 41.578125 Z M 21.84375 41.578125 "/>
<path style=" stroke:none;fill-rule:nonzero;fill:rgb(100%,100%,100%);fill-opacity:1;" d="M 37.9375 33.9375 C 37.789062 34.089844 37.789062 34.3125 37.9375 34.539062 C 38.160156 34.613281 38.460938 34.613281 38.609375 34.386719 C 38.683594 34.164062 38.609375 34.011719 38.460938 33.863281 C 38.3125 33.714844 38.085938 33.789062 37.9375 33.9375 Z M 37.9375 33.9375 "/>
<path style=" stroke:none;fill-rule:nonzero;fill:rgb(100%,100%,100%);fill-opacity:1;" d="M 41.367188 31.539062 C 41.140625 31.390625 40.84375 31.390625 40.695312 31.617188 C 40.621094 31.839844 40.695312 32.140625 40.992188 32.214844 C 40.992188 32.214844 41.066406 32.214844 41.066406 32.214844 C 41.292969 32.363281 41.589844 32.289062 41.738281 32.140625 C 41.738281 32.140625 41.738281 32.140625 41.738281 32.066406 C 41.738281 31.914062 41.664062 31.617188 41.367188 31.539062 Z M 41.367188 31.539062 "/>
<path style=" stroke:none;fill-rule:nonzero;fill:rgb(100%,100%,100%);fill-opacity:1;" d="M 33.167969 12.4375 L 13.5 12.4375 C 13.5 12.960938 13.5 16.855469 13.5 20.378906 L 33.167969 20.378906 C 33.167969 16.855469 33.167969 12.960938 33.167969 12.4375 Z M 21.695312 17.230469 C 21.621094 17.832031 21.246094 18.355469 20.726562 18.65625 C 19.980469 19.179688 18.789062 19.851562 18.714844 19.851562 L 18.417969 20.003906 L 18.117188 19.851562 C 18.042969 19.851562 16.925781 19.179688 16.179688 18.65625 C 15.660156 18.355469 15.285156 17.832031 15.210938 17.230469 C 15.210938 17.15625 15.210938 15.132812 15.210938 13.484375 L 15.210938 12.960938 L 21.621094 12.960938 L 21.621094 13.484375 C 21.695312 17.15625 21.695312 17.230469 21.695312 17.230469 Z M 31.605469 17.230469 C 31.53125 17.832031 31.15625 18.355469 30.636719 18.65625 C 29.890625 19.179688 28.699219 19.851562 28.625 19.851562 L 28.402344 20.003906 L 28.175781 19.851562 C 28.101562 19.851562 26.984375 19.179688 26.238281 18.65625 C 25.71875 18.355469 25.347656 17.832031 25.195312 17.230469 C 25.195312 17.230469 25.195312 17.082031 25.195312 13.484375 L 25.195312 12.960938 L 31.605469 12.960938 L 31.605469 13.484375 C 31.605469 15.882812 31.605469 17.15625 31.605469 17.230469 Z M 31.605469 17.230469 "/>
<path style=" stroke:none;fill-rule:nonzero;fill:rgb(100%,100%,100%);fill-opacity:1;" d="M 38.980469 34.835938 C 38.90625 35.0625 38.980469 35.285156 39.128906 35.4375 C 39.355469 35.585938 39.578125 35.511719 39.726562 35.363281 C 39.875 35.210938 39.875 34.910156 39.726562 34.761719 C 39.429688 34.613281 39.128906 34.613281 38.980469 34.835938 Z M 38.980469 34.835938 "/>
<path style=" stroke:none;fill-rule:nonzero;fill:rgb(100%,100%,100%);fill-opacity:1;" d="M 26.238281 14.011719 C 26.238281 14.382812 26.238281 14.832031 26.238281 15.207031 L 26.238281 15.734375 L 28.027344 14.460938 L 28.328125 14.234375 L 30.488281 15.734375 C 30.488281 15.207031 30.488281 14.609375 30.488281 14.085938 L 26.238281 14.085938 Z M 26.238281 14.011719 "/>
<path style=" stroke:none;fill-rule:nonzero;fill:rgb(100%,100%,100%);fill-opacity:1;" d="M 23.335938 6.816406 C 14.46875 6.816406 7.238281 14.085938 7.238281 23 C 7.238281 31.914062 14.46875 39.183594 23.335938 39.183594 C 32.199219 39.183594 39.429688 31.914062 39.429688 23 C 39.429688 14.011719 32.199219 6.816406 23.335938 6.816406 Z M 28.847656 35.734375 C 27.207031 37.011719 25.421875 38.132812 23.558594 39.03125 L 23.335938 39.109375 L 23.109375 39.03125 C 21.171875 38.132812 19.386719 37.011719 17.820312 35.734375 C 14.242188 32.890625 12.382812 29.519531 12.382812 26.148438 L 12.382812 11.3125 L 34.214844 11.3125 L 34.214844 26.296875 C 34.214844 29.59375 32.351562 32.890625 28.847656 35.734375 Z M 28.847656 35.734375 "/>
<path style=" stroke:none;fill-rule:nonzero;fill:rgb(100%,100%,100%);fill-opacity:1;" d="M 23.707031 21.425781 L 23.707031 22.773438 L 23.78125 22.773438 C 24.226562 22.699219 24.675781 22.699219 25.121094 22.699219 L 26.015625 22.773438 C 26.539062 22.851562 26.910156 22.851562 27.285156 22.851562 L 29.519531 22.851562 L 29.519531 24.574219 L 30.488281 24.574219 L 30.488281 25.847656 L 29.519531 25.847656 L 29.519531 27.496094 L 30.488281 27.496094 L 30.488281 28.769531 L 29.519531 28.769531 L 29.519531 30.117188 L 30.488281 30.117188 L 30.488281 31.390625 L 29.519531 31.390625 L 29.519531 32.890625 L 28.996094 32.890625 C 28.996094 32.890625 28.402344 32.890625 27.582031 32.890625 C 26.761719 32.890625 26.390625 32.964844 25.867188 32.964844 C 25.347656 32.890625 24.824219 32.890625 24.378906 32.890625 C 24.226562 32.890625 24.078125 32.964844 24.003906 33.113281 C 23.929688 33.1875 23.855469 33.265625 23.78125 33.339844 L 23.78125 37.757812 C 25.941406 36.636719 33.246094 32.515625 33.246094 26.371094 C 33.246094 26.371094 33.246094 24.125 33.246094 21.425781 Z M 23.707031 21.425781 "/>
<path style=" stroke:none;fill-rule:nonzero;fill:rgb(100%,100%,100%);fill-opacity:1;" d="M 28.402344 15.507812 L 26.316406 17.007812 C 26.316406 17.082031 26.316406 17.082031 26.316406 17.082031 C 26.390625 17.304688 26.613281 17.53125 26.835938 17.679688 C 27.285156 18.054688 28.027344 18.503906 28.402344 18.730469 C 28.773438 18.503906 29.519531 18.054688 30.039062 17.753906 C 30.265625 17.605469 30.414062 17.457031 30.488281 17.230469 L 30.488281 17.15625 C 30.488281 17.15625 30.488281 17.082031 30.488281 16.929688 Z M 28.402344 15.507812 "/>
<path style=" stroke:none;fill-rule:nonzero;fill:rgb(100%,100%,100%);fill-opacity:1;" d="M 25.941406 23.898438 L 25.046875 23.75 C 24.75 23.75 24.378906 23.75 24.078125 23.75 C 24.003906 23.75 23.855469 23.824219 23.78125 23.898438 L 23.78125 31.839844 C 24.003906 31.765625 24.226562 31.691406 24.453125 31.691406 C 25.121094 31.691406 25.570312 31.765625 26.089844 31.765625 C 26.613281 31.765625 27.058594 31.839844 27.804688 31.914062 L 28.625 31.914062 C 28.625 31.015625 28.625 24.796875 28.625 23.972656 L 27.433594 23.972656 C 26.910156 23.972656 26.464844 23.898438 25.941406 23.898438 Z M 27.507812 30.792969 L 26.164062 30.792969 C 25.941406 30.792969 25.71875 30.792969 25.421875 30.714844 L 24.972656 30.640625 L 24.75 30.640625 L 24.75 30.042969 L 25.046875 30.042969 L 25.570312 30.117188 C 25.792969 30.117188 26.089844 30.191406 26.238281 30.191406 L 27.582031 30.191406 Z M 24.75 28.320312 L 25.046875 28.320312 L 25.570312 28.394531 C 25.792969 28.394531 26.089844 28.46875 26.238281 28.46875 L 27.582031 28.46875 L 27.582031 29.070312 L 26.238281 29.070312 C 26.015625 29.070312 25.792969 29.070312 25.496094 28.992188 L 25.046875 28.917969 L 24.898438 28.917969 Z M 27.507812 27.34375 L 26.164062 27.34375 C 25.941406 27.34375 25.71875 27.34375 25.421875 27.269531 L 24.972656 27.195312 L 24.75 27.195312 L 24.75 26.597656 L 25.046875 26.597656 L 25.496094 26.671875 C 25.792969 26.671875 26.015625 26.746094 26.164062 26.746094 L 27.507812 26.746094 Z M 27.507812 25.621094 L 26.164062 25.621094 C 25.941406 25.621094 25.71875 25.621094 25.421875 25.546875 L 24.972656 25.472656 L 24.75 25.472656 L 24.75 24.871094 L 25.046875 24.871094 L 25.496094 24.949219 C 25.792969 24.949219 26.015625 25.023438 26.164062 25.023438 L 27.507812 25.023438 Z M 27.507812 25.621094 "/>
<path style=" stroke:none;fill-rule:nonzero;fill:rgb(100%,100%,100%);fill-opacity:1;" d="M 20.652344 14.011719 L 16.40625 14.011719 L 16.40625 14.984375 L 20.652344 14.984375 C 20.652344 14.609375 20.652344 14.308594 20.652344 14.011719 Z M 20.652344 14.011719 "/>
<path style=" stroke:none;fill-rule:nonzero;fill:rgb(100%,100%,100%);fill-opacity:1;" d="M 16.40625 16.03125 C 16.40625 16.632812 16.40625 17.15625 16.40625 17.15625 C 16.480469 17.382812 16.703125 17.605469 16.925781 17.753906 C 17.449219 18.128906 18.117188 18.503906 18.492188 18.730469 C 18.863281 18.503906 19.609375 18.054688 20.128906 17.753906 C 20.355469 17.605469 20.503906 17.457031 20.578125 17.230469 C 20.578125 17.15625 20.578125 16.78125 20.578125 16.257812 C 20.578125 16.183594 20.578125 16.109375 20.578125 16.109375 C 20.652344 16.03125 16.40625 16.03125 16.40625 16.03125 Z M 16.40625 16.03125 "/>
<path style=" stroke:none;fill-rule:nonzero;fill:rgb(70.196078%,13.333333%,14.901961%);fill-opacity:1;" d="M 54.183594 19.402344 C 54.777344 18.804688 55.597656 18.578125 56.417969 18.578125 L 56.492188 18.578125 C 57.90625 18.578125 58.578125 18.953125 58.652344 19.628906 L 58.652344 20.304688 L 58.949219 20.304688 C 58.949219 19.929688 59.023438 19.554688 59.101562 19.179688 C 59.175781 18.953125 59.175781 18.804688 59.25 18.578125 L 58.503906 18.355469 C 58.132812 18.28125 57.832031 18.207031 57.460938 18.128906 C 57.089844 18.054688 56.714844 18.054688 56.417969 18.054688 C 55.226562 17.980469 54.109375 18.429688 53.214844 19.179688 C 52.394531 19.929688 51.945312 20.976562 51.945312 22.101562 C 51.871094 23.898438 53.0625 25.546875 54.777344 25.996094 C 55.300781 26.148438 55.820312 26.222656 56.34375 26.222656 C 56.789062 26.222656 57.238281 26.148438 57.683594 26.070312 C 58.132812 25.996094 58.578125 25.773438 58.949219 25.621094 L 59.175781 25.097656 L 59.101562 24.949219 C 58.800781 25.171875 58.503906 25.324219 58.207031 25.398438 C 57.683594 25.546875 57.164062 25.621094 56.640625 25.621094 C 54.703125 25.695312 53.140625 24.199219 53.0625 22.25 C 53.0625 22.101562 53.0625 22.027344 53.0625 21.875 C 53.0625 21.351562 53.140625 20.828125 53.363281 20.304688 C 53.585938 20.003906 53.882812 19.628906 54.183594 19.402344 Z M 54.183594 19.402344 "/>
<path style=" stroke:none;fill-rule:nonzero;fill:rgb(70.196078%,13.333333%,14.901961%);fill-opacity:1;" d="M 64.6875 21.5 C 64.167969 20.976562 63.496094 20.753906 62.824219 20.753906 C 61.335938 20.675781 60.070312 21.875 59.992188 23.300781 C 59.992188 23.375 59.992188 23.449219 59.992188 23.523438 C 59.992188 23.972656 60.070312 24.421875 60.21875 24.796875 C 60.441406 25.324219 60.8125 25.773438 61.335938 25.996094 C 61.707031 26.148438 62.082031 26.222656 62.378906 26.222656 C 62.898438 26.222656 63.421875 26.070312 63.867188 25.847656 C 64.316406 25.621094 64.6875 25.246094 64.910156 24.796875 C 65.136719 24.347656 65.285156 23.824219 65.285156 23.300781 C 65.433594 22.699219 65.210938 22.027344 64.6875 21.5 Z M 63.941406 25.472656 C 63.71875 25.773438 63.273438 25.996094 62.898438 25.996094 C 62.527344 25.996094 62.230469 25.847656 62.003906 25.695312 C 61.707031 25.398438 61.484375 25.097656 61.335938 24.648438 C 61.1875 24.199219 61.113281 23.75 61.113281 23.226562 C 61.035156 22.699219 61.1875 22.101562 61.558594 21.652344 C 61.855469 21.351562 62.230469 21.128906 62.675781 21.128906 C 63.421875 21.128906 64.015625 21.578125 64.242188 22.324219 C 64.390625 22.851562 64.539062 23.375 64.464844 23.824219 C 64.464844 24.421875 64.316406 25.023438 63.941406 25.472656 Z M 63.941406 25.472656 "/>
<path style=" stroke:none;fill-rule:nonzero;fill:rgb(70.196078%,13.333333%,14.901961%);fill-opacity:1;" d="M 67.890625 21.128906 C 67.742188 21.277344 67.667969 21.351562 67.59375 21.5 C 67.445312 21.652344 67.296875 21.875 67.148438 22.101562 C 67.148438 21.425781 67.148438 21.050781 67.148438 20.976562 C 67.148438 20.976562 67.148438 20.902344 67.148438 20.902344 C 67.148438 20.902344 67.074219 20.902344 67.074219 20.902344 C 66.996094 20.902344 66.996094 20.902344 66.921875 20.976562 L 66.847656 20.976562 C 66.328125 21.203125 65.804688 21.277344 65.285156 21.351562 L 65.285156 21.652344 C 65.507812 21.652344 65.804688 21.652344 66.03125 21.652344 C 66.105469 21.652344 66.105469 21.726562 66.179688 21.726562 C 66.179688 21.875 66.253906 21.949219 66.253906 22.101562 C 66.253906 22.476562 66.253906 22.773438 66.253906 23.074219 C 66.253906 23.074219 66.253906 23.75 66.253906 25.246094 C 66.253906 25.398438 66.253906 25.621094 66.105469 25.773438 C 66.03125 25.773438 66.03125 25.847656 65.953125 25.847656 L 65.285156 25.847656 L 65.285156 26.148438 C 66.105469 26.148438 66.625 26.148438 66.625 26.148438 C 67.445312 26.148438 68.117188 26.148438 68.265625 26.148438 L 68.265625 25.847656 C 67.964844 25.847656 67.667969 25.773438 67.371094 25.773438 C 67.296875 25.773438 67.222656 25.695312 67.222656 25.546875 C 67.222656 25.398438 67.222656 25.246094 67.222656 25.097656 C 67.222656 24.421875 67.222656 23.972656 67.222656 23.75 L 67.222656 23.226562 C 67.222656 22.851562 67.296875 22.476562 67.519531 22.175781 C 67.667969 21.949219 67.964844 21.800781 68.265625 21.800781 C 68.5625 21.800781 68.933594 22.027344 69.011719 22.324219 L 69.234375 22.324219 C 69.234375 21.949219 69.234375 21.5 69.308594 21.050781 L 69.308594 20.976562 C 68.859375 20.675781 68.265625 20.753906 67.890625 21.128906 Z M 67.890625 21.128906 "/>
<path style=" stroke:none;fill-rule:nonzero;fill:rgb(70.196078%,13.333333%,14.901961%);fill-opacity:1;" d="M 75.121094 25.546875 C 75.121094 25.246094 75.121094 24.871094 75.121094 24.574219 L 75.121094 23.597656 C 75.121094 22.851562 75.121094 22.402344 75.046875 22.175781 C 74.96875 21.652344 74.671875 21.203125 74.152344 20.976562 C 73.628906 20.753906 72.957031 20.753906 72.4375 20.976562 L 71.394531 21.875 C 71.394531 21.351562 71.394531 21.050781 71.394531 20.976562 C 71.394531 20.976562 71.394531 20.902344 71.394531 20.902344 C 71.394531 20.902344 71.320312 20.902344 71.320312 20.902344 C 71.246094 20.902344 71.246094 20.902344 71.171875 20.976562 C 70.648438 21.203125 70.128906 21.277344 69.53125 21.351562 L 69.53125 21.652344 L 69.605469 21.652344 C 69.828125 21.652344 70.054688 21.652344 70.277344 21.652344 C 70.351562 21.652344 70.351562 21.652344 70.425781 21.726562 C 70.5 21.875 70.5 21.949219 70.5 22.101562 C 70.5 22.476562 70.5 22.773438 70.5 23.074219 C 70.5 23.074219 70.5 24.722656 70.5 25.324219 C 70.5 25.472656 70.5 25.621094 70.425781 25.695312 C 70.351562 25.773438 70.277344 25.847656 70.128906 25.847656 L 69.53125 25.847656 L 69.53125 26.148438 L 71.023438 26.148438 C 71.617188 26.148438 72.066406 26.148438 72.289062 26.148438 L 72.289062 25.847656 L 71.691406 25.847656 C 71.617188 25.847656 71.542969 25.773438 71.46875 25.695312 C 71.394531 25.546875 71.394531 25.398438 71.394531 25.324219 C 71.394531 24.722656 71.394531 23.074219 71.394531 23.074219 C 71.394531 22.773438 71.394531 22.476562 71.542969 22.175781 C 71.691406 21.949219 71.839844 21.800781 71.988281 21.726562 C 72.214844 21.578125 72.4375 21.5 72.734375 21.5 C 73.257812 21.425781 73.777344 21.800781 74.003906 22.324219 C 74.078125 22.699219 74.078125 23.074219 74.078125 23.449219 L 74.078125 24.421875 C 74.078125 24.648438 74.078125 25.246094 74.003906 26.148438 L 74.96875 26.148438 C 75.34375 26.148438 75.714844 26.148438 75.863281 26.148438 L 75.863281 25.847656 L 75.269531 25.847656 C 75.269531 25.847656 75.121094 25.695312 75.121094 25.546875 Z M 75.121094 25.546875 "/>
<path style=" stroke:none;fill-rule:nonzero;fill:rgb(70.196078%,13.333333%,14.901961%);fill-opacity:1;" d="M 79.964844 21.050781 C 79.589844 20.828125 79.21875 20.753906 78.84375 20.753906 C 78.25 20.753906 77.726562 20.976562 77.207031 21.277344 C 77.058594 21.425781 76.832031 21.5 76.683594 21.652344 C 76.535156 21.875 76.386719 22.101562 76.3125 22.402344 C 76.164062 22.773438 76.164062 23.148438 76.164062 23.523438 C 76.089844 24.5 76.609375 25.398438 77.429688 25.847656 C 77.800781 26.070312 78.324219 26.148438 78.769531 26.148438 C 79.21875 26.148438 79.664062 26.070312 80.039062 25.847656 C 80.261719 25.773438 80.410156 25.621094 80.632812 25.546875 L 80.78125 25.171875 L 80.707031 25.097656 C 80.484375 25.246094 80.1875 25.398438 79.886719 25.472656 C 78.84375 25.847656 77.726562 25.398438 77.355469 24.347656 C 77.207031 24.050781 77.207031 23.675781 77.207031 23.375 L 78.996094 23.375 C 79.367188 23.375 79.8125 23.375 80.1875 23.300781 C 80.410156 23.300781 80.707031 23.226562 80.929688 23.226562 C 80.929688 23.074219 80.929688 23 80.929688 22.851562 C 81.007812 22.175781 80.632812 21.5 79.964844 21.050781 Z M 79.886719 23.074219 C 79.738281 23.074219 79.441406 23.074219 78.917969 23.074219 L 78.84375 23.074219 C 78.25 23.074219 77.503906 23.074219 77.207031 23 C 77.207031 22.476562 77.28125 21.949219 77.578125 21.578125 C 77.800781 21.277344 78.175781 21.128906 78.546875 21.128906 C 79.367188 21.128906 79.8125 21.652344 79.8125 22.851562 C 79.964844 22.925781 79.886719 23 79.886719 23.074219 Z M 79.886719 23.074219 "/>
<path style=" stroke:none;fill-rule:nonzero;fill:rgb(70.196078%,13.333333%,14.901961%);fill-opacity:1;" d="M 83.242188 25.773438 C 83.09375 25.621094 83.09375 25.472656 83.09375 25.246094 C 83.09375 25.171875 83.09375 24.648438 83.09375 23.675781 L 83.09375 19.929688 C 83.09375 19.929688 83.167969 17.980469 83.167969 17.980469 C 83.167969 17.980469 83.167969 17.90625 83.167969 17.90625 C 83.167969 17.90625 83.09375 17.90625 83.09375 17.90625 C 83.09375 17.90625 83.019531 17.90625 82.945312 17.90625 C 82.421875 18.128906 81.824219 18.28125 81.230469 18.28125 L 81.230469 18.578125 C 81.453125 18.578125 81.75 18.578125 81.976562 18.578125 C 82.050781 18.578125 82.050781 18.65625 82.050781 18.65625 C 82.125 18.878906 82.125 19.179688 82.125 19.402344 C 82.125 20.078125 82.125 20.675781 82.125 21.277344 L 82.125 23.597656 C 82.125 24.574219 82.125 25.097656 82.125 25.171875 C 82.125 25.324219 82.125 25.472656 82.050781 25.546875 C 81.976562 25.621094 81.898438 25.695312 81.75 25.695312 L 81.230469 25.695312 L 81.230469 25.996094 C 82.199219 25.996094 82.570312 25.996094 82.644531 25.996094 C 83.316406 25.996094 83.835938 25.996094 83.988281 25.996094 L 83.988281 25.695312 L 83.390625 25.695312 C 83.316406 25.847656 83.242188 25.847656 83.242188 25.773438 Z M 83.242188 25.773438 "/>
<path style=" stroke:none;fill-rule:nonzero;fill:rgb(70.196078%,13.333333%,14.901961%);fill-opacity:1;" d="M 86.59375 25.773438 C 86.445312 25.621094 86.445312 25.472656 86.445312 25.246094 C 86.445312 25.171875 86.445312 24.648438 86.445312 23.675781 L 86.445312 19.929688 C 86.445312 19.929688 86.519531 17.980469 86.519531 17.980469 C 86.519531 17.980469 86.519531 17.90625 86.519531 17.90625 C 86.519531 17.90625 86.445312 17.90625 86.445312 17.90625 C 86.371094 17.90625 86.222656 17.980469 86.148438 17.980469 C 85.625 18.128906 85.105469 18.28125 84.582031 18.28125 L 84.582031 18.578125 C 84.804688 18.578125 85.105469 18.578125 85.328125 18.578125 C 85.402344 18.578125 85.402344 18.65625 85.402344 18.65625 C 85.476562 18.878906 85.476562 19.179688 85.476562 19.402344 C 85.476562 20.078125 85.476562 20.675781 85.476562 21.277344 L 85.476562 23.597656 C 85.476562 24.574219 85.476562 25.097656 85.476562 25.171875 C 85.476562 25.324219 85.476562 25.472656 85.402344 25.546875 C 85.328125 25.621094 85.253906 25.695312 85.105469 25.695312 L 84.582031 25.695312 L 84.582031 25.996094 C 85.476562 25.996094 85.847656 25.996094 86 25.996094 C 86.59375 25.996094 87.042969 25.996094 87.339844 25.996094 L 87.339844 25.695312 L 86.742188 25.695312 C 86.667969 25.847656 86.59375 25.847656 86.59375 25.773438 Z M 86.59375 25.773438 "/>
<path style=" stroke:none;fill-rule:nonzero;fill:rgb(70.196078%,13.333333%,14.901961%);fill-opacity:1;" d="M 98.21875 18.28125 C 97.324219 18.28125 96.800781 18.28125 96.652344 18.28125 L 95.535156 18.28125 L 95.535156 18.65625 C 95.757812 18.65625 96.058594 18.65625 96.28125 18.730469 C 96.355469 18.730469 96.429688 18.804688 96.503906 18.878906 C 96.578125 19.105469 96.578125 19.253906 96.578125 19.480469 C 96.578125 19.929688 96.578125 20.453125 96.578125 20.976562 L 96.578125 22.699219 C 96.652344 23.375 96.578125 24.050781 96.355469 24.648438 C 96.132812 25.097656 95.757812 25.398438 95.3125 25.546875 C 94.941406 25.621094 94.566406 25.695312 94.195312 25.695312 C 93.597656 25.695312 93.078125 25.546875 92.554688 25.324219 C 92.332031 25.171875 92.183594 24.949219 92.035156 24.722656 C 91.886719 24.199219 91.886719 23.675781 91.886719 23.148438 L 91.886719 20.976562 C 91.886719 20.003906 91.886719 19.480469 91.886719 19.402344 C 91.886719 19.253906 91.886719 19.03125 91.960938 18.878906 C 92.035156 18.804688 92.035156 18.804688 92.109375 18.730469 C 92.332031 18.65625 92.628906 18.65625 92.851562 18.65625 L 92.851562 18.28125 C 92.035156 18.28125 91.214844 18.28125 91.066406 18.28125 C 90.617188 18.28125 90.171875 18.28125 89.648438 18.28125 L 89.648438 18.65625 C 89.871094 18.65625 90.171875 18.65625 90.394531 18.730469 C 90.46875 18.730469 90.542969 18.804688 90.617188 18.878906 C 90.691406 19.105469 90.691406 19.253906 90.691406 19.480469 C 90.691406 19.929688 90.691406 20.453125 90.691406 20.976562 L 90.691406 23.449219 C 90.691406 23.972656 90.691406 24.421875 90.839844 24.949219 C 90.917969 25.171875 91.066406 25.398438 91.289062 25.621094 C 91.960938 26.148438 92.851562 26.445312 93.671875 26.371094 C 94.492188 26.445312 95.3125 26.222656 95.984375 25.695312 C 96.28125 25.472656 96.578125 25.097656 96.652344 24.722656 C 96.800781 24.125 96.878906 23.449219 96.878906 22.851562 L 96.878906 20.976562 C 96.878906 20.003906 96.878906 19.480469 96.953125 19.402344 C 96.953125 19.253906 96.953125 19.03125 97.027344 18.878906 C 97.101562 18.804688 97.175781 18.804688 97.25 18.730469 C 97.472656 18.65625 97.769531 18.65625 97.996094 18.65625 L 97.996094 18.28125 Z M 98.21875 18.28125 "/>
<path style=" stroke:none;fill-rule:nonzero;fill:rgb(70.196078%,13.333333%,14.901961%);fill-opacity:1;" d="M 103.359375 25.546875 C 103.359375 25.246094 103.359375 24.871094 103.359375 24.574219 L 103.359375 23.597656 C 103.359375 23.148438 103.359375 22.699219 103.285156 22.175781 C 103.210938 21.652344 102.914062 21.203125 102.390625 20.976562 C 101.871094 20.753906 101.199219 20.753906 100.675781 20.976562 L 99.632812 21.875 C 99.632812 21.351562 99.632812 21.050781 99.632812 20.976562 C 99.632812 20.976562 99.632812 20.902344 99.632812 20.902344 C 99.632812 20.902344 99.558594 20.902344 99.558594 20.902344 C 99.484375 20.902344 99.484375 20.902344 99.410156 20.976562 C 98.890625 21.203125 98.367188 21.351562 97.769531 21.351562 L 97.769531 21.652344 L 97.84375 21.652344 C 98.070312 21.652344 98.292969 21.652344 98.515625 21.652344 C 98.589844 21.652344 98.589844 21.726562 98.664062 21.726562 C 98.738281 21.875 98.738281 21.949219 98.738281 22.101562 C 98.738281 22.476562 98.738281 22.773438 98.738281 23.074219 C 98.738281 23.074219 98.738281 24.722656 98.738281 25.324219 C 98.738281 25.472656 98.738281 25.621094 98.664062 25.695312 C 98.589844 25.773438 98.515625 25.847656 98.367188 25.847656 L 97.84375 25.847656 L 97.84375 26.148438 L 99.335938 26.148438 C 100.007812 26.148438 100.453125 26.148438 100.527344 26.148438 L 100.527344 25.847656 L 99.933594 25.847656 C 99.859375 25.847656 99.78125 25.773438 99.707031 25.695312 C 99.632812 25.546875 99.632812 25.398438 99.632812 25.324219 C 99.632812 24.722656 99.632812 23.074219 99.632812 23.074219 C 99.632812 22.773438 99.632812 22.476562 99.78125 22.175781 C 99.859375 21.949219 100.082031 21.800781 100.230469 21.726562 C 100.453125 21.578125 100.675781 21.5 100.976562 21.5 C 101.496094 21.425781 102.019531 21.800781 102.167969 22.324219 C 102.242188 22.699219 102.242188 23.074219 102.242188 23.449219 L 102.242188 24.421875 C 102.242188 24.648438 102.242188 25.246094 102.167969 26.148438 L 103.210938 26.148438 C 103.65625 26.148438 103.957031 26.148438 104.105469 26.148438 L 104.105469 25.847656 L 103.507812 25.847656 C 103.433594 25.847656 103.359375 25.695312 103.359375 25.546875 Z M 103.359375 25.546875 "/>
<path style=" stroke:none;fill-rule:nonzero;fill:rgb(70.196078%,13.333333%,14.901961%);fill-opacity:1;" d="M 106.117188 19.628906 C 106.488281 19.628906 106.710938 19.328125 106.710938 19.03125 C 106.710938 18.878906 106.636719 18.730469 106.5625 18.578125 C 106.414062 18.429688 106.265625 18.429688 106.117188 18.429688 C 105.742188 18.429688 105.519531 18.730469 105.519531 19.03125 C 105.519531 19.179688 105.59375 19.328125 105.667969 19.480469 C 105.820312 19.554688 105.96875 19.628906 106.117188 19.628906 Z M 106.117188 19.628906 "/>
<path style=" stroke:none;fill-rule:nonzero;fill:rgb(70.196078%,13.333333%,14.901961%);fill-opacity:1;" d="M 106.785156 25.773438 C 106.636719 25.621094 106.636719 25.472656 106.636719 25.246094 C 106.636719 25.171875 106.636719 24.648438 106.636719 23.675781 L 106.636719 22.699219 C 106.636719 22.25 106.636719 21.652344 106.636719 20.902344 L 106.488281 20.828125 C 105.894531 21.050781 105.296875 21.277344 104.699219 21.277344 L 104.699219 21.578125 C 104.925781 21.578125 105.222656 21.578125 105.445312 21.578125 C 105.519531 21.578125 105.519531 21.652344 105.59375 21.726562 C 105.667969 22.027344 105.667969 22.402344 105.667969 22.699219 L 105.667969 23.675781 C 105.667969 24.648438 105.667969 25.246094 105.667969 25.246094 C 105.667969 25.398438 105.667969 25.546875 105.59375 25.621094 C 105.519531 25.695312 105.445312 25.773438 105.296875 25.773438 L 104.773438 25.773438 L 104.773438 26.070312 C 105.742188 26.070312 106.117188 26.070312 106.265625 26.070312 C 106.863281 26.070312 107.382812 26.070312 107.605469 26.070312 L 107.605469 25.773438 L 107.011719 25.773438 C 106.9375 25.847656 106.863281 25.847656 106.785156 25.773438 Z M 106.785156 25.773438 "/>
<path style=" stroke:none;fill-rule:nonzero;fill:rgb(70.196078%,13.333333%,14.901961%);fill-opacity:1;" d="M 113.492188 20.976562 C 112.746094 20.976562 112.375 20.976562 112.226562 20.976562 L 111.40625 20.976562 L 111.40625 21.277344 C 111.628906 21.277344 111.855469 21.277344 112.078125 21.351562 C 112.152344 21.425781 112.152344 21.578125 112.152344 21.652344 C 112.078125 22.027344 111.929688 22.324219 111.78125 22.699219 C 111.480469 23.375 111.332031 23.824219 111.257812 23.972656 L 110.660156 25.246094 L 110.140625 23.972656 L 109.46875 22.324219 C 109.394531 22.101562 109.246094 21.800781 109.246094 21.578125 C 109.246094 21.5 109.320312 21.425781 109.320312 21.425781 C 109.542969 21.351562 109.765625 21.351562 109.992188 21.351562 L 109.992188 20.976562 C 109.246094 20.976562 108.648438 20.976562 108.5 20.976562 L 107.382812 20.976562 L 107.382812 21.277344 C 107.53125 21.277344 107.679688 21.277344 107.832031 21.277344 C 107.980469 21.351562 108.128906 21.5 108.203125 21.726562 L 109.84375 25.472656 C 109.917969 25.621094 109.992188 25.847656 110.140625 26.222656 L 110.734375 26.222656 C 111.257812 24.949219 111.628906 24.199219 111.703125 23.972656 L 112.226562 22.851562 C 112.597656 22.101562 112.746094 21.726562 112.824219 21.652344 C 112.898438 21.578125 112.972656 21.425781 113.046875 21.351562 C 113.195312 21.277344 113.34375 21.277344 113.492188 21.277344 Z M 113.492188 20.976562 "/>
<path style=" stroke:none;fill-rule:nonzero;fill:rgb(70.196078%,13.333333%,14.901961%);fill-opacity:1;" d="M 117.144531 21.050781 C 116.773438 20.828125 116.398438 20.753906 116.027344 20.753906 C 115.429688 20.753906 114.910156 20.976562 114.386719 21.277344 C 114.238281 21.425781 114.015625 21.5 113.867188 21.652344 C 113.714844 21.875 113.566406 22.101562 113.492188 22.402344 C 113.34375 22.773438 113.34375 23.148438 113.34375 23.523438 C 113.269531 24.5 113.792969 25.398438 114.609375 25.847656 C 114.984375 26.070312 115.503906 26.148438 115.953125 26.148438 C 116.398438 26.148438 116.847656 26.070312 117.21875 25.847656 C 117.441406 25.773438 117.589844 25.621094 117.816406 25.546875 L 117.964844 25.171875 L 117.890625 25.097656 C 117.664062 25.246094 117.367188 25.398438 117.070312 25.472656 C 116.027344 25.847656 114.910156 25.324219 114.535156 24.273438 C 114.386719 23.972656 114.386719 23.597656 114.460938 23.300781 L 116.25 23.300781 C 116.621094 23.300781 117.070312 23.300781 117.441406 23.226562 C 117.664062 23.226562 117.964844 23.148438 118.1875 23.148438 C 118.1875 23 118.1875 22.925781 118.1875 22.773438 C 118.1875 22.175781 117.816406 21.425781 117.144531 21.050781 Z M 117.070312 23.074219 C 116.921875 23.074219 116.621094 23.074219 116.101562 23.074219 L 114.386719 23.074219 C 114.386719 22.550781 114.460938 22.027344 114.761719 21.652344 C 114.984375 21.351562 115.355469 21.203125 115.804688 21.203125 C 116.621094 21.203125 117.070312 21.726562 117.070312 22.925781 C 117.070312 22.925781 117.070312 23 117.070312 23.074219 Z M 117.070312 23.074219 "/>
<path style=" stroke:none;fill-rule:nonzero;fill:rgb(70.196078%,13.333333%,14.901961%);fill-opacity:1;" d="M 121.390625 21.128906 C 121.242188 21.277344 121.167969 21.351562 121.09375 21.5 C 120.871094 21.800781 120.71875 21.949219 120.644531 22.101562 C 120.644531 21.351562 120.644531 21.050781 120.644531 20.976562 C 120.644531 20.976562 120.644531 20.902344 120.644531 20.902344 C 120.644531 20.902344 120.570312 20.902344 120.570312 20.902344 C 120.496094 20.902344 120.347656 20.976562 120.199219 21.050781 C 119.753906 21.203125 119.230469 21.277344 118.785156 21.351562 L 118.785156 21.652344 C 119.007812 21.652344 119.304688 21.652344 119.527344 21.652344 C 119.601562 21.652344 119.601562 21.652344 119.675781 21.726562 C 119.675781 21.875 119.753906 21.949219 119.753906 22.101562 C 119.753906 22.476562 119.753906 22.773438 119.753906 23.074219 C 119.753906 23.074219 119.753906 23.75 119.753906 25.246094 C 119.753906 25.398438 119.753906 25.621094 119.601562 25.773438 C 119.527344 25.773438 119.527344 25.847656 119.453125 25.847656 L 118.785156 25.847656 L 118.785156 26.148438 C 119.601562 26.148438 120.050781 26.148438 120.125 26.148438 C 120.871094 26.148438 121.464844 26.148438 121.765625 26.148438 L 121.765625 25.847656 C 121.464844 25.847656 121.167969 25.773438 120.871094 25.773438 C 120.796875 25.773438 120.71875 25.695312 120.71875 25.546875 C 120.71875 25.398438 120.71875 25.246094 120.71875 25.097656 C 120.71875 24.421875 120.71875 23.972656 120.71875 23.75 L 120.71875 23.226562 C 120.71875 22.851562 120.796875 22.476562 121.019531 22.175781 C 121.167969 21.949219 121.464844 21.800781 121.765625 21.800781 C 122.0625 21.800781 122.433594 22.027344 122.507812 22.324219 L 122.734375 22.324219 C 122.734375 21.949219 122.734375 21.5 122.808594 21.050781 L 122.808594 20.976562 C 122.359375 20.675781 121.765625 20.753906 121.390625 21.128906 Z M 121.390625 21.128906 "/>
<path style=" stroke:none;fill-rule:nonzero;fill:rgb(70.196078%,13.333333%,14.901961%);fill-opacity:1;" d="M 126.53125 23.375 C 126.234375 23.226562 125.9375 23.148438 125.5625 23.074219 L 124.667969 22.851562 C 124.445312 22.773438 124.148438 22.625 124.074219 22.402344 C 124 22.25 124 22.175781 124 22.027344 C 124 21.800781 124.074219 21.5 124.296875 21.351562 C 124.519531 21.128906 124.746094 21.050781 125.042969 21.050781 C 125.488281 20.976562 125.9375 21.203125 126.234375 21.578125 C 126.308594 21.652344 126.308594 21.726562 126.308594 21.800781 C 126.308594 21.949219 126.382812 22.175781 126.382812 22.324219 L 126.679688 22.324219 C 126.679688 21.875 126.679688 21.5 126.757812 21.050781 C 126.53125 20.976562 126.234375 20.828125 126.011719 20.828125 C 125.714844 20.753906 125.414062 20.753906 125.042969 20.753906 C 124.746094 20.753906 124.445312 20.828125 124.148438 20.976562 C 123.550781 21.203125 123.179688 21.726562 123.179688 22.402344 C 123.179688 22.773438 123.328125 23.148438 123.550781 23.375 C 123.699219 23.523438 123.851562 23.597656 124.074219 23.675781 C 124.222656 23.75 124.519531 23.824219 124.96875 23.898438 C 125.265625 23.972656 125.5625 24.050781 125.863281 24.199219 C 126.160156 24.347656 126.308594 24.574219 126.308594 24.871094 C 126.308594 25.171875 126.160156 25.472656 125.9375 25.695312 C 125.636719 25.921875 125.339844 25.996094 125.042969 25.996094 C 124.894531 25.996094 124.667969 25.996094 124.519531 25.996094 C 124.296875 25.996094 124.074219 25.847656 123.851562 25.695312 C 123.699219 25.546875 123.550781 25.246094 123.550781 25.023438 C 123.550781 24.871094 123.550781 24.648438 123.550781 24.5 L 123.253906 24.5 C 123.253906 25.023438 123.253906 25.324219 123.253906 25.472656 C 123.253906 25.773438 123.179688 25.996094 123.179688 26.070312 C 123.179688 26.070312 123.179688 26.070312 123.179688 26.148438 C 123.328125 26.222656 123.476562 26.222656 123.625 26.296875 C 124.074219 26.371094 124.445312 26.445312 124.894531 26.445312 C 125.488281 26.445312 126.085938 26.296875 126.53125 25.921875 C 126.90625 25.621094 127.128906 25.097656 127.128906 24.648438 C 127.128906 24.050781 126.90625 23.597656 126.53125 23.375 Z M 126.53125 23.375 "/>
<path style=" stroke:none;fill-rule:nonzero;fill:rgb(70.196078%,13.333333%,14.901961%);fill-opacity:1;" d="M 129.8125 25.773438 C 129.660156 25.621094 129.660156 25.472656 129.660156 25.246094 C 129.660156 25.171875 129.660156 24.648438 129.660156 23.675781 L 129.660156 22.699219 C 129.660156 22.25 129.660156 21.652344 129.660156 20.902344 L 129.511719 20.828125 C 128.917969 21.050781 128.320312 21.277344 127.726562 21.277344 L 127.726562 21.578125 C 127.949219 21.578125 128.246094 21.578125 128.46875 21.578125 C 128.542969 21.578125 128.542969 21.652344 128.617188 21.726562 C 128.695312 22.027344 128.695312 22.402344 128.695312 22.699219 L 128.695312 23.675781 C 128.695312 24.648438 128.695312 25.246094 128.695312 25.246094 C 128.695312 25.398438 128.695312 25.546875 128.617188 25.621094 C 128.542969 25.695312 128.46875 25.773438 128.320312 25.773438 L 127.800781 25.773438 L 127.800781 26.070312 L 129.289062 26.070312 C 129.960938 26.070312 130.480469 26.070312 130.628906 26.070312 L 130.628906 25.773438 L 130.035156 25.773438 C 129.960938 25.847656 129.886719 25.847656 129.8125 25.773438 Z M 129.8125 25.773438 "/>
<path style=" stroke:none;fill-rule:nonzero;fill:rgb(70.196078%,13.333333%,14.901961%);fill-opacity:1;" d="M 129.511719 19.402344 C 129.660156 19.253906 129.660156 19.105469 129.660156 18.953125 C 129.660156 18.804688 129.585938 18.65625 129.511719 18.503906 C 129.289062 18.28125 128.917969 18.28125 128.617188 18.503906 C 128.394531 18.730469 128.394531 19.105469 128.617188 19.402344 C 128.917969 19.628906 129.289062 19.628906 129.511719 19.402344 Z M 129.511719 19.402344 "/>
<path style=" stroke:none;fill-rule:nonzero;fill:rgb(70.196078%,13.333333%,14.901961%);fill-opacity:1;" d="M 132.566406 21.726562 L 133.984375 21.726562 L 134.058594 21.277344 L 133.984375 21.277344 C 133.238281 21.277344 132.941406 21.277344 132.792969 21.277344 L 132.492188 21.277344 C 132.566406 20.226562 132.566406 19.554688 132.640625 19.253906 L 132.492188 19.179688 C 132.195312 19.328125 131.898438 19.480469 131.597656 19.628906 L 131.597656 21.277344 C 131.300781 21.425781 131.003906 21.5 130.78125 21.652344 L 130.78125 21.875 C 131.375 21.875 131.597656 21.875 131.597656 21.875 C 131.597656 21.875 131.597656 24.273438 131.597656 24.421875 C 131.597656 24.722656 131.597656 25.023438 131.597656 25.246094 C 131.597656 25.472656 131.675781 25.621094 131.75 25.847656 C 131.898438 26.070312 132.046875 26.222656 132.269531 26.371094 C 132.417969 26.445312 132.566406 26.445312 132.71875 26.445312 C 133.015625 26.445312 133.238281 26.445312 133.535156 26.296875 C 133.6875 26.148438 133.835938 25.996094 134.058594 25.847656 L 133.984375 25.546875 C 133.910156 25.546875 133.761719 25.621094 133.6875 25.621094 L 133.609375 25.621094 C 133.460938 25.621094 133.386719 25.621094 133.238281 25.621094 L 133.164062 25.621094 C 132.941406 25.621094 132.71875 25.546875 132.566406 25.324219 C 132.492188 25.246094 132.492188 25.171875 132.492188 25.023438 C 132.492188 24.722656 132.492188 24.347656 132.492188 24.050781 Z M 132.566406 21.726562 "/>
<path style=" stroke:none;fill-rule:nonzero;fill:rgb(70.196078%,13.333333%,14.901961%);fill-opacity:1;" d="M 140.09375 21.425781 C 140.242188 21.351562 140.390625 21.277344 140.539062 21.277344 L 140.539062 20.976562 C 139.871094 21.050781 139.125 21.050781 138.378906 20.976562 L 138.378906 21.277344 C 138.601562 21.277344 138.828125 21.351562 139.050781 21.425781 C 139.125 21.5 139.199219 21.652344 139.125 21.726562 C 139.050781 21.875 138.902344 22.324219 138.601562 23.074219 C 138.304688 23.824219 138.082031 24.273438 138.007812 24.574219 L 137.710938 25.246094 C 137.410156 24.648438 136.816406 23.148438 136.816406 23.148438 C 136.667969 22.851562 136.515625 22.402344 136.367188 22.027344 C 136.292969 21.875 136.292969 21.800781 136.292969 21.652344 C 136.292969 21.578125 136.367188 21.5 136.441406 21.425781 C 136.667969 21.351562 136.890625 21.351562 137.113281 21.351562 L 137.113281 20.976562 C 136.515625 20.976562 135.773438 20.976562 135.699219 20.976562 C 135.324219 20.976562 134.878906 20.976562 134.503906 20.976562 L 134.503906 21.277344 C 134.65625 21.277344 134.878906 21.351562 135.027344 21.351562 C 135.101562 21.425781 135.175781 21.5 135.25 21.652344 C 135.398438 22.027344 135.621094 22.476562 135.921875 23.148438 L 136.816406 25.324219 C 136.964844 25.773438 137.113281 26.148438 137.261719 26.445312 C 137.113281 26.820312 136.964844 27.269531 136.742188 27.644531 C 136.667969 27.871094 136.515625 28.019531 136.441406 28.167969 C 136.292969 28.394531 136.070312 28.46875 135.773438 28.46875 L 135.546875 28.46875 C 135.398438 28.394531 135.324219 28.320312 135.25 28.246094 L 135.101562 28.246094 L 134.804688 29.070312 C 135.027344 29.21875 135.25 29.292969 135.472656 29.21875 C 135.996094 29.21875 136.441406 28.992188 136.742188 28.617188 C 136.964844 28.320312 137.113281 27.945312 137.335938 27.570312 L 138.601562 24.574219 C 139.199219 23.300781 139.570312 22.476562 139.796875 22.101562 C 139.722656 21.875 139.871094 21.652344 140.09375 21.425781 Z M 140.09375 21.425781 "/>
<path style=" stroke:none;fill-rule:nonzero;fill:rgb(70.196078%,13.333333%,14.901961%);fill-opacity:1;" d="M 23.335938 0 C 10.667969 0 0.460938 10.265625 0.460938 23 C 0.460938 35.734375 10.667969 46 23.335938 46 C 36 46 46.210938 35.734375 46.210938 23 C 46.136719 10.265625 35.925781 0 23.335938 0 Z M 23.335938 44.875 C 11.261719 44.875 1.503906 35.0625 1.503906 23 C 1.503906 10.9375 11.261719 1.050781 23.335938 1.050781 C 35.40625 1.050781 45.167969 10.863281 45.167969 22.925781 C 45.089844 35.0625 35.332031 44.875 23.335938 44.875 Z M 23.335938 44.875 "/>
<path style=" stroke:none;fill-rule:nonzero;fill:rgb(70.196078%,13.333333%,14.901961%);fill-opacity:1;" d="M 23.335938 5.695312 C 13.871094 5.695312 6.195312 13.410156 6.195312 22.925781 C 6.195312 32.441406 13.871094 40.15625 23.335938 40.15625 C 32.796875 40.15625 40.472656 32.441406 40.472656 22.925781 C 40.398438 13.484375 32.796875 5.769531 23.335938 5.695312 Z M 23.335938 39.183594 C 14.46875 39.183594 7.238281 31.914062 7.238281 23 C 7.238281 14.085938 14.394531 6.816406 23.335938 6.816406 C 32.277344 6.816406 39.429688 14.085938 39.429688 23 C 39.429688 31.914062 32.199219 39.183594 23.335938 39.183594 Z M 23.335938 39.183594 "/>
<path style=" stroke:none;fill-rule:nonzero;fill:rgb(70.196078%,13.333333%,14.901961%);fill-opacity:1;" d="M 20.429688 25.546875 C 20.652344 25.546875 20.875 25.546875 21.171875 25.472656 L 21.84375 25.472656 L 21.84375 24.871094 L 21.546875 24.871094 L 21.097656 24.949219 C 20.800781 24.949219 20.578125 25.023438 20.355469 25.023438 L 19.011719 25.023438 L 19.011719 25.621094 Z M 20.429688 25.546875 "/>
<path style=" stroke:none;fill-rule:nonzero;fill:rgb(70.196078%,13.333333%,14.901961%);fill-opacity:1;" d="M 21.097656 30.117188 C 20.800781 30.117188 20.578125 30.191406 20.355469 30.191406 L 19.085938 30.191406 L 19.085938 30.714844 L 20.429688 30.714844 C 20.652344 30.714844 20.875 30.714844 21.171875 30.640625 L 21.621094 30.566406 L 21.84375 30.566406 L 21.84375 29.96875 L 21.546875 29.96875 Z M 21.097656 30.117188 "/>
<path style=" stroke:none;fill-rule:nonzero;fill:rgb(70.196078%,13.333333%,14.901961%);fill-opacity:1;" d="M 21.097656 28.394531 C 20.800781 28.394531 20.578125 28.46875 20.429688 28.46875 L 19.085938 28.46875 L 19.085938 29.070312 L 20.429688 29.070312 C 20.652344 29.070312 20.875 29.070312 21.171875 28.992188 L 21.621094 28.917969 L 21.84375 28.917969 L 21.84375 28.320312 L 21.546875 28.320312 Z M 21.097656 28.394531 "/>
<path style=" stroke:none;fill-rule:nonzero;fill:rgb(70.196078%,13.333333%,14.901961%);fill-opacity:1;" d="M 21.097656 26.671875 C 20.800781 26.671875 20.578125 26.746094 20.355469 26.746094 L 19.011719 26.746094 L 19.011719 27.34375 L 20.355469 27.34375 C 20.578125 27.34375 20.800781 27.34375 21.097656 27.269531 L 21.546875 27.195312 L 21.769531 27.195312 L 21.769531 26.597656 L 21.546875 26.597656 Z M 21.097656 26.671875 "/>
<path style=" stroke:none;fill-rule:nonzero;fill:rgb(70.196078%,13.333333%,14.901961%);fill-opacity:1;" d="M 24.972656 28.917969 L 25.421875 28.992188 C 25.71875 28.992188 25.941406 29.070312 26.164062 29.070312 L 27.507812 29.070312 L 27.507812 28.46875 L 26.164062 28.46875 C 25.941406 28.46875 25.71875 28.46875 25.496094 28.394531 L 25.046875 28.320312 L 24.75 28.320312 L 24.75 28.917969 Z M 24.972656 28.917969 "/>
<path style=" stroke:none;fill-rule:nonzero;fill:rgb(70.196078%,13.333333%,14.901961%);fill-opacity:1;" d="M 25.496094 24.949219 L 25.046875 24.871094 L 24.75 24.871094 L 24.75 25.472656 L 24.972656 25.472656 L 25.421875 25.546875 C 25.71875 25.546875 25.941406 25.621094 26.164062 25.621094 L 27.507812 25.621094 L 27.507812 25.097656 L 26.164062 25.097656 C 26.015625 25.023438 25.792969 24.949219 25.496094 24.949219 Z M 25.496094 24.949219 "/>
<path style=" stroke:none;fill-rule:nonzero;fill:rgb(70.196078%,13.333333%,14.901961%);fill-opacity:1;" d="M 25.496094 30.117188 L 25.046875 30.042969 L 24.75 30.042969 L 24.75 30.640625 L 24.972656 30.640625 L 25.421875 30.714844 C 25.71875 30.714844 25.941406 30.792969 26.164062 30.792969 L 27.507812 30.792969 L 27.507812 30.191406 L 26.164062 30.191406 C 26.015625 30.191406 25.792969 30.117188 25.496094 30.117188 Z M 25.496094 30.117188 "/>
<path style=" stroke:none;fill-rule:nonzero;fill:rgb(70.196078%,13.333333%,14.901961%);fill-opacity:1;" d="M 33.691406 11.3125 L 12.382812 11.3125 L 12.382812 26.070312 C 12.382812 29.519531 14.242188 32.8125 17.746094 35.660156 C 19.386719 37.011719 21.171875 38.058594 23.035156 38.957031 L 23.261719 39.03125 L 23.484375 38.957031 C 25.347656 38.058594 27.132812 36.933594 28.773438 35.660156 C 32.277344 32.8125 34.136719 29.59375 34.136719 26.296875 L 34.136719 11.3125 Z M 22.8125 31.839844 C 22.664062 31.765625 22.441406 31.765625 22.214844 31.765625 C 21.546875 31.765625 21.097656 31.839844 20.578125 31.839844 C 20.054688 31.839844 19.609375 31.914062 18.863281 31.988281 L 18.042969 31.988281 C 18.042969 31.089844 18.042969 24.871094 18.042969 24.050781 L 19.234375 24.050781 C 19.609375 24.050781 20.054688 23.972656 20.578125 23.972656 L 21.472656 23.898438 C 21.84375 23.824219 22.140625 23.824219 22.515625 23.898438 C 22.589844 23.898438 22.664062 23.972656 22.738281 23.972656 Z M 22.8125 22.773438 C 22.367188 22.699219 21.917969 22.699219 21.472656 22.699219 L 20.578125 22.773438 C 20.054688 22.851562 19.683594 22.851562 19.3125 22.851562 L 17.074219 22.851562 L 17.074219 24.273438 L 15.957031 24.273438 L 15.957031 25.546875 L 17 25.546875 L 17 27.195312 L 15.957031 27.195312 L 15.957031 28.46875 L 17 28.46875 L 17 29.96875 L 15.957031 29.96875 L 15.957031 31.242188 L 17 31.242188 L 17 32.964844 L 17.523438 32.964844 C 17.523438 32.964844 18.117188 32.964844 18.9375 32.964844 C 19.757812 32.964844 20.28125 32.964844 20.726562 32.964844 C 21.246094 32.890625 21.769531 32.890625 22.214844 32.890625 C 22.367188 32.890625 22.515625 32.964844 22.589844 33.113281 C 22.664062 33.1875 22.738281 33.265625 22.8125 33.339844 L 22.8125 37.757812 C 20.503906 36.636719 13.425781 32.515625 13.425781 26.148438 C 13.425781 26.148438 13.425781 24.050781 13.425781 21.5 L 22.8125 21.5 Z M 13.5 20.378906 C 13.5 16.855469 13.5 12.960938 13.5 12.4375 L 33.167969 12.4375 C 33.167969 12.960938 33.167969 16.855469 33.167969 20.378906 Z M 28.550781 31.988281 L 27.730469 31.988281 C 26.984375 31.988281 26.464844 31.914062 26.015625 31.839844 C 25.570312 31.765625 25.046875 31.765625 24.378906 31.765625 C 24.152344 31.765625 23.929688 31.839844 23.707031 31.914062 L 23.707031 23.972656 C 23.78125 23.898438 23.929688 23.898438 24.003906 23.824219 C 24.378906 23.75 24.675781 23.75 25.046875 23.75 L 25.941406 23.824219 C 26.464844 23.898438 26.910156 23.898438 27.285156 23.972656 L 28.476562 23.972656 C 28.550781 24.871094 28.550781 31.089844 28.550781 31.988281 Z M 23.707031 37.757812 L 23.707031 33.339844 C 23.78125 33.265625 23.855469 33.1875 23.929688 33.113281 C 24.003906 32.964844 24.152344 32.890625 24.304688 32.890625 C 24.824219 32.890625 25.347656 32.890625 25.792969 32.964844 C 26.316406 33.039062 26.835938 33.039062 27.582031 33.113281 C 28.328125 33.1875 28.921875 33.113281 28.996094 33.113281 L 29.519531 33.113281 L 29.519531 31.617188 L 30.488281 31.617188 L 30.488281 30.34375 L 29.59375 30.34375 L 29.59375 28.992188 L 30.5625 28.992188 L 30.5625 27.71875 L 29.59375 27.71875 L 29.59375 26.070312 L 30.5625 26.070312 L 30.5625 24.796875 L 29.59375 24.796875 L 29.59375 23.074219 L 27.359375 23.074219 C 26.984375 23.074219 26.613281 23 26.089844 23 L 25.195312 22.925781 C 24.75 22.851562 24.304688 22.925781 23.855469 23 L 23.78125 23 L 23.78125 21.652344 L 33.246094 21.652344 C 33.246094 24.347656 33.246094 26.597656 33.246094 26.597656 C 33.167969 32.441406 25.867188 36.636719 23.707031 37.757812 Z M 23.707031 37.757812 "/>
<path style=" stroke:none;fill-rule:nonzero;fill:rgb(70.196078%,13.333333%,14.901961%);fill-opacity:1;" d="M 21.695312 12.960938 L 15.363281 12.960938 L 15.363281 13.484375 C 15.363281 15.132812 15.363281 17.15625 15.363281 17.230469 C 15.4375 17.832031 15.808594 18.355469 16.332031 18.65625 C 17.074219 19.179688 18.191406 19.777344 18.265625 19.851562 L 18.566406 20.003906 L 18.863281 19.851562 C 18.9375 19.851562 20.128906 19.179688 20.875 18.65625 C 21.398438 18.355469 21.769531 17.832031 21.769531 17.230469 C 21.769531 17.230469 21.769531 17.082031 21.769531 13.484375 L 21.769531 12.960938 Z M 16.40625 14.011719 L 20.652344 14.011719 C 20.652344 14.308594 20.652344 14.609375 20.652344 14.910156 L 16.40625 14.910156 Z M 20.652344 17.15625 C 20.578125 17.457031 20.429688 17.605469 20.203125 17.753906 C 19.683594 18.128906 18.9375 18.503906 18.566406 18.730469 C 18.191406 18.503906 17.449219 18.054688 17 17.753906 C 16.777344 17.605469 16.554688 17.457031 16.480469 17.15625 C 16.480469 17.082031 16.480469 16.632812 16.480469 16.03125 L 20.726562 16.03125 C 20.726562 16.109375 20.726562 16.183594 20.726562 16.183594 C 20.652344 16.78125 20.652344 17.15625 20.652344 17.15625 Z M 20.652344 17.15625 "/>
<path style=" stroke:none;fill-rule:nonzero;fill:rgb(70.196078%,13.333333%,14.901961%);fill-opacity:1;" d="M 25.496094 26.671875 L 25.046875 26.597656 L 24.75 26.597656 L 24.75 27.195312 L 24.972656 27.195312 L 25.421875 27.269531 C 25.71875 27.269531 25.941406 27.34375 26.164062 27.34375 L 27.507812 27.34375 L 27.507812 26.746094 L 26.164062 26.746094 C 26.015625 26.746094 25.792969 26.746094 25.496094 26.671875 Z M 25.496094 26.671875 "/>
<path style=" stroke:none;fill-rule:nonzero;fill:rgb(70.196078%,13.333333%,14.901961%);fill-opacity:1;" d="M 31.605469 12.960938 L 25.195312 12.960938 L 25.195312 13.484375 C 25.195312 17.15625 25.195312 17.230469 25.195312 17.230469 C 25.273438 17.832031 25.644531 18.355469 26.164062 18.578125 C 26.910156 19.105469 28.027344 19.703125 28.101562 19.777344 L 28.328125 19.929688 L 28.550781 19.777344 C 28.625 19.777344 29.816406 19.105469 30.5625 18.578125 C 31.082031 18.28125 31.457031 17.832031 31.53125 17.230469 C 31.53125 17.15625 31.53125 15.882812 31.53125 13.484375 L 31.53125 12.960938 Z M 30.488281 17.15625 C 30.414062 17.457031 30.265625 17.605469 30.039062 17.753906 C 29.519531 18.128906 28.773438 18.503906 28.402344 18.730469 C 28.027344 18.503906 27.285156 18.054688 26.835938 17.753906 C 26.613281 17.605469 26.390625 17.457031 26.316406 17.15625 C 26.316406 17.15625 26.316406 17.082031 26.316406 17.082031 L 28.402344 15.582031 L 30.5625 17.007812 C 30.488281 17.15625 30.488281 17.230469 30.488281 17.15625 Z M 28.328125 14.234375 L 28.027344 14.460938 L 26.238281 15.734375 L 26.238281 15.207031 C 26.238281 14.832031 26.238281 14.382812 26.238281 14.011719 L 30.488281 14.011719 C 30.488281 14.535156 30.488281 15.132812 30.488281 15.65625 Z M 28.328125 14.234375 "/>
<path style=" stroke:none;fill-rule:nonzero;fill:rgb(70.196078%,13.333333%,14.901961%);fill-opacity:1;" d="M 5.453125 21.5 C 5.453125 21.277344 5.453125 21.050781 5.378906 20.828125 L 4.855469 20.828125 C 4.929688 20.976562 4.929688 21.203125 4.929688 21.425781 C 4.929688 21.949219 4.484375 22.402344 3.886719 22.402344 C 3.8125 22.402344 3.8125 22.402344 3.738281 22.402344 C 3.140625 22.402344 2.695312 21.949219 2.695312 21.425781 C 2.695312 21.425781 2.695312 21.351562 2.695312 21.351562 C 2.695312 21.128906 2.769531 20.902344 2.917969 20.675781 L 2.398438 20.601562 C 2.320312 20.828125 2.246094 21.050781 2.246094 21.277344 C 2.097656 22.101562 2.621094 22.851562 3.441406 23 C 3.589844 23 3.664062 23 3.8125 23 C 4.632812 23.074219 5.378906 22.476562 5.453125 21.652344 C 5.453125 21.652344 5.453125 21.578125 5.453125 21.5 Z M 5.453125 21.5 "/>
<path style=" stroke:none;fill-rule:nonzero;fill:rgb(70.196078%,13.333333%,14.901961%);fill-opacity:1;" d="M 4.109375 19.253906 C 4.855469 19.480469 5.675781 19.03125 5.972656 18.28125 C 6.269531 17.53125 5.75 16.632812 4.929688 16.40625 C 4.183594 16.109375 3.363281 16.480469 3.066406 17.230469 C 3.066406 17.304688 2.992188 17.382812 2.992188 17.457031 C 2.769531 18.207031 3.140625 19.03125 3.886719 19.253906 C 3.960938 19.253906 4.035156 19.253906 4.109375 19.253906 Z M 3.441406 17.53125 C 3.589844 17.007812 4.183594 16.78125 4.632812 17.007812 C 4.632812 17.007812 4.707031 17.007812 4.707031 17.007812 C 5.226562 17.007812 5.601562 17.382812 5.601562 17.90625 C 5.601562 18.429688 5.226562 18.804688 4.707031 18.804688 C 4.558594 18.804688 4.410156 18.730469 4.257812 18.65625 C 3.738281 18.578125 3.363281 18.128906 3.441406 17.53125 C 3.441406 17.605469 3.441406 17.53125 3.441406 17.53125 Z M 3.441406 17.53125 "/>
<path style=" stroke:none;fill-rule:nonzero;fill:rgb(70.196078%,13.333333%,14.901961%);fill-opacity:1;" d="M 7.164062 15.132812 L 6.046875 14.535156 L 6.121094 14.382812 C 6.195312 14.160156 6.421875 14.085938 6.570312 14.160156 L 7.6875 14.234375 L 7.984375 13.636719 L 6.71875 13.484375 C 6.570312 13.484375 6.421875 13.484375 6.269531 13.636719 C 6.421875 13.261719 6.269531 12.886719 5.898438 12.734375 C 5.152344 12.363281 4.78125 13.035156 4.484375 13.636719 L 4.183594 14.234375 L 6.941406 15.65625 Z M 5.675781 14.085938 L 5.675781 14.234375 L 4.929688 13.859375 L 5.003906 13.710938 C 5.152344 13.410156 5.300781 13.1875 5.675781 13.335938 C 6.046875 13.484375 5.898438 13.859375 5.675781 14.085938 Z M 5.675781 14.085938 "/>
<path style=" stroke:none;fill-rule:nonzero;fill:rgb(70.196078%,13.333333%,14.901961%);fill-opacity:1;" d="M 9.027344 12.210938 L 7.238281 10.714844 L 9.773438 11.3125 L 10.21875 10.714844 L 7.835938 8.691406 L 7.464844 9.214844 L 9.25 10.636719 L 6.71875 10.113281 L 6.269531 10.636719 L 8.65625 12.660156 Z M 9.027344 12.210938 "/>
<path style=" stroke:none;fill-rule:nonzero;fill:rgb(70.196078%,13.333333%,14.901961%);fill-opacity:1;" d="M 12.679688 8.539062 L 12.382812 8.167969 L 11.488281 8.914062 L 10.890625 8.242188 L 11.785156 7.566406 L 11.488281 7.191406 L 10.59375 7.867188 L 10.144531 7.265625 L 11.039062 6.519531 L 10.742188 6.144531 L 9.324219 7.265625 L 11.339844 9.664062 Z M 12.679688 8.539062 "/>
<path style=" stroke:none;fill-rule:nonzero;fill:rgb(70.196078%,13.333333%,14.901961%);fill-opacity:1;" d="M 15.4375 6.890625 L 15.210938 6.441406 L 14.167969 7.042969 L 12.902344 4.792969 L 12.382812 5.09375 L 13.871094 7.792969 Z M 15.4375 6.890625 "/>
<path style=" stroke:none;fill-rule:nonzero;fill:rgb(70.196078%,13.333333%,14.901961%);fill-opacity:1;" d="M 18.265625 5.769531 L 18.042969 5.320312 L 16.925781 5.769531 L 16.105469 3.296875 L 15.511719 3.519531 L 16.554688 6.441406 Z M 18.265625 5.769531 "/>
<path style=" stroke:none;fill-rule:nonzero;fill:rgb(70.196078%,13.333333%,14.901961%);fill-opacity:1;" d="M 21.917969 5.167969 C 22.515625 5.246094 23.035156 4.792969 23.109375 4.195312 C 23.109375 4.121094 23.109375 3.96875 23.109375 3.894531 L 22.960938 1.949219 L 22.367188 2.023438 L 22.441406 3.746094 C 22.515625 4.269531 22.367188 4.644531 21.84375 4.644531 C 21.324219 4.644531 21.171875 4.34375 21.171875 3.820312 L 21.023438 2.097656 L 20.429688 2.171875 L 20.578125 4.121094 C 20.578125 4.71875 21.023438 5.167969 21.621094 5.246094 C 21.695312 5.246094 21.84375 5.246094 21.917969 5.167969 Z M 21.917969 5.167969 "/>
<path style=" stroke:none;fill-rule:nonzero;fill:rgb(70.196078%,13.333333%,14.901961%);fill-opacity:1;" d="M 25.421875 2.847656 L 26.316406 5.320312 L 27.058594 5.394531 L 27.433594 2.324219 L 26.910156 2.246094 L 26.539062 4.570312 L 25.71875 2.097656 L 24.972656 2.023438 L 24.527344 5.09375 L 25.121094 5.167969 Z M 25.421875 2.847656 "/>
<path style=" stroke:none;fill-rule:nonzero;fill:rgb(70.196078%,13.333333%,14.901961%);fill-opacity:1;" d="M 28.453125 5.765625 L 29.371094 2.832031 L 29.9375 3.011719 L 29.023438 5.941406 Z M 28.453125 5.765625 "/>
<path style=" stroke:none;fill-rule:nonzero;fill:rgb(70.196078%,13.333333%,14.901961%);fill-opacity:1;" d="M 33.988281 4.871094 L 33.46875 4.570312 L 31.679688 6.367188 L 32.125 3.894531 L 31.53125 3.597656 L 31.007812 6.816406 L 31.753906 7.117188 Z M 33.988281 4.871094 "/>
<path style=" stroke:none;fill-rule:nonzero;fill:rgb(70.196078%,13.333333%,14.901961%);fill-opacity:1;" d="M 35.03125 9.441406 L 35.332031 8.988281 L 34.363281 8.316406 L 34.882812 7.566406 L 35.777344 8.242188 L 36.074219 7.867188 L 35.179688 7.191406 L 35.703125 6.59375 L 36.597656 7.34375 L 36.894531 6.96875 L 35.480469 5.84375 L 33.617188 8.316406 Z M 35.03125 9.441406 "/>
<path style=" stroke:none;fill-rule:nonzero;fill:rgb(70.196078%,13.333333%,14.901961%);fill-opacity:1;" d="M 36 10.339844 L 36.375 10.789062 L 37.34375 9.964844 L 37.492188 10.113281 C 37.640625 10.265625 37.640625 10.488281 37.492188 10.636719 L 36.96875 11.539062 L 37.417969 12.0625 L 38.011719 10.863281 C 38.085938 10.714844 38.085938 10.5625 38.011719 10.414062 C 38.3125 10.636719 38.683594 10.636719 38.980469 10.414062 C 39.652344 9.8125 39.128906 9.289062 38.683594 8.765625 L 38.238281 8.242188 Z M 38.535156 9.214844 C 38.757812 9.441406 38.90625 9.738281 38.683594 9.964844 C 38.460938 10.1875 38.160156 9.964844 37.9375 9.738281 L 37.714844 9.664062 L 38.3125 9.140625 Z M 38.535156 9.214844 "/>
<path style=" stroke:none;fill-rule:nonzero;fill:rgb(70.196078%,13.333333%,14.901961%);fill-opacity:1;" d="M 38.90625 13.484375 C 38.757812 13.261719 38.683594 12.960938 38.757812 12.734375 L 38.238281 12.960938 C 38.3125 13.261719 38.386719 13.484375 38.535156 13.710938 C 38.683594 14.234375 39.28125 14.460938 39.726562 14.308594 C 39.800781 14.308594 39.875 14.234375 39.875 14.234375 C 40.769531 13.710938 39.875 12.660156 40.324219 12.363281 C 40.546875 12.210938 40.769531 12.285156 40.917969 12.511719 C 40.917969 12.511719 40.917969 12.511719 40.917969 12.585938 C 40.992188 12.734375 41.066406 12.960938 41.140625 13.1875 L 41.589844 12.960938 C 41.515625 12.734375 41.441406 12.511719 41.292969 12.285156 C 41.066406 11.835938 40.546875 11.613281 40.097656 11.761719 C 40.023438 11.761719 40.023438 11.835938 39.949219 11.835938 C 39.054688 12.363281 39.949219 13.410156 39.429688 13.710938 C 39.355469 13.859375 39.054688 13.710938 38.90625 13.484375 Z M 38.90625 13.484375 "/>
<path style=" stroke:none;fill-rule:nonzero;fill:rgb(70.196078%,13.333333%,14.901961%);fill-opacity:1;" d="M 39.714844 15.882812 L 42.546875 14.722656 L 42.769531 15.277344 L 39.941406 16.4375 Z M 39.714844 15.882812 "/>
<path style=" stroke:none;fill-rule:nonzero;fill:rgb(70.196078%,13.333333%,14.901961%);fill-opacity:1;" d="M 40.546875 18.429688 L 40.695312 19.03125 L 43.230469 18.429688 L 43.453125 19.253906 L 43.898438 19.105469 L 43.378906 16.855469 L 42.855469 16.929688 L 43.078125 17.832031 Z M 40.546875 18.429688 "/>
<path style=" stroke:none;fill-rule:nonzero;fill:rgb(70.196078%,13.333333%,14.901961%);fill-opacity:1;" d="M 41.140625 21.875 L 41.140625 22.476562 L 42.410156 22.402344 L 44.273438 23.375 L 44.273438 22.773438 L 42.929688 22.101562 L 44.199219 21.277344 L 44.121094 20.601562 L 42.335938 21.800781 Z M 41.140625 21.875 "/>
<path style=" stroke:none;fill-rule:nonzero;fill:rgb(70.196078%,13.333333%,14.901961%);fill-opacity:1;" d="M 4.632812 29.21875 L 5.078125 29.070312 L 4.855469 28.09375 L 5.527344 27.871094 L 5.824219 28.917969 L 6.34375 28.769531 L 5.824219 27.121094 L 2.917969 28.019531 L 3.066406 28.617188 L 4.332031 28.246094 Z M 4.632812 29.21875 "/>
<path style=" stroke:none;fill-rule:nonzero;fill:rgb(70.196078%,13.333333%,14.901961%);fill-opacity:1;" d="M 7.3125 30.941406 C 7.015625 30.191406 6.195312 29.890625 5.453125 30.191406 C 5.378906 30.191406 5.300781 30.265625 5.226562 30.265625 C 4.484375 30.566406 4.109375 31.390625 4.410156 32.140625 C 4.410156 32.214844 4.484375 32.289062 4.484375 32.363281 C 4.78125 33.113281 5.675781 33.414062 6.34375 33.113281 C 6.421875 33.113281 6.496094 33.039062 6.570312 33.039062 C 7.3125 32.738281 7.6875 31.914062 7.390625 31.167969 C 7.390625 31.089844 7.3125 31.015625 7.3125 30.941406 Z M 6.269531 32.441406 C 5.824219 32.738281 5.226562 32.664062 4.929688 32.214844 C 4.929688 32.214844 4.929688 32.214844 4.855469 32.140625 C 4.632812 31.691406 4.855469 31.089844 5.378906 30.867188 C 5.378906 30.867188 5.453125 30.867188 5.453125 30.867188 C 5.898438 30.566406 6.496094 30.640625 6.792969 31.089844 C 6.792969 31.089844 6.792969 31.089844 6.792969 31.167969 C 7.015625 31.691406 6.792969 32.214844 6.269531 32.441406 Z M 6.269531 32.441406 "/>
<path style=" stroke:none;fill-rule:nonzero;fill:rgb(70.196078%,13.333333%,14.901961%);fill-opacity:1;" d="M 9.773438 34.835938 L 8.359375 35.960938 C 7.910156 36.261719 7.539062 36.335938 7.3125 35.960938 C 7.089844 35.585938 7.164062 35.210938 7.613281 34.988281 L 9.027344 33.863281 L 8.65625 33.339844 L 7.089844 34.613281 C 6.570312 34.910156 6.421875 35.585938 6.792969 36.109375 C 6.867188 36.1875 6.941406 36.261719 7.015625 36.335938 C 7.3125 36.859375 7.984375 37.085938 8.507812 36.785156 C 8.582031 36.710938 8.65625 36.710938 8.730469 36.636719 L 10.292969 35.4375 Z M 9.773438 34.835938 "/>
<path style=" stroke:none;fill-rule:nonzero;fill:rgb(70.196078%,13.333333%,14.901961%);fill-opacity:1;" d="M 12.605469 37.609375 L 11.1875 39.332031 L 11.710938 36.859375 L 11.113281 36.335938 L 9.175781 38.734375 L 9.625 39.109375 L 11.113281 37.308594 L 10.59375 39.855469 L 11.113281 40.382812 L 13.125 37.984375 Z M 12.605469 37.609375 "/>
<path style=" stroke:none;fill-rule:nonzero;fill:rgb(70.196078%,13.333333%,14.901961%);fill-opacity:1;" d="M 14.988281 39.109375 L 14.242188 38.734375 L 12.828125 41.503906 L 13.574219 41.878906 C 14.394531 42.328125 15.285156 42.402344 15.808594 41.28125 C 16.332031 40.15625 15.808594 39.558594 14.988281 39.109375 Z M 15.363281 40.980469 C 15.136719 41.503906 14.542969 41.730469 14.019531 41.503906 C 14.019531 41.503906 14.019531 41.503906 13.945312 41.503906 L 13.648438 41.355469 L 14.617188 39.480469 L 14.914062 39.632812 C 15.4375 39.855469 15.660156 40.457031 15.363281 40.980469 Z M 15.363281 40.980469 "/>
<path style=" stroke:none;fill-rule:nonzero;fill:rgb(70.196078%,13.333333%,14.901961%);fill-opacity:1;" d="M 17 43.304688 L 18.789062 43.753906 L 18.9375 43.304688 L 17.746094 43.003906 L 17.96875 42.105469 L 19.011719 42.402344 L 19.160156 41.953125 L 18.117188 41.65625 L 18.265625 40.90625 L 19.460938 41.28125 L 19.535156 40.753906 L 17.820312 40.304688 Z M 17 43.304688 "/>
<path style=" stroke:none;fill-rule:nonzero;fill:rgb(70.196078%,13.333333%,14.901961%);fill-opacity:1;" d="M 21.769531 41.054688 L 20.949219 40.980469 L 20.800781 44.050781 L 21.621094 44.128906 C 22.589844 44.203125 23.410156 43.902344 23.484375 42.703125 C 23.558594 41.503906 22.664062 41.128906 21.769531 41.054688 Z M 21.769531 43.675781 L 21.398438 43.675781 L 21.546875 41.578125 L 21.917969 41.578125 C 22.515625 41.65625 22.886719 42.253906 22.8125 42.777344 C 22.664062 43.304688 22.214844 43.675781 21.769531 43.675781 Z M 21.769531 43.675781 "/>
<path style=" stroke:none;fill-rule:nonzero;fill:rgb(70.196078%,13.333333%,14.901961%);fill-opacity:1;" d="M 26.539062 40.832031 L 26.015625 44.128906 L 26.613281 43.976562 L 26.761719 43.226562 L 28.027344 42.929688 L 28.402344 43.527344 L 29.070312 43.453125 L 27.285156 40.679688 Z M 26.835938 42.703125 L 26.984375 41.355469 L 27.65625 42.480469 Z M 26.835938 42.703125 "/>
<path style=" stroke:none;fill-rule:nonzero;fill:rgb(70.196078%,13.333333%,14.901961%);fill-opacity:1;" d="M 29.648438 42.542969 L 30.207031 42.339844 L 30.410156 42.902344 L 29.851562 43.105469 Z M 29.648438 42.542969 "/>
<path style=" stroke:none;fill-rule:nonzero;fill:rgb(70.196078%,13.333333%,14.901961%);fill-opacity:1;" d="M 31.308594 39.183594 L 30.5625 39.558594 L 32.050781 42.253906 L 32.796875 41.878906 C 33.617188 41.429688 34.214844 40.753906 33.617188 39.632812 C 33.019531 38.507812 32.125 38.734375 31.308594 39.183594 Z M 32.648438 41.429688 L 32.351562 41.578125 L 31.308594 39.707031 L 31.605469 39.558594 C 32.125 39.332031 32.796875 39.632812 32.945312 40.15625 C 33.167969 40.605469 33.019531 41.128906 32.648438 41.429688 Z M 32.648438 41.429688 "/>
<path style=" stroke:none;fill-rule:nonzero;fill:rgb(70.196078%,13.333333%,14.901961%);fill-opacity:1;" d="M 34.476562 40.148438 L 34.96875 39.808594 L 35.308594 40.300781 L 34.816406 40.640625 Z M 34.476562 40.148438 "/>
<path style=" stroke:none;fill-rule:nonzero;fill:rgb(70.196078%,13.333333%,14.901961%);fill-opacity:1;" d="M 35.703125 35.886719 L 35.628906 37.085938 L 36.074219 37.085938 L 36.148438 36.484375 L 37.863281 38.132812 L 38.3125 37.683594 L 36.074219 35.511719 Z M 35.703125 35.886719 "/>
<path style=" stroke:none;fill-rule:nonzero;fill:rgb(70.196078%,13.333333%,14.901961%);fill-opacity:1;" d="M 40.023438 34.164062 C 39.726562 33.9375 39.355469 33.9375 39.054688 34.164062 C 39.128906 33.863281 39.054688 33.488281 38.757812 33.339844 C 38.3125 33.113281 37.789062 33.265625 37.566406 33.636719 C 37.566406 33.636719 37.566406 33.714844 37.566406 33.714844 C 37.269531 34.011719 37.195312 34.539062 37.566406 34.910156 C 37.566406 34.910156 37.640625 34.988281 37.640625 34.988281 C 37.9375 35.136719 38.238281 35.136719 38.535156 34.988281 C 38.386719 35.363281 38.535156 35.734375 38.832031 35.960938 C 39.28125 36.261719 39.800781 36.1875 40.097656 35.734375 C 40.097656 35.660156 40.175781 35.660156 40.175781 35.585938 C 40.546875 35.285156 40.546875 34.6875 40.25 34.3125 C 40.175781 34.3125 40.097656 34.238281 40.023438 34.164062 Z M 38.609375 34.386719 C 38.460938 34.539062 38.160156 34.613281 37.9375 34.539062 C 37.789062 34.386719 37.789062 34.164062 37.9375 33.9375 C 38.011719 33.789062 38.238281 33.714844 38.460938 33.863281 C 38.460938 33.863281 38.460938 33.863281 38.535156 33.863281 C 38.683594 34.011719 38.683594 34.238281 38.609375 34.386719 Z M 39.726562 35.285156 C 39.578125 35.511719 39.28125 35.511719 39.128906 35.4375 C 38.980469 35.285156 38.90625 35.0625 38.980469 34.835938 C 39.207031 34.613281 39.503906 34.613281 39.726562 34.761719 C 39.875 34.835938 39.949219 35.0625 39.726562 35.285156 C 39.800781 35.285156 39.800781 35.285156 39.726562 35.285156 Z M 39.726562 35.285156 "/>
<path style=" stroke:none;fill-rule:nonzero;fill:rgb(70.196078%,13.333333%,14.901961%);fill-opacity:1;" d="M 41.589844 30.941406 C 41.21875 30.714844 40.695312 30.792969 40.398438 31.167969 C 40.398438 31.242188 40.324219 31.242188 40.324219 31.316406 C 40.175781 31.539062 40.175781 31.765625 40.324219 31.988281 C 39.875 31.839844 39.652344 31.390625 39.800781 30.941406 C 39.875 30.792969 40.023438 30.640625 40.175781 30.492188 L 39.800781 30.191406 C 39.652344 30.34375 39.503906 30.492188 39.429688 30.714844 C 38.980469 31.617188 39.652344 32.289062 40.398438 32.664062 C 41.140625 33.039062 41.738281 33.113281 42.109375 32.363281 C 42.410156 31.914062 42.1875 31.316406 41.738281 31.015625 C 41.664062 31.015625 41.589844 30.941406 41.589844 30.941406 Z M 41.664062 32.140625 C 41.515625 32.363281 41.292969 32.441406 41.066406 32.289062 C 41.066406 32.289062 41.066406 32.289062 40.992188 32.289062 C 40.769531 32.214844 40.621094 31.914062 40.695312 31.691406 C 40.84375 31.464844 41.140625 31.390625 41.367188 31.539062 C 41.664062 31.617188 41.738281 31.914062 41.664062 32.140625 Z M 41.664062 32.140625 "/>
<path style=" stroke:none;fill-rule:nonzero;fill:rgb(70.196078%,13.333333%,14.901961%);fill-opacity:1;" d="M 42.78125 27.570312 C 42.335938 27.34375 41.8125 27.570312 41.589844 28.09375 C 41.589844 28.167969 41.515625 28.167969 41.515625 28.246094 C 41.515625 28.320312 41.441406 28.394531 41.441406 28.542969 L 40.84375 28.320312 L 41.21875 27.195312 L 40.695312 27.046875 L 40.175781 28.769531 L 41.738281 29.292969 C 41.738281 29.070312 41.738281 28.917969 41.8125 28.769531 C 41.8125 28.46875 42.109375 28.167969 42.410156 28.246094 C 42.484375 28.246094 42.484375 28.246094 42.558594 28.246094 C 42.855469 28.320312 43.003906 28.695312 42.929688 28.992188 C 42.929688 28.992188 42.929688 29.070312 42.929688 29.070312 C 42.855469 29.292969 42.78125 29.441406 42.632812 29.667969 L 43.15625 29.816406 C 43.304688 29.59375 43.378906 29.367188 43.453125 29.144531 C 43.675781 28.617188 43.453125 28.019531 42.929688 27.71875 C 42.855469 27.644531 42.78125 27.644531 42.78125 27.570312 Z M 42.78125 27.570312 "/>
</g>
</svg>
